<svg width="153" height="149" viewBox="0 0 153 149" fill="none" xmlns="http://www.w3.org/2000/svg">
<path opacity="0.43" d="M152.064 65.9014C152.064 101.947 111.341 146.221 75.2955 146.221C39.2502 146.221 -0.000120133 110.365 -0.000120133 74.3202C-0.000120133 38.275 39.2502 0.635742 75.2955 0.635742C111.341 0.635742 152.064 29.8562 152.064 65.9014Z" fill="#FD676A"/>
<path d="M67.1348 11.3755C75.3354 11.3756 81.0415 13.6825 85.123 16.3169C87.147 17.6233 88.7455 18.9939 90.0146 20.1431C91.368 21.3686 92.1489 22.1428 92.7949 22.5737C94.6232 23.7926 95.9285 25.8851 96.9004 28.2671C97.8882 30.6885 98.6267 33.646 99.1816 36.8833C100.292 43.3637 100.712 51.241 100.788 58.811C100.864 66.3956 100.595 73.7414 100.308 79.186C100.164 81.9097 100.014 84.1618 99.9014 85.7339C99.8698 86.1735 99.8395 86.5602 99.8145 86.8892C101.862 87.8499 103.898 89.0374 105.812 90.5122C113.208 96.2109 115.427 105.979 115.926 113.858C116.179 117.856 115.998 121.509 115.756 124.159C115.634 125.486 115.497 126.567 115.389 127.321C115.335 127.698 115.288 127.994 115.254 128.198C115.237 128.3 115.223 128.379 115.214 128.434C115.209 128.461 115.206 128.482 115.203 128.498C115.202 128.505 115.2 128.512 115.199 128.516C115.199 128.518 115.199 128.521 115.198 128.522V128.524C115.191 128.523 115.079 128.503 113.37 128.188C111.557 127.854 111.542 127.851 111.542 127.851V127.85C111.542 127.848 111.543 127.845 111.544 127.84C111.546 127.831 111.549 127.814 111.553 127.792C111.56 127.749 111.572 127.682 111.587 127.592C111.617 127.413 111.659 127.143 111.709 126.794C111.809 126.095 111.939 125.076 112.054 123.82C112.284 121.302 112.453 117.848 112.216 114.092C111.733 106.463 109.606 98.1281 103.543 93.4565C101.536 91.9106 99.35 90.7018 97.1318 89.7583C92.8873 87.9531 88.576 87.1415 85.3037 86.7866C83.6734 86.6099 82.3145 86.5479 81.3701 86.5298C81.1805 86.5262 81.0073 86.5246 80.8525 86.5239L69.1113 104.189L67.5459 106.543L66.0049 104.173L54.5146 86.4976C54.3437 86.4946 54.1493 86.4919 53.9346 86.4927C52.9667 86.4962 51.577 86.549 49.9219 86.7476C46.5986 87.1464 42.2726 88.1255 38.1377 90.4165C36.2609 91.4564 34.4264 92.765 32.7402 94.4106C30.5676 96.5312 28.8563 99.6335 27.5361 103.242C26.223 106.831 25.3416 110.793 24.7539 114.512C24.1673 118.225 23.8797 121.652 23.7393 124.152C23.6691 125.4 23.6368 126.415 23.6211 127.114C23.6132 127.463 23.6089 127.733 23.6074 127.915C23.6067 128.005 23.6065 128.073 23.6064 128.118V128.18C23.5972 128.18 23.4705 128.181 21.748 128.188C19.968 128.196 19.8928 128.195 19.8896 128.195V128.111C19.8897 128.058 19.8898 127.982 19.8906 127.883C19.8923 127.686 19.896 127.397 19.9043 127.03C19.9208 126.295 19.9556 125.239 20.0283 123.944C20.1736 121.357 20.4718 117.8 21.083 113.932C21.6932 110.071 22.6225 105.855 24.0459 101.964C25.4624 98.0931 27.4143 94.4144 30.1436 91.7505C31.7652 90.1677 33.5001 88.8643 35.2676 87.7886C35.2362 87.4671 35.1988 87.0849 35.1582 86.647C35.02 85.1547 34.835 83.0128 34.6475 80.4087C34.2725 75.2028 33.8859 68.1347 33.8418 60.7036C33.7978 53.2839 34.095 45.445 35.1035 38.7163C35.6078 35.3519 36.2963 32.2185 37.2305 29.5327C38.1576 26.8671 39.3696 24.5143 40.9932 22.8296C45.1559 18.5102 53.2796 11.3757 67.1348 11.3755ZM57.3955 84.1099L67.5801 99.7769L77.9883 84.1177V75.3413C74.8527 76.7067 71.3922 77.4663 67.7539 77.4663C63.9928 77.4663 60.4237 76.656 57.208 75.2046L57.3955 84.1099ZM67.1348 15.0923C54.743 15.0925 47.5262 21.4083 43.6699 25.4097C42.5712 26.5498 41.5814 28.3378 40.7412 30.7534C39.908 33.1489 39.2631 36.0394 38.7793 39.2671C37.8117 45.7232 37.5161 53.3459 37.5596 60.6812C37.603 68.005 37.9842 74.9868 38.3555 80.1411C38.5257 82.5049 38.6944 84.4823 38.8262 85.9282C42.6904 84.2107 46.4918 83.4156 49.4785 83.0571C51.1514 82.8564 52.5843 82.7922 53.6494 82.7798L53.4453 73.1089C46.484 68.424 41.9488 60.4213 42.0947 51.3892L42.3057 38.3286L42.3301 36.7886L43.8486 36.5269C53.5794 34.8521 64.1907 30.6289 70.3994 20.1372L72.3115 16.9067L73.7217 20.3853C75.9714 25.9344 81.672 35.4266 91.8291 36.9253L93.416 37.1587V51.8032C93.416 60.8311 88.7535 68.7688 81.7061 73.3433V82.8208C82.7223 82.8468 84.0937 82.9166 85.7051 83.0913C88.6096 83.4063 92.3362 84.0625 96.1973 85.4146C96.3082 83.8649 96.4548 81.6571 96.5957 78.9907C96.881 73.5931 97.1463 66.3295 97.0713 58.8481C96.9961 51.3517 96.579 43.7035 95.5176 37.5112C94.9864 34.4127 94.3047 31.7457 93.458 29.6704C92.5953 27.5562 91.6502 26.2778 90.7334 25.6665C89.7828 25.0326 88.6401 23.9126 87.5195 22.8979C86.3143 21.8066 84.8857 20.5884 83.1064 19.4399C79.5804 17.1641 74.5679 15.0923 67.1348 15.0923ZM71.71 24.8911C64.9665 34.0996 54.981 38.1357 45.9971 39.9077L45.8115 51.4487C45.6134 63.706 55.495 73.7495 67.7539 73.7495C79.8739 73.7493 89.6992 63.9233 89.6992 51.8032V40.3081C80.3428 38.2278 74.6442 30.5786 71.71 24.8911Z" fill="#2E3589"/>
<ellipse cx="108.178" cy="105.623" rx="27.5717" ry="32.5825" transform="rotate(31.4201 108.178 105.623)" fill="#FCBCBF"/>
<path d="M102.127 138.437C102.127 138.437 102.737 134.005 102.281 131.748C102.014 130.425 100.996 129.373 99.6867 129.049C98.4747 128.746 97.2222 128.603 95.9723 128.622C94.682 128.644 93.389 128.838 92.104 128.719C89.1482 128.447 87.3342 126.454 88.584 123.358C89.24 121.865 88.5516 120.913 88.0765 120.062C86.6755 117.549 88.7325 116.985 88.7649 115.233C88.7783 114.45 88.1467 113.832 87.3692 113.748C86.2436 113.629 85.2772 113.146 84.6725 112.531C84.1488 111.996 84.0678 111.167 84.4593 110.53C89.6179 102.132 88.5705 104.343 90.3575 92.5115C91.5291 84.7722 100.138 75.5859 117.368 78.4366C120.983 79.0331 124.592 80.094 127.618 82.1591C134.639 86.9533 138.413 97.0574 134.739 108.811C132.674 115.416 128.071 122.5 129.483 129.856L131.486 137.965" stroke="#2E3589" stroke-width="3.71721"/>
<path d="M111.071 100.603C115.181 102.529 119.163 95.9783 111.97 94.9507C104.586 94.9507 104.777 101.887 105.804 103.557C106.832 105.227 114.025 111.649 120.191 103.557C126.356 95.4645 118.393 88.7851 111.97 88.7852C105.548 88.7852 98.6113 92.7671 98.6113 100.603C98.6113 108.438 106.832 113.705 111.97 113.705C117.108 113.705 128.026 111.392 127.641 96.749" stroke="#2E3589" stroke-width="3.71721" stroke-linecap="round"/>
</svg>
