<svg width="138" height="138" viewBox="0 0 138 138" fill="none" xmlns="http://www.w3.org/2000/svg">
<path d="M128 69C128 101.585 101.585 128 69 128C36.4152 128 10 101.585 10 69C10 36.4152 36.4152 10 69 10C101.585 10 128 36.4152 128 69Z" fill="url(#paint0_linear_2328_4683)"/>
<path d="M128 69C128 101.585 101.585 128 69 128C36.4152 128 10 101.585 10 69C10 36.4152 36.4152 10 69 10C101.585 10 128 36.4152 128 69Z" fill="url(#paint1_linear_2328_4683)"/>
<path d="M76.1328 71.9336C76.906 70.9027 78.3685 70.6936 79.3994 71.4668C80.43 72.2401 80.6393 73.7026 79.8662 74.7334L78 73.333L79.8652 74.7344L79.8643 74.7363L79.8613 74.7393C79.8594 74.7418 79.8568 74.745 79.8545 74.748C79.8498 74.7542 79.8443 74.7621 79.8379 74.7705C79.8249 74.7873 79.8081 74.8087 79.7881 74.834C79.7479 74.8847 79.6933 74.9518 79.625 75.0332C79.4882 75.1962 79.2943 75.4176 79.0459 75.6768C78.5511 76.1931 77.8278 76.8735 76.8926 77.5537C75.0308 78.9077 72.2252 80.3329 68.666 80.333C65.1068 80.3329 62.3013 78.9077 60.4395 77.5537C59.5043 76.8736 58.781 76.1931 58.2861 75.6768C58.0379 75.4178 57.8438 75.1962 57.707 75.0332C57.6389 74.952 57.5841 74.8847 57.5439 74.834C57.524 74.8088 57.5071 74.7873 57.4941 74.7705C57.4878 74.7622 57.4822 74.7542 57.4775 74.748C57.4753 74.7452 57.4734 74.7417 57.4717 74.7393L57.4688 74.7363L57.4678 74.7344C57.472 74.73 57.5636 74.66 59.333 73.333L57.4668 74.7334C56.6937 73.7026 56.9021 72.2401 57.9326 71.4668C58.9625 70.6945 60.4225 70.9025 61.1963 71.9307C61.1979 71.9326 61.201 71.9348 61.2031 71.9375C61.2171 71.9552 61.2441 71.9877 61.2822 72.0332C61.3595 72.1253 61.4848 72.2694 61.6553 72.4473C61.999 72.8059 62.516 73.2931 63.1846 73.7793C64.531 74.7584 66.3926 75.6659 68.666 75.666C70.9396 75.6659 72.802 74.7585 74.1484 73.7793C74.817 73.293 75.3331 72.8059 75.6768 72.4473C75.8476 72.269 75.9734 72.1253 76.0508 72.0332C76.0892 71.9874 76.116 71.955 76.1299 71.9375L76.1328 71.9336Z" fill="white"/>
<path d="M61.1963 71.9277V71.9307L61.1934 71.9248L61.1963 71.9277Z" fill="white"/>
<path d="M61.6895 59.333C62.9781 59.3331 64.0225 60.3774 64.0225 61.666C64.0225 62.9546 62.9781 63.999 61.6895 63.999H61.666C60.3774 63.999 59.333 62.9547 59.333 61.666C59.333 60.3774 60.3774 59.333 61.666 59.333H61.6895Z" fill="white"/>
<path d="M75.6895 59.333C76.9781 59.3331 78.0225 60.3774 78.0225 61.666C78.0225 62.9546 76.9781 63.999 75.6895 63.999H75.666C74.3774 63.999 73.333 62.9547 73.333 61.666C73.333 60.3774 74.3774 59.333 75.666 59.333H75.6895Z" fill="white"/>
<path fill-rule="evenodd" clip-rule="evenodd" d="M68.666 43C82.8411 43.0001 94.3328 54.4909 94.333 68.666C94.3328 82.8411 82.8411 94.3329 68.666 94.333C54.491 94.3328 43.0002 82.841 43 68.666C43.0002 54.491 54.491 43.0002 68.666 43ZM68.666 47.666C57.0683 47.6662 47.6662 57.0683 47.666 68.666C47.6662 80.2637 57.0683 89.6658 68.666 89.666C80.2638 89.6659 89.6658 80.2637 89.666 68.666C89.6658 57.0683 80.2638 47.6661 68.666 47.666Z" fill="white"/>
<path d="M125 69C125 38.0721 99.9279 13 69 13C38.0721 13 13 38.0721 13 69C13 99.9279 38.0721 125 69 125C99.9279 125 125 99.9279 125 69ZM135 69C135 105.451 105.451 135 69 135C32.5492 135 3 105.451 3 69C3 32.5492 32.5492 3 69 3C105.451 3 135 32.5492 135 69Z" fill="white"/>
<defs>
<linearGradient id="paint0_linear_2328_4683" x1="10" y1="10" x2="128" y2="128" gradientUnits="userSpaceOnUse">
<stop stop-color="#FB64B6"/>
<stop offset="1" stop-color="#FF1CE3"/>
</linearGradient>
<linearGradient id="paint1_linear_2328_4683" x1="10" y1="10" x2="128" y2="128" gradientUnits="userSpaceOnUse">
<stop stop-color="#51A2FF"/>
<stop offset="1" stop-color="#00B8DB"/>
</linearGradient>
</defs>
</svg>
