<svg width="153" height="146" viewBox="0 0 153 146" fill="none" xmlns="http://www.w3.org/2000/svg">
<path opacity="0.2" d="M152.064 65.2657C152.064 101.311 111.341 145.586 75.2955 145.586C39.2502 145.586 -0.000120133 109.73 -0.000120133 73.6844C-0.000120133 37.6392 39.2502 0 75.2955 0C111.341 0 152.064 29.2204 152.064 65.2657Z" fill="#5EFF00"/>
<path fill-rule="evenodd" clip-rule="evenodd" d="M78.5479 41.7354C84.6016 41.7354 90.294 44.3942 94.1797 49.0303C94.1806 49.0318 94.1817 49.0335 94.1826 49.0352C94.2056 49.0757 94.2391 49.136 94.2832 49.2158C94.3713 49.3753 94.4972 49.6063 94.6562 49.8984C94.9744 50.4829 95.4222 51.3105 95.9561 52.2988C97.0238 54.2755 98.4354 56.896 99.8428 59.5117C101.25 62.1273 102.654 64.7377 103.705 66.6943C104.231 67.6726 104.668 68.4883 104.975 69.0586C105.128 69.3434 105.248 69.5671 105.33 69.7197C105.371 69.796 105.403 69.8551 105.424 69.8945C105.434 69.9141 105.442 69.9295 105.447 69.9395C105.45 69.9441 105.452 69.9477 105.453 69.9502C105.454 69.9513 105.455 69.9525 105.455 69.9531C106.106 71.1842 107.383 71.9443 108.774 71.9443H121.338C122.591 71.9443 123.608 72.9619 123.608 74.2148C123.608 75.4675 122.591 76.4844 121.338 76.4844H108.774C105.8 76.4843 103.072 74.9091 101.59 72.3535L101.45 72.1025L92.0957 54.6494L74.5068 97.6201L89.4336 106.753C91.9239 108.284 93.4062 110.936 93.4062 113.846V137.713L93.4209 137.785C93.4212 137.787 93.4213 137.79 93.4219 137.794C93.4241 137.808 93.4279 137.831 93.4316 137.863C93.4392 137.928 93.4474 138.025 93.4482 138.143C93.45 138.384 93.4207 138.685 93.3135 138.97C93.2098 139.245 93.0353 139.505 92.7344 139.702C92.4288 139.902 91.933 140.077 91.125 140.077H91.0986L91.0732 140.079C90.4693 140.121 90.0747 139.983 89.8047 139.799C89.5246 139.608 89.3184 139.327 89.1689 139C89.0191 138.673 88.9391 138.328 88.8984 138.057C88.8785 137.923 88.869 137.812 88.8643 137.737C88.8619 137.7 88.8609 137.672 88.8604 137.655C88.8601 137.648 88.8595 137.643 88.8594 137.64V113.828C88.8594 112.501 88.1779 111.301 87.0557 110.605L87.0518 110.603L59.8877 93.9795C53.9612 90.2271 51.6075 82.8378 54.252 76.3896L66.6064 46.2705H50.9912C49.4731 46.2706 48.1161 47.1779 47.5225 48.5752L47.5215 48.5762L41.415 63.0117C40.9269 64.1593 39.5793 64.6927 38.4355 64.2188C37.2831 63.7268 36.7473 62.4005 37.2324 61.2412L37.2334 61.2422L43.3398 46.8047C44.6419 43.7242 47.6438 41.7354 50.9912 41.7354H78.5479ZM71.2881 46.2822L58.4521 78.1221C56.6408 82.5366 58.2566 87.5868 62.2842 90.1367L62.3164 90.1572L62.333 90.165L70.5889 95.2168L70.9238 94.4023L70.9248 94.4004C70.9253 94.3991 70.9258 94.3969 70.9268 94.3945C70.9289 94.3893 70.9323 94.3814 70.9365 94.3711C70.9451 94.3503 70.9579 94.3191 70.9746 94.2783C71.0084 94.1961 71.0587 94.0731 71.124 93.9141C71.2547 93.5958 71.4465 93.129 71.6904 92.5352C72.1786 91.3466 72.8768 89.6483 73.7139 87.6104C75.3882 83.5342 77.6215 78.0975 79.8564 72.6582C82.0913 67.219 84.328 61.776 86.0098 57.6865C86.8505 55.642 87.5531 53.9358 88.0469 52.7373C88.2937 52.1382 88.4882 51.6656 88.6221 51.3418C88.6889 51.1801 88.7402 51.0553 88.7754 50.9707C88.792 50.9308 88.8047 50.8998 88.8135 50.8789L89.0977 50.3682L88.6191 49.9707C85.8043 47.6366 82.2901 46.2823 78.5479 46.2822H71.2881Z" fill="#376080"/>
<path d="M94.1904 137.938C94.1789 137.761 94.158 137.649 94.1562 137.64C94.1562 137.64 94.1784 137.753 94.1904 137.938Z" fill="#376080"/>
<path d="M50.6416 106.537C51.1043 105.459 52.3062 104.924 53.4102 105.264L53.6299 105.344C54.775 105.841 55.3073 107.174 54.8135 108.325L52.5 113.726C51.1927 116.783 48.1906 118.762 44.8662 118.762H30.7256C29.4709 118.762 28.4554 117.749 28.4551 116.498C28.4551 115.245 29.4727 114.228 30.7256 114.228H44.8662C46.3756 114.227 47.7333 113.328 48.3281 111.937L50.6416 106.537Z" fill="#376080"/>
<path d="M27.7051 116.498C27.7051 116.551 27.7063 116.604 27.709 116.656C27.7089 116.655 27.709 116.653 27.709 116.652C27.7064 116.601 27.7051 116.55 27.7051 116.498Z" fill="#376080"/>
<path d="M30.5703 113.481C30.3929 113.49 30.2198 113.516 30.0518 113.555C30.1711 113.527 30.2927 113.506 30.417 113.493L30.5703 113.481Z" fill="#376080"/>
<path d="M45.2988 113.446L45.0908 113.469C45.1627 113.463 45.234 113.455 45.3047 113.444C45.3027 113.445 45.3008 113.446 45.2988 113.446Z" fill="#376080"/>
<path d="M55.748 107.446C55.7461 107.839 55.6684 108.238 55.5039 108.621C55.5861 108.43 55.646 108.234 55.6865 108.037C55.7271 107.84 55.7471 107.643 55.748 107.446Z" fill="#376080"/>
<path d="M53.5586 76.1055L53.4316 76.4238C53.2801 76.8181 53.147 77.2157 53.0303 77.6152C53.1786 77.1078 53.3541 76.6042 53.5586 76.1055Z" fill="#376080"/>
<path d="M124.358 74.2148C124.358 74.4406 124.331 74.6594 124.284 74.8711C124.32 74.7085 124.346 74.5414 124.354 74.3701C124.357 74.3187 124.358 74.2669 124.358 74.2148Z" fill="#376080"/>
<path d="M121.339 71.1943C121.547 71.1944 121.75 71.2157 121.946 71.2559C121.848 71.2357 121.748 71.2203 121.646 71.21C121.596 71.2048 121.545 71.2008 121.493 71.1982L121.339 71.1943Z" fill="#376080"/>
<path d="M38.292 64.9668C38.359 64.9907 38.4273 65.0094 38.4951 65.0283C38.4758 65.0229 38.4558 65.0195 38.4365 65.0137L38.292 64.9668Z" fill="#376080"/>
<path d="M41.9707 63.583C41.9083 63.696 41.8375 63.8024 41.7627 63.9043C41.8671 63.7621 41.9613 63.6098 42.041 63.4463L41.9707 63.583Z" fill="#376080"/>
<path d="M50.7725 47.0273C50.5516 47.0433 50.3361 47.0836 50.1289 47.1455C50.3336 47.0843 50.5465 47.0446 50.7646 47.0283L50.7725 47.0273Z" fill="#376080"/>
<path d="M90.3232 28.8076C90.7677 28.875 91.2226 28.9101 91.6855 28.9102C91.5293 28.9102 91.374 28.9073 91.2197 28.8994C90.9167 28.884 90.6178 28.8522 90.3232 28.8076Z" fill="#376080"/>
<path d="M100.746 19.8506L100.734 20.3154C100.72 20.6044 100.691 20.8896 100.649 21.1709C100.713 20.7395 100.746 20.2992 100.746 19.8506Z" fill="#376080"/>
<path d="M82.625 19.8506C82.625 20.1577 82.6399 20.4614 82.6699 20.7607C82.6551 20.6133 82.6443 20.4648 82.6367 20.3154L82.625 19.8506Z" fill="#376080"/>
<path d="M94.7979 11.3398C95.0753 11.4417 95.3463 11.5571 95.6104 11.6846C95.4783 11.6208 95.3445 11.5603 95.209 11.5029L94.7979 11.3398Z" fill="#376080"/>
<path d="M93.9473 11.0742L94.377 11.1973C94.1197 11.1171 93.8573 11.0494 93.5908 10.9922C93.7104 11.0179 93.8295 11.0438 93.9473 11.0742Z" fill="#376080"/>
<path d="M91.2207 10.8008L90.7607 10.8359C91.0649 10.8049 91.3734 10.7891 91.6855 10.7891C91.5297 10.7891 91.3747 10.793 91.2207 10.8008Z" fill="#376080"/>
<path fill-rule="evenodd" clip-rule="evenodd" d="M91.6855 5.49902C99.6011 5.49902 106.037 11.935 106.037 19.8506C106.037 27.7657 99.5951 34.2012 91.6855 34.2012C83.7761 34.201 77.3353 27.7656 77.335 19.8506C77.335 11.9351 83.7701 5.49917 91.6855 5.49902ZM91.6855 10.0391C86.276 10.0392 81.875 14.441 81.875 19.8506C81.8753 25.2599 86.2762 29.661 91.6855 29.6611C97.095 29.6611 101.496 25.26 101.496 19.8506C101.496 14.4409 97.0952 10.0391 91.6855 10.0391Z" fill="#376080"/>
<path d="M77.0605 16.0791L77.0615 16.0801C77.0305 16.2006 77.0008 16.3217 76.9727 16.4434C76.8601 16.93 76.7712 17.4255 76.707 17.9287L76.6631 18.3076C76.7405 17.5468 76.8741 16.8025 77.0605 16.0791Z" fill="#376080"/>
<path d="M78.4092 12.6562L78.4102 12.6572C78.352 12.7642 78.2949 12.8719 78.2393 12.9805C77.9055 13.6314 77.6175 14.3095 77.3799 15.0107L77.2646 15.3633C77.5592 14.418 77.9438 13.5121 78.4092 12.6562Z" fill="#376080"/>
<path d="M103.998 11.1123C104.138 11.3097 104.274 11.5106 104.405 11.7148C104.34 11.6125 104.273 11.5118 104.205 11.4111C104.069 11.2104 103.929 11.013 103.784 10.8193L103.998 11.1123Z" fill="#376080"/>
<path d="M76.6045 20.626V20.6201C76.6089 20.7066 76.6143 20.7928 76.6201 20.8789C76.6144 20.7948 76.6088 20.7105 76.6045 20.626Z" fill="#376080"/>
<path d="M106.557 22.4854L106.612 22.1475C106.595 22.2612 106.576 22.3744 106.556 22.4873L106.557 22.4854Z" fill="#376080"/>
</svg>
