<svg width="153" height="147" viewBox="0 0 153 147" fill="none" xmlns="http://www.w3.org/2000/svg">
<g opacity="0.45">
<path d="M152.064 65.9014C152.064 101.947 111.341 146.221 75.2955 146.221C39.2502 146.221 -0.000120133 110.365 -0.000120133 74.3202C-0.000120133 38.275 39.2502 0.635742 75.2955 0.635742C111.341 0.635742 152.064 29.8562 152.064 65.9014Z" fill="#FD676A"/>
<path d="M152.064 65.9014C152.064 101.947 111.341 146.221 75.2955 146.221C39.2502 146.221 -0.000120133 110.365 -0.000120133 74.3202C-0.000120133 38.275 39.2502 0.635742 75.2955 0.635742C111.341 0.635742 152.064 29.8562 152.064 65.9014Z" fill="#18CFFF"/>
</g>
<path fill-rule="evenodd" clip-rule="evenodd" d="M80.8369 53.2471C82.8631 53.2472 84.5068 54.8908 84.5068 56.917V67.5166C84.5068 68.345 85.1784 69.0166 86.0068 69.0166H96.6064C98.6326 69.0167 100.276 70.6603 100.276 72.6865V83.1982C100.276 85.2245 98.6326 86.8681 96.6064 86.8682H86.0068C85.1784 86.8682 84.5068 87.5397 84.5068 88.3682V98.9678C84.5068 100.994 82.8631 102.638 80.8369 102.638H70.3252C68.2989 102.638 66.6553 100.994 66.6553 98.9678V88.3682C66.6553 87.5398 65.9836 86.8683 65.1553 86.8682H54.5557C52.5294 86.8682 50.8867 85.2245 50.8867 83.1982V72.6865C50.8867 70.6602 52.5294 69.0166 54.5557 69.0166H65.1553C65.9836 69.0165 66.6553 68.345 66.6553 67.5166V56.917C66.6553 54.8907 68.2989 53.2471 70.3252 53.2471H80.8369ZM71.9893 57.0811C71.1611 57.0813 70.4895 57.7529 70.4893 58.5811V70.9336C70.4892 71.9921 69.6307 72.8504 68.5723 72.8506H56.2197C55.3916 72.8508 54.7199 73.5225 54.7197 74.3506V81.5342C54.7198 82.3624 55.3916 83.0339 56.2197 83.0342H68.5723C69.6307 83.0343 70.4892 83.8927 70.4893 84.9512V97.3037C70.4894 98.1319 71.1611 98.8035 71.9893 98.8037H79.1729C80.0011 98.8036 80.6727 98.132 80.6729 97.3037V84.9512C80.6729 83.8927 81.5314 83.0342 82.5898 83.0342H94.9424C95.7706 83.034 96.4423 82.3624 96.4424 81.5342V74.3506C96.4422 73.5224 95.7705 72.8508 94.9424 72.8506H82.5898C81.5313 72.8505 80.6729 71.9921 80.6729 70.9336V58.5811C80.6726 57.7529 80.001 57.0812 79.1729 57.0811H71.9893Z" fill="#2E3589"/>
<path fill-rule="evenodd" clip-rule="evenodd" d="M90.959 16.8027L91.1553 16.8125C92.1217 16.9109 92.876 17.7276 92.876 18.7197V22.9307C92.8761 23.7589 93.5477 24.4306 94.376 24.4307H116.585C117.643 24.431 118.501 25.2888 118.501 26.3477V128.055C118.501 128.564 118.299 129.051 117.94 129.41L117.8 129.538C117.459 129.817 117.03 129.972 116.585 129.972H34.583C34.1385 129.972 33.7093 129.818 33.3682 129.538L33.2275 129.41C32.913 129.095 32.7193 128.683 32.6758 128.244L32.666 128.055V26.3477C32.666 25.289 33.5245 24.4307 34.583 24.4307H56.792C57.6201 24.4304 58.2919 23.7588 58.292 22.9307V18.7197C58.292 17.6611 59.1504 16.8027 60.209 16.8027H90.959ZM38 28.2646C37.1716 28.2646 36.5 28.9362 36.5 29.7646V124.639C36.5003 125.467 37.1717 126.139 38 126.139H113.168C113.996 126.139 114.668 125.467 114.668 124.639V29.7646C114.668 28.9363 113.996 28.2648 113.168 28.2646H94.376C93.5476 28.2648 92.876 28.9363 92.876 29.7646V33.9756C92.8757 35.0337 92.0174 35.8924 90.959 35.8926H60.209C59.1505 35.8926 58.2922 35.034 58.292 33.9756V29.7646C58.292 28.9364 57.6202 28.2649 56.792 28.2646H38ZM63.625 20.6367C62.7966 20.6367 62.125 21.3083 62.125 22.1367V30.5596C62.1252 31.3879 62.7967 32.0596 63.625 32.0596H87.542C88.3702 32.0595 89.0418 31.3878 89.042 30.5596V22.1367C89.042 21.3084 88.3703 20.6368 87.542 20.6367H63.625Z" fill="#2E3589"/>
</svg>
