<svg width="138" height="138" viewBox="0 0 138 138" fill="none" xmlns="http://www.w3.org/2000/svg">
<path d="M128 69C128 101.585 101.585 128 69 128C36.4152 128 10 101.585 10 69C10 36.4152 36.4152 10 69 10C101.585 10 128 36.4152 128 69Z" fill="url(#paint0_linear_239_5009)"/>
<path d="M128 69C128 101.585 101.585 128 69 128C36.4152 128 10 101.585 10 69C10 36.4152 36.4152 10 69 10C101.585 10 128 36.4152 128 69Z" fill="url(#paint1_linear_239_5009)"/>
<path d="M128 69C128 101.585 101.585 128 69 128C36.4152 128 10 101.585 10 69C10 36.4152 36.4152 10 69 10C101.585 10 128 36.4152 128 69Z" fill="url(#paint2_linear_239_5009)"/>
<path d="M128 69C128 101.585 101.585 128 69 128C36.4152 128 10 101.585 10 69C10 36.4152 36.4152 10 69 10C101.585 10 128 36.4152 128 69Z" fill="url(#paint3_linear_239_5009)"/>
<path d="M59.1512 59.8237C60.947 63.5639 63.395 67.0694 66.4952 70.1697C69.5955 73.2699 73.101 75.7179 76.8412 77.5137C77.1629 77.6682 77.3238 77.7454 77.5273 77.8047C78.2507 78.0156 79.1389 77.8641 79.7515 77.4255C79.9239 77.3021 80.0714 77.1546 80.3663 76.8596C81.2683 75.9576 81.7193 75.5066 82.1729 75.2117C83.8832 74.0997 86.0882 74.0997 87.7985 75.2117C88.2521 75.5066 88.7031 75.9576 89.6051 76.8596L90.1079 77.3624C91.4791 78.7336 92.1647 79.4192 92.5371 80.1556C93.2778 81.6199 93.2778 83.3493 92.5371 84.8137C92.1647 85.55 91.4791 86.2356 90.1079 87.6068L89.7012 88.0136C88.3347 89.3801 87.6514 90.0633 86.7225 90.5851C85.6917 91.1642 84.0908 91.5805 82.9085 91.577C81.843 91.5738 81.1148 91.3671 79.6585 90.9538C71.8319 88.7324 64.4466 84.541 58.2853 78.3796C52.1239 72.2183 47.9325 64.833 45.7111 57.0064C45.2978 55.5501 45.0911 54.8219 45.0879 53.7564C45.0844 52.5742 45.5007 50.9732 46.0798 49.9424C46.6016 49.0135 47.2848 48.3302 48.6514 46.9637L49.0581 46.557C50.4293 45.1858 51.1149 44.5002 51.8512 44.1278C53.3156 43.3871 55.045 43.3871 56.5093 44.1278C57.2457 44.5002 57.9313 45.1858 59.3025 46.557L59.8053 47.0598C60.7073 47.9618 61.1583 48.4128 61.4532 48.8664C62.5652 50.5767 62.5652 52.7817 61.4532 54.492C61.1583 54.9456 60.7073 55.3966 59.8053 56.2986C59.5103 56.5935 59.3628 56.741 59.2394 56.9134C58.8008 57.526 58.6493 58.4142 58.8602 59.1376C58.9195 59.3411 58.9967 59.502 59.1512 59.8237Z" stroke="white" stroke-width="5" stroke-linecap="round" stroke-linejoin="round"/>
<path d="M125 69C125 38.0721 99.9279 13 69 13C38.0721 13 13 38.0721 13 69C13 99.9279 38.0721 125 69 125C99.9279 125 125 99.9279 125 69ZM135 69C135 105.451 105.451 135 69 135C32.5492 135 3 105.451 3 69C3 32.5492 32.5492 3 69 3C105.451 3 135 32.5492 135 69Z" fill="white"/>
<defs>
<linearGradient id="paint0_linear_239_5009" x1="10" y1="10" x2="128" y2="128" gradientUnits="userSpaceOnUse">
<stop stop-color="#FB64B6"/>
<stop offset="1" stop-color="#FF6900"/>
</linearGradient>
<linearGradient id="paint1_linear_239_5009" x1="10" y1="10" x2="128" y2="128" gradientUnits="userSpaceOnUse">
<stop stop-color="#51A2FF"/>
<stop offset="1" stop-color="#00B8DB"/>
</linearGradient>
<linearGradient id="paint2_linear_239_5009" x1="10" y1="10" x2="128" y2="128" gradientUnits="userSpaceOnUse">
<stop stop-color="#00D492"/>
<stop offset="1" stop-color="#00BBA7"/>
</linearGradient>
<linearGradient id="paint3_linear_239_5009" x1="49.4498" y1="32.2004" x2="143.75" y2="163.3" gradientUnits="userSpaceOnUse">
<stop stop-color="#5489FF"/>
<stop offset="1" stop-color="#3A46D6"/>
</linearGradient>
</defs>
</svg>
