<svg width="70" height="70" viewBox="0 0 70 70" fill="none" xmlns="http://www.w3.org/2000/svg">
<path d="M69.521 35.2327C69.521 54.2494 54.1049 69.6655 35.0881 69.6655C16.0714 69.6655 0.655273 54.2494 0.655273 35.2327C0.655273 16.2159 16.0714 0.799805 35.0881 0.799805C54.1049 0.799805 69.521 16.2159 69.521 35.2327Z" fill="url(#paint0_linear_2602_107004)"/>
<path d="M69.521 35.2327C69.521 54.2494 54.1049 69.6655 35.0881 69.6655C16.0714 69.6655 0.655273 54.2494 0.655273 35.2327C0.655273 16.2159 16.0714 0.799805 35.0881 0.799805C54.1049 0.799805 69.521 16.2159 69.521 35.2327Z" fill="url(#paint1_linear_2602_107004)"/>
<path d="M69.521 35.2327C69.521 54.2494 54.1049 69.6655 35.0881 69.6655C16.0714 69.6655 0.655273 54.2494 0.655273 35.2327C0.655273 16.2159 16.0714 0.799805 35.0881 0.799805C54.1049 0.799805 69.521 16.2159 69.521 35.2327Z" fill="url(#paint2_linear_2602_107004)"/>
<path d="M40.5069 23.2104C42.5352 24.2184 43.9292 26.3115 43.9292 28.7301C43.9292 31.1488 42.5352 33.2419 40.5069 34.2499M43.2447 41.4149C45.3138 42.3512 47.1769 43.877 48.7203 45.8414M21.3423 45.8414C24.0068 42.4501 27.6244 40.3658 31.6091 40.3658C35.5937 40.3658 39.2113 42.4501 41.8758 45.8414M37.7691 28.7301C37.7691 32.1322 35.0112 34.8902 31.6091 34.8902C28.2069 34.8902 25.449 32.1322 25.449 28.7301C25.449 25.328 28.2069 22.5701 31.6091 22.5701C35.0112 22.5701 37.7691 25.328 37.7691 28.7301Z" stroke="white" stroke-width="2.91804" stroke-linecap="round" stroke-linejoin="round"/>
<defs>
<linearGradient id="paint0_linear_2602_107004" x1="0.655273" y1="0.799805" x2="69.521" y2="69.6655" gradientUnits="userSpaceOnUse">
<stop stop-color="#FB64B6"/>
<stop offset="1" stop-color="#FF6900"/>
</linearGradient>
<linearGradient id="paint1_linear_2602_107004" x1="0.655273" y1="0.799805" x2="69.521" y2="69.6655" gradientUnits="userSpaceOnUse">
<stop stop-color="#00D492"/>
<stop offset="1" stop-color="#00BBA7"/>
</linearGradient>
<linearGradient id="paint2_linear_2602_107004" x1="-10.5501" y1="-11.7475" x2="48.511" y2="61.4077" gradientUnits="userSpaceOnUse">
<stop stop-color="#FFD969"/>
<stop offset="1" stop-color="#ED3B00"/>
</linearGradient>
</defs>
</svg>
