<svg width="70" height="70" viewBox="0 0 70 70" fill="none" xmlns="http://www.w3.org/2000/svg">
<path d="M69.5205 35.269C69.5205 54.2858 54.1044 69.7019 35.0876 69.7019C16.0709 69.7019 0.654785 54.2858 0.654785 35.269C0.654785 16.2523 16.0709 0.836182 35.0876 0.836182C54.1044 0.836182 69.5205 16.2523 69.5205 35.269Z" fill="url(#paint0_linear_2602_107009)"/>
<path d="M69.5205 35.269C69.5205 54.2858 54.1044 69.7019 35.0876 69.7019C16.0709 69.7019 0.654785 54.2858 0.654785 35.269C0.654785 16.2523 16.0709 0.836182 35.0876 0.836182C54.1044 0.836182 69.5205 16.2523 69.5205 35.269Z" fill="url(#paint1_linear_2602_107009)"/>
<path fill-rule="evenodd" clip-rule="evenodd" d="M33.5314 20.8738C34.2834 20.8739 34.893 21.4833 34.893 22.2353L35.0953 22.2405C36.1051 22.2905 37.0636 22.7133 37.7819 23.4316C38.548 24.1978 38.9782 25.2372 38.9782 26.3206V31.7674C38.9782 34.2955 37.9743 36.7203 36.1867 38.508C34.7512 39.9434 32.9047 40.8725 30.924 41.1832C31.1738 42.526 31.8225 43.7734 32.8019 44.7527C34.0788 46.0295 35.8109 46.7469 37.6166 46.7469C39.4224 46.7468 41.1546 46.0295 42.4314 44.7527C43.7083 43.4758 44.4256 41.7437 44.4256 39.9379V36.9811C42.8391 36.4203 41.702 34.9081 41.7019 33.1295C41.7019 30.8733 43.5309 29.0443 45.7872 29.0443C48.0433 29.0444 49.8724 30.8734 49.8724 33.1295C49.8723 34.908 48.7352 36.4202 47.1487 36.9811V39.9379C47.1487 42.466 46.1448 44.8908 44.3572 46.6785C42.5696 48.4661 40.1447 49.47 37.6166 49.47C35.0886 49.47 32.6637 48.4661 30.8761 46.6785C29.3917 45.1941 28.4482 43.2703 28.1706 41.2129C26.1134 40.9352 24.1899 39.9922 22.7056 38.508C20.9179 36.7203 19.9141 34.2955 19.9141 31.7674V26.3206C19.9141 25.2371 20.3442 24.1978 21.1103 23.4316C21.8285 22.7135 22.7868 22.2906 23.7964 22.2405L23.9993 22.2353C23.9993 21.4833 24.6088 20.8738 25.3609 20.8738C26.1129 20.8739 26.7224 21.4833 26.7224 22.2353V24.959C26.7222 25.7109 26.1128 26.3205 25.3609 26.3206C24.6089 26.3206 23.9995 25.7109 23.9993 24.959L23.8648 24.9653C23.553 24.9962 23.2596 25.1339 23.0361 25.3574C22.7808 25.6128 22.6372 25.9594 22.6372 26.3206V31.7674C22.6372 33.5732 23.3545 35.3053 24.6314 36.5822C25.9083 37.859 27.6404 38.5764 29.4461 38.5764C31.2519 38.5763 32.984 37.859 34.2609 36.5822C35.5377 35.3053 36.2551 33.5732 36.2551 31.7674V26.3206C36.2551 25.9595 36.1115 25.6128 35.8561 25.3574C35.6327 25.134 35.3392 24.9963 35.0275 24.9653L34.893 24.9585C34.8927 25.7103 34.2833 26.3205 33.5314 26.3206C32.7795 26.3206 32.17 25.7109 32.1698 24.959V22.2353C32.1698 21.4833 32.7793 20.8738 33.5314 20.8738ZM45.7872 31.7674C45.0351 31.7674 44.425 32.3775 44.425 33.1295C44.4252 33.8815 45.0352 34.4911 45.7872 34.4911C46.539 34.491 47.1485 33.8814 47.1487 33.1295C47.1487 32.3775 46.5391 31.7675 45.7872 31.7674Z" fill="white"/>
<defs>
<linearGradient id="paint0_linear_2602_107009" x1="0.654785" y1="0.836182" x2="69.5205" y2="69.7019" gradientUnits="userSpaceOnUse">
<stop stop-color="#FB64B6"/>
<stop offset="1" stop-color="#FF6900"/>
</linearGradient>
<linearGradient id="paint1_linear_2602_107009" x1="0.654785" y1="0.836182" x2="69.5205" y2="69.7019" gradientUnits="userSpaceOnUse">
<stop stop-color="#00D492"/>
<stop offset="1" stop-color="#00BBA7"/>
</linearGradient>
</defs>
</svg>
