<svg width="70" height="70" viewBox="0 0 70 70" fill="none" xmlns="http://www.w3.org/2000/svg">
<path d="M69.4321 35.2327C69.4321 54.2494 54.016 69.6655 34.9993 69.6655C15.9825 69.6655 0.566406 54.2494 0.566406 35.2327C0.566406 16.2159 15.9825 0.799805 34.9993 0.799805C54.016 0.799805 69.4321 16.2159 69.4321 35.2327Z" fill="url(#paint0_linear_2602_106999)"/>
<path d="M69.4321 35.2327C69.4321 54.2494 54.016 69.6655 34.9993 69.6655C15.9825 69.6655 0.566406 54.2494 0.566406 35.2327C0.566406 16.2159 15.9825 0.799805 34.9993 0.799805C54.016 0.799805 69.4321 16.2159 69.4321 35.2327Z" fill="url(#paint1_linear_2602_106999)"/>
<path d="M69.4321 35.2327C69.4321 54.2494 54.016 69.6655 34.9993 69.6655C15.9825 69.6655 0.566406 54.2494 0.566406 35.2327C0.566406 16.2159 15.9825 0.799805 34.9993 0.799805C54.016 0.799805 69.4321 16.2159 69.4321 35.2327Z" fill="url(#paint2_linear_2602_106999)"/>
<path d="M69.4321 35.2327C69.4321 54.2494 54.016 69.6655 34.9993 69.6655C15.9825 69.6655 0.566406 54.2494 0.566406 35.2327C0.566406 16.2159 15.9825 0.799805 34.9993 0.799805C54.016 0.799805 69.4321 16.2159 69.4321 35.2327Z" fill="url(#paint3_linear_2602_106999)"/>
<path d="M29.2514 29.8773C30.2994 32.0601 31.7281 34.106 33.5374 35.9153C35.3468 37.7246 37.3926 39.1533 39.5754 40.2013C39.7632 40.2915 39.8571 40.3365 39.9758 40.3712C40.398 40.4942 40.9164 40.4058 41.2739 40.1498C41.3745 40.0778 41.4606 39.9917 41.6327 39.8196C42.1591 39.2932 42.4224 39.0299 42.687 38.8579C43.6852 38.2089 44.972 38.2089 45.9702 38.8579C46.2349 39.0299 46.4981 39.2932 47.0245 39.8196L47.318 40.113C48.1182 40.9133 48.5183 41.3134 48.7357 41.7431C49.168 42.5977 49.168 43.607 48.7357 44.4617C48.5183 44.8914 48.1182 45.2915 47.318 46.0917L47.0806 46.3291C46.2831 47.1266 45.8844 47.5254 45.3422 47.8299C44.7407 48.1678 43.8063 48.4108 43.1163 48.4088C42.4945 48.4069 42.0696 48.2863 41.2196 48.045C36.652 46.7486 32.3418 44.3025 28.746 40.7067C25.1502 37.1109 22.7041 32.8008 21.4077 28.2331C21.1664 27.3832 21.0458 26.9582 21.044 26.3364C21.0419 25.6464 21.2849 24.7121 21.6228 24.1105C21.9274 23.5684 22.3261 23.1696 23.1236 22.3721L23.361 22.1347C24.1612 21.3345 24.5613 20.9344 24.9911 20.717C25.8457 20.2848 26.855 20.2848 27.7096 20.717C28.1393 20.9344 28.5394 21.3345 29.3397 22.1347L29.6331 22.4282C30.1596 22.9546 30.4228 23.2178 30.5949 23.4825C31.2438 24.4807 31.2438 25.7675 30.5949 26.7657C30.4228 27.0304 30.1596 27.2936 29.6331 27.82C29.461 27.9921 29.3749 28.0782 29.3029 28.1788C29.0469 28.5363 28.9585 29.0547 29.0815 29.4769C29.1162 29.5957 29.1613 29.6895 29.2514 29.8773Z" stroke="white" stroke-width="2.91804" stroke-linecap="round" stroke-linejoin="round"/>
<defs>
<linearGradient id="paint0_linear_2602_106999" x1="0.566406" y1="0.799805" x2="69.4321" y2="69.6655" gradientUnits="userSpaceOnUse">
<stop stop-color="#FB64B6"/>
<stop offset="1" stop-color="#FF6900"/>
</linearGradient>
<linearGradient id="paint1_linear_2602_106999" x1="0.566406" y1="0.799805" x2="69.4321" y2="69.6655" gradientUnits="userSpaceOnUse">
<stop stop-color="#51A2FF"/>
<stop offset="1" stop-color="#00B8DB"/>
</linearGradient>
<linearGradient id="paint2_linear_2602_106999" x1="0.566406" y1="0.799805" x2="69.4321" y2="69.6655" gradientUnits="userSpaceOnUse">
<stop stop-color="#00D492"/>
<stop offset="1" stop-color="#00BBA7"/>
</linearGradient>
<linearGradient id="paint3_linear_2602_106999" x1="23.5896" y1="13.7561" x2="78.6239" y2="90.2671" gradientUnits="userSpaceOnUse">
<stop stop-color="#5489FF"/>
<stop offset="1" stop-color="#3A46D6"/>
</linearGradient>
</defs>
</svg>
