<svg width="70" height="70" viewBox="0 0 70 70" fill="none" xmlns="http://www.w3.org/2000/svg">
<path d="M69.0122 35.269C69.0122 54.2858 53.5961 69.7019 34.5793 69.7019C15.5626 69.7019 0.146484 54.2858 0.146484 35.269C0.146484 16.2523 15.5626 0.836182 34.5793 0.836182C53.5961 0.836182 69.0122 16.2523 69.0122 35.269Z" fill="url(#paint0_linear_2602_107014)"/>
<path d="M69.0122 35.269C69.0122 54.2858 53.5961 69.7019 34.5793 69.7019C15.5626 69.7019 0.146484 54.2858 0.146484 35.269C0.146484 16.2523 15.5626 0.836182 34.5793 0.836182C53.5961 0.836182 69.0122 16.2523 69.0122 35.269Z" fill="url(#paint1_linear_2602_107014)"/>
<path d="M38.7423 36.9811C39.1936 36.3794 40.0471 36.2574 40.6487 36.7087C41.2502 37.16 41.3724 38.0135 40.9212 38.6151L39.832 37.7978L40.9206 38.6156L40.92 38.6168L40.9183 38.6185C40.9172 38.62 40.9157 38.6218 40.9143 38.6236C40.9116 38.6272 40.9084 38.6318 40.9046 38.6367C40.8971 38.6466 40.8872 38.659 40.8756 38.6738C40.8521 38.7034 40.8203 38.7425 40.7804 38.79C40.7005 38.8852 40.5874 39.0144 40.4424 39.1656C40.1537 39.467 39.7315 39.8641 39.1857 40.261C38.0992 41.0512 36.4618 41.883 34.3847 41.8831C32.3075 41.883 30.6701 41.0512 29.5836 40.261C29.0378 39.8641 28.6157 39.467 28.3269 39.1656C28.182 39.0145 28.0687 38.8852 27.9889 38.79C27.9491 38.7426 27.9171 38.7034 27.8937 38.6738C27.8821 38.6591 27.8722 38.6465 27.8647 38.6367C27.8609 38.6319 27.8577 38.6272 27.855 38.6236C27.8537 38.6219 27.8526 38.6199 27.8515 38.6185L27.8498 38.6168L27.8493 38.6156C27.8518 38.6131 27.9052 38.5723 28.9378 37.7978L27.8487 38.6151C27.3975 38.0135 27.5191 37.16 28.1206 36.7087C28.7216 36.2579 29.5737 36.3793 30.0253 36.9794C30.0262 36.9805 30.028 36.9818 30.0292 36.9834C30.0374 36.9937 30.0531 37.0127 30.0754 37.0392C30.1205 37.093 30.1936 37.177 30.2931 37.2809C30.4937 37.4902 30.7955 37.7745 31.1856 38.0583C31.9714 38.6297 33.0579 39.1593 34.3847 39.1594C35.7115 39.1593 36.7985 38.6297 37.5842 38.0583C37.9744 37.7745 38.2756 37.4901 38.4762 37.2809C38.5759 37.1768 38.6493 37.093 38.6945 37.0392C38.7169 37.0125 38.7325 36.9936 38.7406 36.9834L38.7423 36.9811Z" fill="white"/>
<path d="M30.0253 36.9777V36.9794L30.0236 36.976L30.0253 36.9777Z" fill="white"/>
<path d="M30.3131 29.6273C31.0651 29.6273 31.6746 30.2368 31.6746 30.9888C31.6746 31.7409 31.0651 32.3504 30.3131 32.3504H30.2994C29.5473 32.3504 28.9378 31.7409 28.9378 30.9888C28.9378 30.2368 29.5473 29.6273 30.2994 29.6273H30.3131Z" fill="white"/>
<path d="M38.4836 29.6273C39.2356 29.6273 39.8451 30.2368 39.8451 30.9888C39.8451 31.7409 39.2356 32.3504 38.4836 32.3504H38.4699C37.7178 32.3504 37.1083 31.7409 37.1083 30.9888C37.1083 30.2368 37.7178 29.6273 38.4699 29.6273H38.4836Z" fill="white"/>
<path fill-rule="evenodd" clip-rule="evenodd" d="M34.3847 20.0952C42.6573 20.0953 49.364 26.8014 49.3641 35.0741C49.364 43.3468 42.6573 50.0535 34.3847 50.0536C26.112 50.0535 19.4059 43.3468 19.4058 35.0741C19.4059 26.8014 26.112 20.0953 34.3847 20.0952ZM34.3847 22.8183C27.6161 22.8184 22.129 28.3056 22.1289 35.0741C22.129 41.8426 27.6161 47.3298 34.3847 47.3299C41.1532 47.3298 46.6403 41.8426 46.6404 35.0741C46.6403 28.3056 41.1532 22.8184 34.3847 22.8183Z" fill="white"/>
<defs>
<linearGradient id="paint0_linear_2602_107014" x1="0.146484" y1="0.836182" x2="69.0122" y2="69.7019" gradientUnits="userSpaceOnUse">
<stop stop-color="#FB64B6"/>
<stop offset="1" stop-color="#FF6900"/>
</linearGradient>
<linearGradient id="paint1_linear_2602_107014" x1="0.146484" y1="0.836182" x2="69.0122" y2="69.7019" gradientUnits="userSpaceOnUse">
<stop stop-color="#51A2FF"/>
<stop offset="1" stop-color="#00B8DB"/>
</linearGradient>
</defs>
</svg>
