<svg width="69" height="70" viewBox="0 0 69 70" fill="none" xmlns="http://www.w3.org/2000/svg">
<path d="M68.9236 35.269C68.9236 54.2858 53.5075 69.7019 34.4907 69.7019C15.474 69.7019 0.0578613 54.2858 0.0578613 35.269C0.0578613 16.2523 15.474 0.836182 34.4907 0.836182C53.5075 0.836182 68.9236 16.2523 68.9236 35.269Z" fill="url(#paint0_linear_2602_107019)"/>
<path d="M38.6654 55.3687C39.31 55.3687 39.8326 55.8913 39.8326 56.5359C39.8326 57.1805 39.31 57.7031 38.6654 57.7031H29.6297C28.9851 57.7031 28.4625 57.1805 28.4625 56.5359C28.4625 55.8913 28.9851 55.3687 29.6297 55.3687H38.6654Z" fill="white"/>
<path d="M34.5704 28.423C38.2436 28.423 41.2288 31.3999 41.2289 35.0815C41.2289 35.7261 40.7063 36.2487 40.0617 36.2487C39.4173 36.2484 38.8945 35.726 38.8945 35.0815C38.8944 32.691 36.9562 30.7574 34.5704 30.7574C33.9259 30.7573 33.4032 30.2348 33.4032 29.5902C33.4032 28.9457 33.9259 28.4231 34.5704 28.423Z" fill="white"/>
<path fill-rule="evenodd" clip-rule="evenodd" d="M34.151 22.9015C41.1082 22.9016 46.751 28.5443 46.751 35.5015C46.7509 40.0055 44.3837 43.9525 40.8368 46.1774V48.24C40.8367 50.6231 38.9101 52.5504 36.527 52.5504H31.7288C29.355 52.5502 27.4185 50.6257 27.4184 48.24V46.1512C23.8994 43.9176 21.5511 39.9857 21.551 35.5015C21.551 28.5444 27.1938 22.9017 34.151 22.9015ZM34.151 26.2014C29.0165 26.2016 24.8508 30.367 24.8508 35.5015C24.851 39.0738 26.8711 42.182 29.8372 43.7438C30.3792 44.0292 30.7188 44.5915 30.7188 45.204V48.24C30.719 48.7977 31.1723 49.2498 31.7288 49.2499H36.527C37.0875 49.2499 37.5368 48.8005 37.5369 48.24V45.2239C37.5369 44.6079 37.8804 44.043 38.4271 43.7592C41.4136 42.2098 43.451 39.0916 43.4511 35.5015C43.4511 30.3669 39.2855 26.2014 34.151 26.2014Z" fill="white"/>
<path d="M49.5339 20.3129C49.8699 19.9652 50.4241 19.9553 50.7718 20.2912C51.1194 20.6272 51.1287 21.1814 50.7929 21.5291L48.2818 24.128C47.9459 24.4756 47.3916 24.4854 47.0439 24.1497C46.6963 23.8138 46.6865 23.2595 47.0222 22.9118L49.5339 20.3129Z" fill="white"/>
<path d="M17.4389 20.2975C17.7725 19.9476 18.3268 19.9344 18.6768 20.2679L21.1184 22.5949C21.468 22.9285 21.4814 23.4823 21.148 23.8322C20.8145 24.182 20.2601 24.1952 19.9101 23.8618L17.4685 21.5354C17.1187 21.2019 17.1055 20.6475 17.4389 20.2975Z" fill="white"/>
<path d="M34.229 12.7231C34.7125 12.7231 35.1044 13.1151 35.1044 13.5986V17.1002C35.1044 17.5837 34.7125 17.9756 34.229 17.9756C33.7456 17.9756 33.3536 17.5837 33.3536 17.1002V13.5986C33.3536 13.1151 33.7456 12.7231 34.229 12.7231Z" fill="white"/>
<defs>
<linearGradient id="paint0_linear_2602_107019" x1="0.0578613" y1="0.836182" x2="47.2425" y2="58.0883" gradientUnits="userSpaceOnUse">
<stop stop-color="#FF216E"/>
<stop offset="1" stop-color="#DF4434"/>
</linearGradient>
</defs>
</svg>
