<svg width="138" height="138" viewBox="0 0 138 138" fill="none" xmlns="http://www.w3.org/2000/svg">
<path d="M128 69C128 101.585 101.585 128 69 128C36.4152 128 10 101.585 10 69C10 36.4152 36.4152 10 69 10C101.585 10 128 36.4152 128 69Z" fill="url(#paint0_linear_2602_143232)"/>
<path d="M128 69C128 101.585 101.585 128 69 128C36.4152 128 10 101.585 10 69C10 36.4152 36.4152 10 69 10C101.585 10 128 36.4152 128 69Z" fill="url(#paint1_linear_2602_143232)"/>
<path d="M128 69C128 101.585 101.585 128 69 128C36.4152 128 10 101.585 10 69C10 36.4152 36.4152 10 69 10C101.585 10 128 36.4152 128 69Z" fill="url(#paint2_linear_2602_143232)"/>
<path fill-rule="evenodd" clip-rule="evenodd" d="M66.333 44.334C67.6216 44.3341 68.666 45.3784 68.666 46.667L69.0127 46.6758C70.7429 46.7615 72.3855 47.486 73.6162 48.7168C74.9289 50.0295 75.666 51.8105 75.666 53.667V63C75.666 67.3318 73.9458 71.4867 70.8828 74.5498C68.4232 77.0094 65.2591 78.6013 61.8652 79.1338C62.2933 81.4346 63.4049 83.5719 65.083 85.25C67.2709 87.4378 70.2389 88.667 73.333 88.667C76.4271 88.6669 79.3951 87.4379 81.583 85.25C83.7709 83.0621 85 80.0941 85 77V71.9336C82.2815 70.9725 80.3333 68.3815 80.333 65.334C80.333 61.468 83.467 58.334 87.333 58.334C91.1989 58.3342 94.333 61.4681 94.333 65.334C94.3328 68.3814 92.3844 70.9725 89.666 71.9336V77C89.666 81.3318 87.9458 85.4867 84.8828 88.5498C81.8198 91.6128 77.6648 93.3329 73.333 93.333C69.0012 93.333 64.8463 91.6128 61.7832 88.5498C59.2397 86.0063 57.623 82.7099 57.1475 79.1846C53.6225 78.7089 50.3265 77.093 47.7832 74.5498C44.7201 71.4867 43 67.3319 43 63V53.667C43 51.8105 43.737 50.0296 45.0498 48.7168C46.2804 47.4862 47.9223 46.7616 49.6523 46.6758L50 46.667C50 45.3783 51.0443 44.334 52.333 44.334C53.6216 44.3341 54.666 45.3784 54.666 46.667V51.334C54.6656 52.6222 53.6213 53.6669 52.333 53.667C51.0446 53.667 50.0004 52.6223 50 51.334L49.7695 51.3447C49.2352 51.3977 48.7326 51.6337 48.3496 52.0166C47.912 52.4542 47.666 53.0482 47.666 53.667V63C47.666 66.0942 48.8951 69.0621 51.083 71.25C53.2709 73.4378 56.2389 74.667 59.333 74.667C62.4271 74.6669 65.3951 73.4379 67.583 71.25C69.7709 69.0621 71 66.0941 71 63V53.667C71 53.0482 70.7539 52.4542 70.3164 52.0166C69.9335 51.6337 69.4307 51.3978 68.8965 51.3447L68.666 51.333C68.6656 52.6213 67.6213 53.6669 66.333 53.667C65.0446 53.667 64.0004 52.6223 64 51.334V46.667C64 45.3783 65.0443 44.334 66.333 44.334ZM87.333 63C86.0443 63 84.999 64.0453 84.999 65.334C84.9993 66.6224 86.0445 67.667 87.333 67.667C88.6213 67.6668 89.6657 66.6223 89.666 65.334C89.666 64.0454 88.6215 63.0002 87.333 63Z" fill="white"/>
<path d="M125 69C125 38.0721 99.9279 13 69 13C38.0721 13 13 38.0721 13 69C13 99.9279 38.0721 125 69 125C99.9279 125 125 99.9279 125 69ZM135 69C135 105.451 105.451 135 69 135C32.5492 135 3 105.451 3 69C3 32.5492 32.5492 3 69 3C105.451 3 135 32.5492 135 69Z" fill="white"/>
<defs>
<linearGradient id="paint0_linear_2602_143232" x1="10" y1="10" x2="128" y2="128" gradientUnits="userSpaceOnUse">
<stop stop-color="#FB64B6"/>
<stop offset="1" stop-color="#FF1CE3"/>
</linearGradient>
<linearGradient id="paint1_linear_2602_143232" x1="10" y1="10" x2="128" y2="128" gradientUnits="userSpaceOnUse">
<stop stop-color="#51A2FF"/>
<stop offset="1" stop-color="#00B8DB"/>
</linearGradient>
<linearGradient id="paint2_linear_2602_143232" x1="10" y1="10" x2="128" y2="128" gradientUnits="userSpaceOnUse">
<stop stop-color="#00D492"/>
<stop offset="1" stop-color="#00BBA7"/>
</linearGradient>
</defs>
</svg>
