<svg width="100" height="97" viewBox="0 0 100 97" fill="none" xmlns="http://www.w3.org/2000/svg">
<path opacity="0.2" d="M100 43.3437C100 67.0477 73.2196 96.1635 49.5156 96.1635C25.8117 96.1635 -7.90017e-05 72.584 -7.90017e-05 48.88C-7.90017e-05 25.176 25.8117 0.423828 49.5156 0.423828C73.2196 0.423828 100 19.6397 100 43.3437Z" fill="#155DFC"/>
<path fill-rule="evenodd" clip-rule="evenodd" d="M36.6367 65.3318C36.6367 63.4557 38.3543 62.0837 40.1621 62.4295C47.8188 63.8946 52.7056 63.9115 60.3564 62.4344C62.1654 62.0851 63.8887 63.4571 63.8887 65.3367V65.9461H64.9932C66.6203 65.9461 67.9395 67.2652 67.9395 68.8924V71.1434C67.9393 72.7703 66.6202 74.0887 64.9932 74.0887H63.8887V75.3826C63.8887 76.715 62.9888 77.8949 61.6816 78.2273C57.4776 79.2969 53.986 79.8488 50.4131 79.8475C46.8429 79.8463 43.2595 79.2928 38.873 78.2225C37.5527 77.9003 36.6367 76.715 36.6367 75.3699V74.0887H35.5322C33.9052 74.0887 32.5861 72.7703 32.5859 71.1434V68.8924C32.5859 67.2652 33.9051 65.9461 35.5322 65.9461H36.6367V65.3318ZM39.5967 65.323C39.5941 65.3238 39.5899 65.3255 39.5859 65.3289L39.583 65.3318V65.9461C39.583 67.5732 38.2639 68.8924 36.6367 68.8924H35.5322V71.1434H36.6367C38.2637 71.1434 39.5828 72.4619 39.583 74.0887V75.3641C43.8336 76.4005 47.1648 76.9011 50.4141 76.9021C53.6596 76.9033 56.8916 76.4056 60.9424 75.3758V74.0887C60.9426 72.4619 62.2617 71.1434 63.8887 71.1434H64.9932V68.8924H63.8887C62.2615 68.8924 60.9424 67.5732 60.9424 65.9461V65.3367C60.9416 65.336 60.9408 65.3338 60.9395 65.3328C60.935 65.3293 60.9304 65.3277 60.9277 65.3269L60.9238 65.326C60.9226 65.326 60.9198 65.326 60.915 65.3269C52.8903 66.8763 47.6258 66.8572 39.6084 65.323C39.6035 65.3222 39.6006 65.3221 39.5996 65.3221L39.5967 65.323ZM42.8975 67.9402C43.711 67.9403 44.3701 68.6003 44.3701 69.4139V72.3601C44.3699 73.1735 43.7109 73.8328 42.8975 73.8328C42.084 73.8328 41.425 73.1735 41.4248 72.3601V69.4139C41.4248 68.6003 42.0839 67.9402 42.8975 67.9402ZM36.6367 46.1824C36.6367 44.3063 38.3543 42.9342 40.1621 43.2801C47.8188 44.7452 52.7057 44.7621 60.3564 43.285C62.1654 42.9357 63.8887 44.3077 63.8887 46.1873V46.7967H64.9932C66.6203 46.7967 67.9395 48.1158 67.9395 49.743V51.9939C67.9392 53.6209 66.6201 54.9392 64.9932 54.9392H63.8887V56.2332C63.8887 57.5656 62.9888 58.7455 61.6816 59.0779C57.4776 60.1474 53.986 60.6994 50.4131 60.698C46.8429 60.6969 43.2595 60.1433 38.873 59.073C37.5528 58.7509 36.6368 57.5655 36.6367 56.2205V54.9392H35.5322C33.9052 54.9392 32.5862 53.6209 32.5859 51.9939V49.743C32.5859 48.1158 33.9051 46.7967 35.5322 46.7967H36.6367V46.1824ZM39.5859 46.1795C39.5847 46.1805 39.5837 46.1817 39.583 46.1824V46.7967C39.583 48.4238 38.2639 49.743 36.6367 49.743H35.5322V51.9939H36.6367C38.2637 51.9939 39.5828 53.3124 39.583 54.9392V56.2137C43.8336 57.2501 47.1648 57.7507 50.4141 57.7518C53.6596 57.7529 56.8916 57.2562 60.9424 56.2264V54.9392C60.9426 53.3124 62.2616 51.9939 63.8887 51.9939H64.9932V49.743H63.8887C62.2615 49.743 60.9424 48.4238 60.9424 46.7967V46.1873C60.9417 46.1866 60.9408 46.1844 60.9395 46.1834C60.935 46.1799 60.9304 46.1783 60.9277 46.1775L60.9238 46.1766C60.9226 46.1766 60.9198 46.1766 60.915 46.1775C52.8903 47.7269 47.6258 47.7078 39.6084 46.1736C39.6035 46.1728 39.6006 46.1726 39.5996 46.1726H39.5967C39.5942 46.1734 39.59 46.176 39.5859 46.1795ZM42.8975 48.7908C43.711 48.7908 44.3701 49.4509 44.3701 50.2644V53.2098C44.3701 54.0233 43.711 54.6834 42.8975 54.6834C42.0839 54.6834 41.4248 54.0233 41.4248 53.2098V50.2644C41.4248 49.4509 42.0839 48.7908 42.8975 48.7908ZM36.6367 27.033C36.6367 25.1569 38.3543 23.7849 40.1621 24.1307C47.8188 25.5957 52.7057 25.6127 60.3564 24.1355C62.1652 23.7863 63.8884 25.1575 63.8887 27.0369V27.6473H64.9932C66.6203 27.6473 67.9395 28.9665 67.9395 30.5935V32.8435C67.9395 34.4707 66.6203 35.7898 64.9932 35.7898H63.8887V37.0838C63.8887 38.4162 62.9888 39.596 61.6816 39.9285C57.4776 40.998 53.986 41.5499 50.4131 41.5486C46.8429 41.5474 43.2595 40.9939 38.873 39.9236C37.5528 39.6015 36.6368 38.4161 36.6367 37.0711V35.7898H35.5322C33.9051 35.7898 32.5859 34.4707 32.5859 32.8435V30.5935C32.5859 28.9665 33.9051 27.6473 35.5322 27.6473H36.6367V27.033ZM39.5859 27.0301C39.5848 27.0311 39.5837 27.0323 39.583 27.033V27.6473C39.5829 29.2743 38.2638 30.5935 36.6367 30.5935H35.5322V32.8435H36.6367C38.2638 32.8435 39.5829 34.163 39.583 35.7898V37.0642C43.8336 38.1007 47.1648 38.6013 50.4141 38.6023C53.6596 38.6035 56.8916 38.1068 60.9424 37.0769V35.7898C60.9425 34.163 62.2616 32.8435 63.8887 32.8435H64.9932V30.5935H63.8887C62.2616 30.5935 60.9424 29.2743 60.9424 27.6473V27.0369C60.9417 27.0361 60.9406 27.035 60.9395 27.034C60.9351 27.0304 60.9304 27.0289 60.9277 27.0281L60.9238 27.0271C60.9226 27.0271 60.9198 27.0272 60.915 27.0281C52.8903 28.5775 47.6258 28.5583 39.6084 27.0242C39.6035 27.0233 39.6006 27.0232 39.5996 27.0232H39.5967C39.5942 27.0239 39.59 27.0266 39.5859 27.0301ZM42.8975 29.6404C43.7109 29.6404 44.37 30.2997 44.3701 31.1131V34.0594C44.3701 34.8729 43.711 35.533 42.8975 35.533C42.0839 35.533 41.4248 34.8729 41.4248 34.0594V31.1131C41.425 30.2997 42.084 29.6404 42.8975 29.6404Z" fill="#2E3589"/>
</svg>
