<svg width="100" height="97" viewBox="0 0 100 97" fill="none" xmlns="http://www.w3.org/2000/svg">
<path opacity="0.2" d="M100 43.3437C100 67.0477 73.2196 96.1635 49.5156 96.1635C25.8117 96.1635 -7.90017e-05 72.584 -7.90017e-05 48.88C-7.90017e-05 25.176 25.8117 0.423828 49.5156 0.423828C73.2196 0.423828 100 19.6397 100 43.3437Z" fill="#DC8171"/>
<path fill-rule="evenodd" clip-rule="evenodd" d="M54.7334 31.4209C55.5615 31.4212 56.2333 32.0927 56.2334 32.9209C56.2334 33.7491 55.5616 34.4206 54.7334 34.4209H45.6934C41.3901 34.4209 38.3129 34.4239 35.9746 34.7383C33.6798 35.0469 32.3218 35.6304 31.3232 36.6289C30.3247 37.6274 29.7412 38.9855 29.4326 41.2803C29.2112 42.9274 29.1443 44.9414 29.124 47.4922L32.2227 44.499C34.6761 42.128 38.6335 42.1278 41.0869 44.499C43.5688 46.8981 43.569 50.8101 41.0869 53.209C39.825 54.4287 39.8249 56.3838 41.0869 57.6035C42.3701 58.8434 44.4652 58.8505 45.7578 57.625L49.1875 53.9199C49.6679 53.401 50.4295 53.2988 51.0205 53.6299C50.9903 53.5111 50.9727 53.387 50.9727 53.2588V49.4814C50.9728 47.8853 51.6068 46.3543 52.7354 45.2256H52.7363L65.1104 32.8525V32.8535C67.0199 30.9441 70.1158 30.9441 72.0254 32.8535L72.8809 33.709C74.7904 35.6185 74.7903 38.7145 72.8809 40.624L60.5068 52.9961C59.3779 54.125 57.8465 54.7588 56.25 54.7588H52.4727C52.2065 54.7588 51.9569 54.6889 51.7402 54.5674C51.8613 55.0439 51.7475 55.5703 51.3887 55.958L47.9248 59.7012C47.906 59.7215 47.8861 59.7415 47.8662 59.7607C45.4128 62.1319 41.4554 62.1318 39.002 59.7607C36.5198 57.3618 36.5199 53.4508 39.002 51.0518C40.2639 49.8321 40.2637 47.876 39.002 46.6563C37.7113 45.4089 35.5983 45.409 34.3076 46.6563L29.1162 51.6719C29.1173 55.626 29.1349 58.5032 29.4326 60.7178C29.7412 63.0129 30.3246 64.3715 31.3232 65.3701C32.3218 66.3686 33.6798 66.9522 35.9746 67.2607C38.3129 67.5751 41.3901 67.5781 45.6934 67.5781H54.7334C57.9379 67.5781 60.2286 67.5764 62.0068 67.3955C63.76 67.2171 64.8488 66.8772 65.7012 66.3076C66.5243 65.7576 67.2312 65.0506 67.7812 64.2275C68.3507 63.3752 68.6908 62.2864 68.8691 60.5332C69.05 58.7549 69.0518 56.4636 69.0518 53.2588C69.0521 52.4306 69.7235 51.7588 70.5518 51.7588C71.3799 51.7589 72.0515 52.4307 72.0518 53.2588C72.0518 56.4012 72.0534 58.8715 71.8535 60.8369C71.651 62.8272 71.229 64.4661 70.2754 65.8936C69.5066 67.0442 68.5188 68.0329 67.3682 68.8018C65.9407 69.7556 64.301 70.1774 62.3105 70.3799C60.3453 70.5798 57.8756 70.5781 54.7334 70.5781H45.6934C41.4749 70.5781 38.1598 70.5809 35.5752 70.2334C32.9475 69.8801 30.851 69.14 29.2021 67.4912C27.5533 65.8424 26.8133 63.7458 26.46 61.1182C26.1125 58.5335 26.1152 55.2177 26.1152 50.999C26.1152 46.7805 26.1125 43.4655 26.46 40.8809C26.8133 38.2532 27.5533 36.1567 29.2021 34.5078C30.851 32.859 32.9475 32.1189 35.5752 31.7656C38.1598 31.4182 41.4749 31.4209 45.6934 31.4209H54.7334ZM69.9043 34.9746C69.2125 34.2828 68.1172 34.2394 67.375 34.8447L67.2314 34.9746L54.8574 47.3467C54.2912 47.9129 53.9728 48.6808 53.9727 49.4814V51.7588H56.25C57.0509 51.7588 57.8195 51.4413 58.3857 50.875L70.7598 38.5029C71.4977 37.765 71.4977 36.568 70.7598 35.8301L69.9043 34.9746Z" fill="#2E3589"/>
</svg>
