<svg width="100" height="97" viewBox="0 0 100 97" fill="none" xmlns="http://www.w3.org/2000/svg">
<path opacity="0.2" d="M100 43.3437C100 67.0477 73.2196 96.1635 49.5156 96.1635C25.8117 96.1635 -7.90017e-05 72.584 -7.90017e-05 48.88C-7.90017e-05 25.176 25.8117 0.423828 49.5156 0.423828C73.2196 0.423828 100 19.6397 100 43.3437Z" fill="#00B8DB"/>
<path d="M40.2475 19.9127C39.6067 19.9213 39.2221 19.9811 39.2221 19.9811L36.9662 20.1862L37.2396 22.4421C37.2396 22.4421 37.778 27.4411 41.3413 31.1241C34.112 32.2435 28.4893 38.2081 28.4893 45.4802C28.4893 53.3247 31.9843 59.5457 36.0775 63.7329C38.1198 65.8265 40.2903 67.4073 42.3668 68.5182C44.4433 69.6291 46.3489 70.2956 48.1776 70.2956C49.3739 70.2956 50.5361 70.0905 51.5957 69.7487C52.2366 69.5436 52.8689 69.5436 53.5098 69.7487C54.5694 70.0905 55.7316 70.2956 56.9279 70.2956C58.9104 70.2956 60.816 69.4582 62.8754 68.1764C64.9348 66.8946 67.0797 65.1172 69.0964 62.9125C73.1297 58.5117 76.6162 52.4018 76.6162 45.4802C76.6162 37.4049 69.6689 30.919 61.3031 30.919C59.0557 30.919 56.9792 31.4659 55.0821 32.3546C55.0736 32.2948 55.0309 32.1923 55.0138 32.0812C56.1332 26.2448 60.2093 24.0828 60.2093 24.0828L58.0217 20.2545C58.0217 20.2545 54.9369 22.1089 52.6895 26.0653C51.9802 24.9801 51.0402 23.9119 49.8866 22.989C46.4172 20.2204 42.1617 19.8956 40.2475 19.9127ZM42.3668 24.5613C43.8793 24.7921 45.7507 25.2877 47.1521 26.4071C48.5792 27.5436 49.5363 29.21 50.0917 30.6456C48.5706 30.4234 46.665 29.868 45.238 28.7314C43.828 27.6035 42.9222 25.9884 42.3668 24.5613ZM43.8024 35.2942C46.648 35.2942 49.1774 36.3282 51.1171 37.9603L52.5527 39.1225L53.9883 37.9603C55.9281 36.3282 58.4575 35.2942 61.3031 35.2942C67.4386 35.2942 72.241 39.9172 72.241 45.4802C72.241 50.9064 69.3955 56.1447 65.8834 59.9729C64.1316 61.8871 62.226 63.3825 60.5511 64.4165C58.8762 65.4505 57.3552 65.9204 56.9279 65.9204C56.2101 65.9204 55.535 65.7923 54.877 65.5786C53.3731 65.0916 51.7324 65.0916 50.2284 65.5786C49.5704 65.7923 48.8954 65.9204 48.1776 65.9204C47.5879 65.9204 46.0754 65.5786 44.4176 64.6899C42.7599 63.8012 40.8799 62.4254 39.1538 60.6566C35.7015 57.1188 32.8644 52.0429 32.8644 45.4802C32.8644 39.9172 37.6669 35.2942 43.8024 35.2942Z" fill="#2E3589" stroke="#B6E0F6" stroke-width="2"/>
</svg>
