<svg width="138" height="138" viewBox="0 0 138 138" fill="none" xmlns="http://www.w3.org/2000/svg">
<path d="M128 69C128 101.585 101.585 128 69 128C36.4152 128 10 101.585 10 69C10 36.4152 36.4152 10 69 10C101.585 10 128 36.4152 128 69Z" fill="url(#paint0_linear_2066_24476)"/>
<path d="M128 69C128 101.585 101.585 128 69 128C36.4152 128 10 101.585 10 69C10 36.4152 36.4152 10 69 10C101.585 10 128 36.4152 128 69Z" fill="url(#paint1_linear_2066_24476)"/>
<path d="M128 69C128 101.585 101.585 128 69 128C36.4152 128 10 101.585 10 69C10 36.4152 36.4152 10 69 10C101.585 10 128 36.4152 128 69Z" fill="url(#paint2_linear_2066_24476)"/>
<path d="M78.285 48.4004C81.7605 50.1276 84.1489 53.714 84.1489 57.8584C84.1489 62.0027 81.7605 65.5891 78.285 67.3163M82.9761 79.5935C86.5214 81.1977 89.7139 83.8122 92.3585 87.1782M45.4468 87.1782C50.0124 81.3672 56.2111 77.7958 63.0387 77.7958C69.8662 77.7958 76.0649 81.3672 80.6306 87.1782M73.5938 57.8584C73.5938 63.6878 68.8681 68.4135 63.0387 68.4135C57.2092 68.4135 52.4835 63.6878 52.4835 57.8584C52.4835 52.0289 57.2092 47.3032 63.0387 47.3032C68.8681 47.3032 73.5938 52.0289 73.5938 57.8584Z" stroke="white" stroke-width="5" stroke-linecap="round" stroke-linejoin="round"/>
<path d="M125 69C125 38.0721 99.9279 13 69 13C38.0721 13 13 38.0721 13 69C13 99.9279 38.0721 125 69 125C99.9279 125 125 99.9279 125 69ZM135 69C135 105.451 105.451 135 69 135C32.5492 135 3 105.451 3 69C3 32.5492 32.5492 3 69 3C105.451 3 135 32.5492 135 69Z" fill="white"/>
<defs>
<linearGradient id="paint0_linear_2066_24476" x1="10" y1="10" x2="128" y2="128" gradientUnits="userSpaceOnUse">
<stop stop-color="#FB64B6"/>
<stop offset="1" stop-color="#FF6900"/>
</linearGradient>
<linearGradient id="paint1_linear_2066_24476" x1="10" y1="10" x2="128" y2="128" gradientUnits="userSpaceOnUse">
<stop stop-color="#51A2FF"/>
<stop offset="1" stop-color="#00B8DB"/>
</linearGradient>
<linearGradient id="paint2_linear_2066_24476" x1="10" y1="10" x2="128" y2="128" gradientUnits="userSpaceOnUse">
<stop stop-color="#1A7CEB"/>
<stop offset="1" stop-color="#0795B0"/>
</linearGradient>
</defs>
</svg>
