<svg width="20" height="20" viewBox="0 0 20 20" fill="none" xmlns="http://www.w3.org/2000/svg">
<path fill-rule="evenodd" clip-rule="evenodd" d="M9.99888 4.31813C11.9624 4.31813 13.5545 5.86418 13.5547 7.77199C13.5547 9.67997 11.9626 11.2269 9.99888 11.2269C8.03538 11.2267 6.4442 9.67985 6.4442 7.77199C6.4444 5.8643 8.0355 4.31833 9.99888 4.31813ZM9.99888 6.04452C9.01734 6.04471 8.22118 6.81829 8.22098 7.77199C8.22098 8.72586 9.01722 9.49926 9.99888 9.49946C10.9807 9.49946 11.7768 8.72598 11.7768 7.77199C11.7766 6.81817 10.9806 6.04452 9.99888 6.04452Z" fill="#155DFC"/>
<path fill-rule="evenodd" clip-rule="evenodd" d="M10 0C12.1215 0.000127603 14.1561 0.818601 15.6563 2.27618C17.1565 3.73392 18 5.71153 18 7.77307C17.9998 10.2202 16.6191 12.6116 15.1496 14.4878C13.6592 16.3903 11.964 17.9049 11.115 18.6172C11.0999 18.6298 11.084 18.6414 11.0681 18.653C10.7602 18.878 10.3852 18.9999 10 19C9.61458 19 9.23885 18.8781 8.9308 18.653C8.91494 18.6414 8.89895 18.6298 8.88393 18.6172C8.03486 17.9049 6.33963 16.3903 4.84933 14.4878C3.37975 12.6116 2.00018 10.2202 2 7.77307C2 5.71153 2.84234 3.73392 4.34263 2.27618C5.84292 0.818449 7.87827 0 10 0ZM10 1.72639C8.34976 1.72639 6.76622 2.36344 5.59933 3.49723C4.43244 4.63103 3.77679 6.16965 3.77679 7.77307C3.77697 9.63784 4.85928 11.6473 6.26451 13.4413C7.62256 15.175 9.18063 16.5793 9.99888 17.2693C10.817 16.5795 12.3759 15.1755 13.7344 13.4413C15.1396 11.6473 16.2219 9.63787 16.2221 7.77307C16.2221 6.16965 15.5664 4.63102 14.3996 3.49723C13.2328 2.36359 11.65 1.72651 10 1.72639Z" fill="#155DFC"/>
</svg>
