<svg width="20" height="20" viewBox="0 0 20 20" fill="none" xmlns="http://www.w3.org/2000/svg">
<path fill-rule="evenodd" clip-rule="evenodd" d="M15.7773 2.5C17.066 2.5 18.1104 3.54434 18.1104 4.83301V14.166C18.1102 15.4546 17.0659 16.5 15.7773 16.5H3.33301C2.04442 16.5 1.00013 15.4546 1 14.166V4.83301C1 3.54434 2.04434 2.5 3.33301 2.5H15.7773ZM10.7734 10.7002L10.7695 10.7031C10.4056 10.9311 9.98411 11.0518 9.55469 11.0518C9.12542 11.0517 8.70459 10.931 8.34082 10.7031L8.33691 10.7002L2.55469 7.02539V14.166C2.55482 14.5955 2.90353 14.9443 3.33301 14.9443H15.7773C16.2068 14.9443 16.5546 14.5955 16.5547 14.166V7.02539L10.7734 10.7002ZM3.33301 4.05469C2.90345 4.05469 2.55469 4.40345 2.55469 4.83301V5.18262L9.16602 9.38477C9.28222 9.45754 9.41758 9.49601 9.55469 9.49609C9.65758 9.49609 9.75924 9.47418 9.85254 9.43262L9.94336 9.38477L16.5547 5.18359V4.83301C16.5547 4.40345 16.2069 4.05469 15.7773 4.05469H3.33301Z" fill="#155DFC"/>
</svg>
