<svg width="163" height="76" fill="none" xmlns="http://www.w3.org/2000/svg"><path d="M23.465 12.218c3 1.655 4.555-3.278 3.153-5.56-.539-.875-1.422-1.627-2.533-1.447-2.68.433-3.024 5.681-.62 7.007zm8.436 2.476c2.858-.494 2.582-6.904-.721-6.457-2.9.391-2.506 7.017.721 6.457zm6.984 3.312c2.365-2.117.37-6.941-2.166-4.603-2.4 2.212-.414 6.913 2.166 4.603zm-5.005.826c-3.515-2.484-13.558-5.596-17.811-5.35-7.2.42-13.72 6.663-10.937 14.17 1.792 4.833 5.561 5.197 8.884 8.206 5.24 4.746 6.09 10.847 4.453 17.474-1.069 4.33-2.014 7.546-.769 12.095 2.518 9.192 13.666 9.749 18.124 1.867 4.746-8.389 3.768-23.167 3.45-32.572-.223-6.597.659-11.613-5.395-15.889l.001-.001zm-17.406-7.474c4.093-.33 3.127-9.064-1.026-8.304-3.38.618-2.859 8.62 1.026 8.304zM8.593 12.64c1.88-1.984 1.941-5.622 1.039-8.058C6.929-2.712-.628-.868.042 7.077c.323 3.847 4.854 9.458 8.55 5.563z" fill="#00984F"/><path d="M111.787.04l-2.844 10.487V.04h-6.387v26.992h6.387v-11.57l2.586 11.57h6.6l-4.013-14.805L117.78.04h-5.993zm-20.802 0v26.992h10.272V21.63h-3.883V.04h-6.388zM80.913 17.396c.166-2.389.574-6.169 1.226-11.338.325 4.502.65 8.28.973 11.338h-2.2zM77.263.04l-3.258 26.992h6.604l.384-4.852h2.285l.343 4.852h6.527L86.496.04h-9.232zm-8.72 0a254.316 254.316 0 00-1.784 19.173l-.705-10.27C65.677 3.797 65.445.83 65.358.04h-6.633c-.941 7.637-1.53 13.81-1.767 18.523l-.653-9.105L55.631.04h-6.205l2.859 26.992h7.929c.932-7.169 1.526-11.887 1.781-14.155.559 5.29 1.203 10.007 1.933 14.155h7.975L74.748.04h-6.206zM149.673 57.757h11.075v-5.402h-4.688v-5.936h3.99v-5.135h-3.99v-5.118h4.263v-5.403h-10.65v26.994zm-2.751-19.89c0-2.145-.19-3.665-.568-4.56-.379-.896-1.154-1.637-2.322-2.226-1.168-.59-2.582-.883-4.24-.883-1.517 0-2.812.27-3.884.809-1.071.539-1.848 1.287-2.329 2.241-.481.957-.72 2.468-.72 4.536 0 1.434.169 2.613.508 3.535.338.923.766 1.644 1.283 2.167.515.523 1.567 1.361 3.156 2.518 1.588 1.144 2.584 1.96 2.988 2.45.395.49.592 1.528.592 3.118 0 .723-.104 1.268-.31 1.635-.208.366-.524.55-.949.55-.424 0-.72-.144-.887-.433-.167-.29-.251-.94-.251-1.95v-3.285h-5.932v1.767c0 2.023.187 3.585.561 4.685.374 1.1 1.165 2.007 2.374 2.719 1.208.71 2.667 1.067 4.376 1.067 1.557 0 2.923-.309 4.096-.925 1.173-.618 1.964-1.38 2.374-2.292.409-.912.614-2.328.614-4.252 0-2.645-.369-4.562-1.107-5.752-.738-1.19-2.53-2.711-5.373-4.565-.991-.645-1.593-1.194-1.805-1.651-.221-.456-.333-1.134-.333-2.035 0-.701.098-1.224.296-1.568.197-.345.488-.517.873-.517.353 0 .607.128.758.383.152.255.228.85.228 1.785v2h5.932v-1.067l.001-.004zm-22.52 12.237c0 1.59-.061 2.595-.183 3.018-.122.423-.399.634-.834.634-.435 0-.696-.184-.812-.55-.116-.367-.175-1.334-.175-2.902V37.701c0-1.39.089-2.226.265-2.51a.85.85 0 01.766-.424c.395 0 .655.175.781.526.126.35.19 1.153.19 2.41v12.402l.002-.001zm6.388-8.153c0-2.78-.061-4.724-.183-5.836a6.744 6.744 0 00-1.139-3.085 5.917 5.917 0 00-2.526-2.126c-1.047-.472-2.228-.708-3.542-.708-1.385 0-2.6.25-3.642.75a6.013 6.013 0 00-2.481 2.151 6.844 6.844 0 00-1.092 3.092c-.116 1.129-.174 3.048-.174 5.76v4.619c0 2.779.061 4.724.183 5.836.121 1.111.5 2.139 1.137 3.084a5.92 5.92 0 002.527 2.126c1.046.472 2.226.708 3.542.708 1.385 0 2.599-.249 3.641-.75a6.013 6.013 0 002.481-2.15 6.857 6.857 0 001.093-3.093c.115-1.128.175-3.047.175-5.76v-4.618zm-22.384-6.152c.263.278.395.879.395 1.8v2.219c0 1-.115 1.658-.342 1.976-.227.316-.635.475-1.222.475a8.47 8.47 0 01-.47-.017v-6.869c.83 0 1.375.14 1.639.417V35.8zm-8.026 21.958h6.387v-10.87h1.715c1.395 0 2.526-.21 3.39-.634.866-.422 1.46-1.027 1.783-1.817.324-.788.486-2.044.486-3.768v-2.35c0-1.69-.084-2.936-.251-3.742-.167-.806-.486-1.492-.956-2.06-.471-.566-1.173-1-2.11-1.3-.935-.3-2.273-.45-4.013-.45h-6.432v26.992l.001-.001zm-9.039-21.974c.278.267.417.828.417 1.683v1.485c0 1.189-.144 1.892-.432 2.11-.288.216-.791.324-1.51.324v-6.002c.738 0 1.247.134 1.525.401v-.001zm-7.913 21.974h6.387v-12.17c.88 0 1.424.172 1.631.516.208.345.31 1.24.31 2.684v8.97h5.933v-7.119c0-2.177-.053-3.509-.159-3.993-.107-.484-.377-1.014-.812-1.593-.435-.577-1.284-1.04-2.549-1.383 1.395-.144 2.33-.578 2.807-1.301.475-.723.713-2.135.713-4.235 0-2.301-.337-3.976-1.01-5.027-.672-1.051-1.542-1.703-2.61-1.96-1.067-.255-3.106-.383-6.122-.383h-4.52v26.992l.001.002zM74.35 30.765v19.89c0 1.345-.057 2.198-.173 2.56-.116.36-.377.541-.781.541-.355 0-.59-.163-.705-.491-.116-.328-.175-1.081-.175-2.26v-20.24h-6.387v15.972c0 3.045.05 5.043.151 5.993.101.95.431 1.853.986 2.71.557.856 1.396 1.55 2.518 2.084 1.122.534 2.417.8 3.884.8 1.324 0 2.474-.226 3.451-.676a5.697 5.697 0 002.36-1.983c.596-.873.955-1.722 1.077-2.55.122-.829.182-2.264.182-4.31V30.766H74.35v-.001zm-15.92 5.034c.263.278.395.879.395 1.8v2.219c0 1-.114 1.658-.341 1.976-.227.316-.636.475-1.222.475-.132 0-.288-.006-.47-.017v-6.869c.83 0 1.374.14 1.638.417V35.8zm-8.025 21.958h6.386v-10.87h1.715c1.395 0 2.527-.21 3.39-.634.866-.422 1.46-1.027 1.784-1.817.323-.788.485-2.044.485-3.768v-2.35c0-1.69-.083-2.936-.25-3.742-.167-.806-.486-1.492-.957-2.06-.47-.566-1.173-1-2.11-1.3-.935-.3-2.272-.45-4.012-.45h-6.433v26.992l.002-.001z" fill="#353D98"/><path d="M159.183 62.602l-.531 7.35-1.088-7.35h-3.008l1.814 9.104c.137.673.205 1.053.205 1.14 0 .18-.074.297-.221.35-.149.051-.48.078-.995.078v1.738h2.01c.919 0 1.587-.07 2.006-.209.418-.14.745-.356.979-.652.235-.295.404-.67.505-1.123.101-.455.227-1.304.377-2.55l.947-7.876h-3zm-7.789 7.834c0 .58-.025.944-.077 1.095-.052.15-.184.226-.398.226-.214 0-.361-.082-.426-.247-.066-.164-.098-.574-.098-1.23v-4.512c0-.63.031-1.026.095-1.189.062-.165.203-.246.423-.246.22 0 .361.07.41.213.049.143.074.55.074 1.222v4.668h-.003zm-4.314-7.834v12.436h3.313v-2.496c.29.379.61.664.959.855.351.192.731.288 1.14.288.514 0 .953-.124 1.317-.372.364-.25.604-.582.722-1.001.117-.419.176-1.122.176-2.112v-4.586c0-.864-.046-1.477-.139-1.838-.094-.36-.327-.68-.701-.956-.374-.276-.819-.414-1.333-.414-.422 0-.809.096-1.165.288-.355.191-.682.482-.977.871l.058-.962h-3.372l.002-.001zm-3.9 7.948c0 .546-.031.885-.095 1.012-.063.13-.199.193-.407.193-.218 0-.365-.081-.439-.246-.075-.165-.112-.527-.112-1.091 0-.493.043-.87.128-1.132.085-.262.392-.587.923-.976v2.238l.002.002zm-1.051-4.872c0-.608.026-.983.081-1.129.055-.145.195-.216.419-.216.198 0 .337.086.423.258.085.172.128.543.128 1.112 0 .454-.039.754-.114.902-.078.147-.66.435-1.748.861-1.017.394-1.654.738-1.91 1.034-.257.295-.386.85-.386 1.665v.894c0 1.099.242 1.811.726 2.136a2.8 2.8 0 001.595.489c.443 0 .824-.098 1.145-.291.319-.195.58-.486.784-.876v.97h3.223v-5.464c0-1.8-.058-2.987-.172-3.564-.115-.578-.458-1.063-1.026-1.46-.569-.396-1.414-.595-2.534-.595-.936 0-1.696.175-2.281.526-.585.35-.975.752-1.168 1.21-.194.457-.291 1.106-.291 1.947v.73h3.109v-1.14h-.003zm-8.419-3.076v10.884h3.313V69.19c0-1.056.033-1.73.098-2.022.066-.293.241-.522.526-.685.285-.163.73-.246 1.338-.246v-3.83c-.913.06-1.611.602-2.092 1.628l.13-1.43h-3.313v-.002zm-4.819 3.862v-.795c0-.612.027-.989.082-1.129.055-.14.197-.209.426-.209.185 0 .309.082.369.247.061.163.091.527.091 1.09v.796h-.968zm4.29.329c0-1.056-.121-1.874-.365-2.457-.243-.582-.666-1.05-1.271-1.403-.604-.354-1.371-.529-2.301-.529-.76 0-1.432.147-2.017.44-.585.292-1.007.714-1.263 1.263-.257.55-.386 1.3-.386 2.252v3.174c0 .809.058 1.427.172 1.85.114.424.32.812.619 1.165.298.353.715.631 1.251.833.536.202 1.154.303 1.855.303.7 0 1.321-.103 1.8-.308a2.89 2.89 0 001.185-.923c.312-.411.509-.796.595-1.156.085-.361.128-.878.128-1.55v-.805h-3.141v1.436c0 .541-.043.907-.128 1.095-.085.189-.254.284-.505.284-.202 0-.338-.072-.41-.214-.071-.143-.106-.459-.106-.952v-2.354h4.29v-1.443l-.002-.001zm-15.752-6.587v13.28h3.313v-7.768c0-.553.036-.922.107-1.108a.404.404 0 01.41-.279c.218 0 .359.09.423.27.063.181.094.588.094 1.222v7.662h3.313v-7.506c0-1.023-.044-1.727-.135-2.112-.09-.386-.338-.726-.747-1.022-.408-.295-.901-.442-1.48-.442-.377 0-.732.065-1.063.197a3 3 0 00-.923.593v-2.989h-3.314l.002.002zm-7.681 0v2.657h2.043v10.622h3.453V62.863h2.05v-2.657h-7.546zM107.1 64.34c-.202-.558-.611-1.02-1.222-1.387-.613-.366-1.351-.549-2.215-.549-.864 0-1.608.184-2.215.554-.607.37-1.004.788-1.189 1.259-.186.47-.28 1.168-.28 2.091v3.093c0 1.061.114 1.88.341 2.457a2.632 2.632 0 001.161 1.345c.547.319 1.287.48 2.222.48.733 0 1.348-.117 1.845-.35a2.944 2.944 0 001.21-1.033c.309-.457.491-.903.549-1.337.058-.435.089-1.087.095-1.957h-2.952v1.296c0 .563-.04.946-.119 1.149-.079.202-.232.303-.456.303-.191 0-.337-.097-.435-.291-.098-.195-.148-.486-.148-.873v-5.135c0-.477.032-.782.098-.919.065-.137.194-.205.386-.205.191 0 .322.079.393.235.071.156.107.453.107.89v1.255h3.125c0-1.023-.101-1.813-.303-2.371h.002zm-11.07-1.738v10.884h3.414V62.602H96.03zm0-2.396v1.73h3.414v-1.73H96.03zm-5.458 2.396v10.884h3.314V69.19c0-1.056.032-1.73.098-2.022.065-.293.24-.522.525-.685.285-.163.73-.246 1.338-.246v-3.83c-.913.06-1.611.602-2.092 1.628l.13-1.43h-3.313v-.002zm-4.391-1.452v1.714h-.714v1.723h.714v5.528c0 1.082.03 1.771.09 2.063.061.293.214.553.46.78.246.227.53.37.853.435.322.062.86.095 1.616.095h1.338v-1.755c-.542 0-.85-.041-.923-.123-.075-.082-.112-.481-.112-1.198v-5.824h.894v-1.722h-.894V61.15h-3.322v-.001zm-4.072 9.4c0 .546-.031.885-.095 1.012-.063.13-.2.193-.407.193-.218 0-.365-.081-.44-.246-.074-.165-.11-.527-.11-1.091 0-.493.042-.87.127-1.132.085-.262.392-.587.923-.976v2.238l.002.002zm-1.05-4.872c0-.608.027-.983.082-1.129.055-.145.194-.216.418-.216.198 0 .338.086.424.258.084.172.127.543.127 1.112 0 .454-.038.754-.114.902-.077.147-.66.435-1.747.861-1.017.394-1.654.738-1.911 1.034-.257.295-.386.85-.386 1.665v.894c0 1.099.242 1.811.726 2.136a2.802 2.802 0 001.596.489c.442 0 .824-.098 1.144-.291.32-.195.58-.486.784-.876v.97h3.223v-5.464c0-1.8-.058-2.987-.172-3.564-.114-.578-.457-1.063-1.026-1.46-.568-.396-1.413-.595-2.534-.595-.935 0-1.695.175-2.28.526-.585.35-.975.752-1.168 1.21-.195.457-.291 1.106-.291 1.947v.73h3.108v-1.14h-.003zm-7.008-3.076v10.884h3.413V62.602H74.05zm0-2.396v1.73h3.413v-1.73H74.05zM70.1 70.378c0 .607-.035.988-.106 1.144-.071.156-.214.235-.426.235-.186 0-.312-.07-.377-.21-.066-.14-.098-.43-.098-.872v-5.333c0-.426.034-.7.102-.824.069-.123.2-.184.398-.184s.337.068.405.205c.069.136.103.405.103.805v5.037-.003zm0-10.172v3.086a2.832 2.832 0 00-.93-.667 2.797 2.797 0 00-1.128-.222c-.53 0-.988.132-1.37.398-.383.265-.628.573-.735.923-.107.35-.16.943-.16 1.78v5.093c0 .805.053 1.384.16 1.739.107.355.349.668.726.94.377.27.822.406 1.337.406.383 0 .75-.081 1.099-.246.35-.165.683-.411 1-.74v.79h3.314v-13.28H70.1h.002zm-9.043 6.258v-.795c0-.612.027-.989.082-1.129.055-.14.197-.209.426-.209.185 0 .308.082.37.247.06.163.09.527.09 1.09v.796h-.968zm4.29.329c0-1.056-.121-1.874-.365-2.457-.243-.582-.666-1.05-1.27-1.403-.605-.354-1.372-.529-2.302-.529-.76 0-1.432.147-2.017.44-.585.292-1.007.714-1.264 1.263-.256.55-.386 1.3-.386 2.252v3.174c0 .809.058 1.427.173 1.85a3 3 0 00.619 1.165c.298.353.715.631 1.251.833.536.202 1.154.303 1.854.303.701 0 1.322-.103 1.801-.308a2.886 2.886 0 001.185-.923c.312-.411.509-.796.595-1.156.085-.361.128-.878.128-1.55v-.805h-3.141v1.436c0 .541-.044.907-.128 1.095-.085.189-.254.284-.505.284-.202 0-.338-.072-.41-.214-.07-.143-.106-.459-.106-.952v-2.354h4.29v-1.443l-.002-.001zm-10.945-4.11c.142.137.214.432.214.887v1.09c0 .494-.061.817-.184.973-.124.156-.343.235-.661.235-.071 0-.156-.003-.254-.01V62.48c.448 0 .744.068.886.205l-.001-.002zm-4.34 10.803h3.453v-5.349h.927c.754 0 1.366-.103 1.833-.311.468-.208.789-.506.964-.894.175-.389.262-1.007.262-1.854V63.92c0-.831-.044-1.444-.135-1.84a2.195 2.195 0 00-.516-1.013c-.254-.277-.634-.493-1.14-.64-.507-.148-1.23-.22-2.17-.22h-3.477v13.28-.002zM155.119 24.219c0 .537-.031.868-.092.994-.062.127-.194.19-.399.19-.215 0-.359-.08-.431-.241-.072-.162-.108-.519-.108-1.072 0-.484.041-.854.125-1.112.083-.259.386-.578.907-.96v2.2h-.002zm-1.032-4.786c0-.597.027-.965.081-1.108.053-.142.19-.214.411-.214.193 0 .331.085.414.254.083.17.125.533.125 1.091 0 .446-.037.741-.113.887-.076.145-.647.427-1.716.846-.999.387-1.626.724-1.878 1.015-.253.29-.379.836-.379 1.636v.88c0 1.078.238 1.779.713 2.098.475.32.997.48 1.567.48.435 0 .81-.095 1.124-.287.315-.191.57-.478.769-.86v.954h3.167v-5.367c0-1.767-.057-2.935-.169-3.5-.113-.567-.449-1.046-1.008-1.434-.559-.39-1.388-.585-2.49-.585-.919 0-1.666.172-2.24.515-.575.344-.958.739-1.149 1.189-.19.448-.287 1.087-.287 1.913v.718h3.054v-1.12l.004-.001zm-13.539-5.374v13.046h3.256v-7.63c0-.543.036-.906.105-1.089a.397.397 0 01.403-.275c.215 0 .353.09.414.266.062.177.092.578.092 1.201v7.527h3.256v-7.372c0-1.006-.045-1.697-.134-2.076-.089-.378-.333-.712-.733-1.003-.401-.29-.885-.435-1.455-.435a2.8 2.8 0 00-1.044.194c-.325.13-.626.324-.907.582V14.06h-3.256l.003-.001zm-4.397.926v1.683h-.701v1.693h.701v5.43c0 1.063.03 1.74.089 2.027.06.288.21.543.452.766.242.222.521.365.837.427.316.063.846.092 1.587.092h1.314v-1.725c-.532 0-.835-.04-.907-.12-.073-.08-.109-.472-.109-1.176v-5.721h.879v-1.693h-.879v-1.683h-3.263zm-4.226 1.425v10.693h3.352V16.41h-3.352zm0-2.351v1.7h3.352v-1.7h-3.352zm-2.865 2.351c-.394 2.295-.643 4.337-.747 6.124l-.659-6.124h-2.696c-.452 3.69-.695 5.733-.732 6.124-.453-3.804-.69-5.845-.711-6.124h-2.806l1.379 10.693h3.541l.358-2.32c.155-.956.277-1.905.365-2.845.257 2.138.482 3.859.675 5.165h3.533l1.299-10.693h-2.802.003z" fill="#DF4434"/></svg>