<svg width="171" height="84" viewBox="0 0 171 84" fill="none" xmlns="http://www.w3.org/2000/svg">
<g filter="url(#filter0_d_2602_107066)">
<path d="M27.4649 12.218C30.4651 13.8733 32.0195 8.94018 30.6181 6.65844C30.0792 5.78256 29.1959 5.03138 28.0854 5.21101C25.4043 5.6445 25.0614 10.8924 27.4649 12.218ZM35.9015 14.6943C38.7593 14.1999 38.4831 7.78966 35.18 8.23651C32.2793 8.62843 32.6741 15.2539 35.9015 14.6943ZM42.8848 18.0063C45.2497 15.8893 43.2545 11.0646 40.7189 13.4027C38.3184 15.6147 40.3047 20.3162 42.8848 18.0063ZM37.8804 18.8317C34.365 16.348 24.3221 13.2364 20.0689 13.4829C12.8689 13.9015 6.34878 20.1455 9.13229 27.6513C10.9241 32.485 14.6934 32.8487 18.0158 35.8579C23.2562 40.604 24.1054 46.7054 22.4694 53.3324C21.4005 57.6613 20.4549 60.8783 21.7004 65.427C24.2182 74.6192 35.3656 75.1759 39.8237 67.2945C44.5698 58.9054 43.5915 44.1268 43.2738 34.7222C43.0511 28.1249 43.9329 23.1086 37.8789 18.8332L37.8804 18.8317ZM20.4742 11.3585C24.5671 11.0274 23.6006 2.29389 19.4484 3.05397C16.0681 3.67154 16.5891 11.6732 20.4742 11.3585ZM12.5928 12.6397C14.4737 10.6563 14.5345 7.0177 13.6319 4.58157C10.9286 -2.71198 3.37227 -0.868183 4.0418 7.07708C4.36543 10.9235 8.89625 16.5351 12.5928 12.6397Z" fill="#00984F"/>
<path d="M115.787 0.0402832L112.943 10.5271V0.0402832H106.557V27.0322H112.943V15.4617L115.529 27.0322H122.129L118.117 12.2269L121.78 0.0402832H115.787ZM94.986 0.0402832V27.0322H105.258V21.63H101.374V0.0402832H94.9875H94.986ZM84.9134 17.3961C85.0796 15.0074 85.4879 11.2278 86.1396 6.05861C86.4647 10.5597 86.7898 14.3379 87.112 17.3961H84.9134ZM81.2644 0.0402832L78.0058 27.0322H84.6091L84.9936 22.1807H87.2783L87.6212 27.0322H94.1487L90.4967 0.0402832H81.2644ZM72.5427 0.0402832C71.7173 6.28872 71.1235 12.6797 70.7598 19.2131L70.0546 8.94308C69.6775 3.79766 69.446 0.830059 69.3584 0.0402832H62.7254C61.7842 7.67676 61.1949 13.851 60.9588 18.5629L60.3056 9.45821L59.6316 0.0402832H53.4263L56.2855 27.0322H64.2144C65.1467 19.8634 65.7405 15.1455 65.9959 12.8771C66.5541 18.1665 67.1984 22.8844 67.9288 27.0322H75.9037L78.7481 0.0402832H72.5427Z" fill="#353D98"/>
<path d="M153.673 57.7563H164.748V52.3541H160.06V46.4189H164.05V41.2838H160.06V36.1651H164.323V30.7629H153.673V57.7548V57.7563ZM150.922 37.8664C150.922 35.7213 150.732 34.2011 150.354 33.3059C149.975 32.4107 149.2 31.67 148.032 31.0806C146.864 30.4912 145.45 30.1973 143.792 30.1973C142.275 30.1973 140.98 30.4675 139.908 31.0064C138.837 31.5452 138.06 32.2935 137.579 33.248C137.098 34.2041 136.859 35.7153 136.859 37.7833C136.859 39.2174 137.028 40.3961 137.367 41.318C137.705 42.2414 138.133 42.9629 138.65 43.4854C139.165 44.008 140.217 44.8467 141.806 46.0032C143.394 47.1478 144.39 47.9643 144.794 48.4542C145.189 48.9441 145.386 49.9818 145.386 51.5717C145.386 52.2947 145.282 52.8395 145.076 53.2062C144.868 53.5729 144.552 53.7569 144.127 53.7569C143.703 53.7569 143.407 53.613 143.24 53.3235C143.073 53.034 142.989 52.3837 142.989 51.3728V48.089H137.057V49.8556C137.057 51.879 137.244 53.4407 137.618 54.5408C137.992 55.6408 138.783 56.5479 139.992 57.259C141.2 57.9701 142.659 58.3264 144.368 58.3264C145.925 58.3264 147.291 58.0176 148.464 57.4015C149.637 56.7839 150.428 56.0209 150.838 55.1094C151.247 54.1979 151.452 52.7816 151.452 50.8576C151.452 48.2122 151.083 46.2956 150.345 45.105C149.607 43.9159 147.815 42.3943 144.972 40.5401C143.981 39.8958 143.379 39.3465 143.167 38.8893C142.946 38.4335 142.834 37.7551 142.834 36.854C142.834 36.1533 142.932 35.6307 143.13 35.2863C143.327 34.9419 143.618 34.7697 144.003 34.7697C144.356 34.7697 144.61 34.8973 144.761 35.1527C144.913 35.408 144.989 36.0033 144.989 36.9371V38.9383H150.921V37.8709L150.922 37.8664ZM128.402 50.1035C128.402 51.6934 128.341 52.6985 128.219 53.1216C128.097 53.5447 127.82 53.7555 127.385 53.7555C126.95 53.7555 126.689 53.5714 126.573 53.2047C126.457 52.838 126.398 51.8716 126.398 50.3039V37.7002C126.398 36.3106 126.487 35.4748 126.663 35.1913C126.84 34.9077 127.095 34.7667 127.429 34.7667C127.824 34.7667 128.084 34.9419 128.21 35.2922C128.336 35.6426 128.4 36.4457 128.4 37.7016V50.105L128.402 50.1035ZM134.79 41.9504C134.79 39.1713 134.729 37.2266 134.607 36.1147C134.485 35.0027 134.107 33.9754 133.468 33.0298C132.832 32.0856 131.99 31.376 130.942 30.9039C129.895 30.4318 128.714 30.1958 127.4 30.1958C126.015 30.1958 124.8 30.4452 123.758 30.9455C122.716 31.4458 121.889 32.1628 121.277 33.0966C120.666 34.0304 120.301 35.0606 120.185 36.1889C120.069 37.3171 120.011 39.2367 120.011 41.9489V46.5673C120.011 49.3464 120.072 51.2911 120.194 52.403C120.315 53.515 120.694 54.5423 121.331 55.4879C121.968 56.4321 122.809 57.1417 123.858 57.6138C124.904 58.0859 126.084 58.3219 127.4 58.3219C128.785 58.3219 129.999 58.0725 131.041 57.5722C132.083 57.0719 132.91 56.3549 133.522 55.4211C134.134 54.4873 134.497 53.4571 134.615 52.3288C134.73 51.2006 134.79 49.2811 134.79 46.5688V41.9504ZM112.406 35.7985C112.669 36.0761 112.801 36.6773 112.801 37.5992V39.8171C112.801 40.8177 112.686 41.4753 112.459 41.793C112.232 42.1092 111.824 42.2681 111.237 42.2681C111.105 42.2681 110.949 42.2621 110.767 42.2518V35.3828C111.597 35.3828 112.142 35.5223 112.406 35.7999V35.7985ZM104.38 57.7563H110.767V46.8865H112.482C113.877 46.8865 115.008 46.6757 115.872 46.2526C116.738 45.831 117.332 45.2253 117.655 44.4355C117.979 43.6472 118.141 42.3913 118.141 40.6678V38.3177C118.141 36.6283 118.057 35.3813 117.89 34.5752C117.723 33.7691 117.404 33.0832 116.934 32.5161C116.463 31.949 115.761 31.5156 114.824 31.2157C113.889 30.9158 112.551 30.7659 110.811 30.7659H104.379V57.7578L104.38 57.7563ZM95.341 35.7821C95.6186 36.0493 95.7582 36.6105 95.7582 37.4656V38.9501C95.7582 40.1393 95.6142 40.8429 95.3262 41.0597C95.0382 41.2764 94.5349 41.3848 93.8164 41.3848V35.3828C94.5542 35.3828 95.0634 35.5164 95.341 35.7836V35.7821ZM87.4284 57.7563H93.8149V45.586C94.6952 45.586 95.2386 45.7582 95.4464 46.1027C95.6543 46.4471 95.7567 47.3423 95.7567 48.7867V57.7563H101.689V50.6379C101.689 48.4601 101.635 47.1285 101.53 46.6445C101.423 46.1606 101.153 45.6306 100.718 45.0516C100.283 44.4741 99.4339 44.0124 98.1691 43.668C99.5645 43.524 100.5 43.0905 100.976 42.3676C101.451 41.6446 101.689 40.2328 101.689 38.1322C101.689 35.8311 101.352 34.1566 100.679 33.1055C100.007 32.0544 99.137 31.4027 98.0696 31.1459C97.0022 30.8906 94.9625 30.7629 91.9474 30.7629H87.4269V57.7548L87.4284 57.7563ZM78.3505 30.7644V50.6543C78.3505 51.9993 78.2926 52.8529 78.1768 53.2136C78.061 53.5744 77.7997 53.7555 77.3959 53.7555C77.0411 53.7555 76.8065 53.5922 76.6907 53.2641C76.5749 52.936 76.5156 52.1833 76.5156 51.0046V30.7644H70.1291V46.7366C70.1291 49.7814 70.1795 51.7795 70.2805 52.7296C70.3814 53.6798 70.711 54.5824 71.2662 55.4389C71.8229 56.2955 72.6617 56.9888 73.784 57.5232C74.9063 58.0577 76.2008 58.3234 77.6676 58.3234C78.9918 58.3234 80.1423 58.0978 81.1191 57.6479C82.0945 57.1981 82.8813 56.536 83.4781 55.6646C84.0748 54.7917 84.4341 53.9425 84.5558 53.1141C84.6776 52.2858 84.7384 50.8502 84.7384 48.8045V30.7659H78.3505V30.7644ZM62.4302 35.7985C62.693 36.0761 62.8251 36.6773 62.8251 37.5992V39.8171C62.8251 40.8177 62.7108 41.4753 62.4837 41.793C62.2565 42.1092 61.8483 42.2681 61.2619 42.2681C61.1298 42.2681 60.9739 42.2621 60.7913 42.2518V35.3828C61.6212 35.3828 62.166 35.5223 62.4302 35.7999V35.7985ZM54.4048 57.7563H60.7913V46.8865H62.5059C63.9014 46.8865 65.0326 46.6757 65.8966 46.2526C66.7621 45.831 67.3559 45.2253 67.6796 44.4355C68.0032 43.6472 68.165 42.3913 68.165 40.6678V38.3177C68.165 36.6283 68.0819 35.3813 67.9141 34.5752C67.7479 33.7691 67.4287 33.0832 66.9581 32.5161C66.4875 31.949 65.7853 31.5156 64.8486 31.2157C63.9133 30.9158 62.5757 30.7659 60.8358 30.7659H54.4033V57.7578L54.4048 57.7563Z" fill="#353D98"/>
<path d="M163.183 62.6019L162.652 69.9518L161.564 62.6019H158.556L160.37 71.7066C160.507 72.3791 160.575 72.7591 160.575 72.8467C160.575 73.0263 160.501 73.1436 160.354 73.1956C160.205 73.2475 159.874 73.2742 159.359 73.2742V75.0126H161.369C162.288 75.0126 162.956 74.9429 163.375 74.8033C163.793 74.6638 164.12 74.447 164.354 74.1516C164.589 73.8562 164.758 73.4821 164.859 73.0278C164.96 72.5735 165.086 71.7244 165.236 70.4774L166.183 62.6019H163.185H163.183ZM155.394 70.4358C155.394 71.0163 155.369 71.38 155.317 71.5314C155.265 71.6813 155.133 71.757 154.919 71.757C154.705 71.757 154.558 71.6754 154.493 71.5106C154.427 71.3458 154.395 70.9361 154.395 70.2799V65.7684C154.395 65.139 154.426 64.7426 154.49 64.5793C154.552 64.4145 154.693 64.3329 154.913 64.3329C155.133 64.3329 155.274 64.4041 155.323 64.5466C155.372 64.6891 155.397 65.0959 155.397 65.7684V70.4358H155.394ZM151.08 62.6019V75.0379H154.393V72.5424C154.683 72.9209 155.003 73.206 155.352 73.3975C155.703 73.589 156.083 73.6855 156.492 73.6855C157.006 73.6855 157.445 73.5608 157.809 73.3128C158.173 73.0634 158.413 72.7309 158.531 72.3123C158.648 71.8936 158.707 71.1899 158.707 70.1998V65.614C158.707 64.75 158.661 64.1369 158.568 63.7762C158.474 63.4154 158.241 63.0962 157.867 62.8201C157.493 62.544 157.048 62.4059 156.534 62.4059C156.112 62.4059 155.725 62.5024 155.369 62.6939C155.014 62.8854 154.687 63.1764 154.392 63.5653L154.45 62.6034H151.078L151.08 62.6019ZM147.18 70.5501C147.18 71.0964 147.149 71.4349 147.085 71.5626C147.022 71.6917 146.886 71.7556 146.678 71.7556C146.46 71.7556 146.313 71.6739 146.239 71.5091C146.164 71.3443 146.127 70.9821 146.127 70.418C146.127 69.9251 146.17 69.548 146.255 69.2868C146.34 69.024 146.647 68.6989 147.178 68.3099V70.5486L147.18 70.5501ZM146.129 65.6778C146.129 65.0707 146.155 64.6951 146.21 64.5496C146.265 64.4041 146.405 64.3329 146.629 64.3329C146.827 64.3329 146.966 64.419 147.052 64.5912C147.137 64.7634 147.18 65.1345 147.18 65.7031C147.18 66.1574 147.141 66.4572 147.066 66.6057C146.988 66.7527 146.406 67.0407 145.318 67.4667C144.301 67.8601 143.664 68.2045 143.408 68.5C143.151 68.7954 143.022 69.3506 143.022 70.1656V71.0593C143.022 72.1579 143.264 72.8704 143.748 73.1956C144.232 73.5207 144.763 73.684 145.343 73.684C145.786 73.684 146.167 73.586 146.488 73.393C146.807 73.1985 147.068 72.9076 147.272 72.5171V73.4865H150.495V68.0234C150.495 66.2242 150.437 65.0365 150.323 64.459C150.208 63.8816 149.865 63.3961 149.297 62.9997C148.728 62.6034 147.883 62.4044 146.763 62.4044C145.827 62.4044 145.067 62.5796 144.482 62.93C143.897 63.2803 143.507 63.6826 143.314 64.1399C143.12 64.5971 143.023 65.2458 143.023 66.0876V66.818H146.132V65.6778H146.129ZM137.71 62.6019V73.4865H141.023V69.1888C141.023 68.1333 141.056 67.4593 141.121 67.1668C141.187 66.8744 141.362 66.6458 141.647 66.4825C141.932 66.3192 142.377 66.236 142.985 66.236V62.4059C142.072 62.4668 141.374 63.0086 140.893 64.0345L141.023 62.6034H137.71V62.6019ZM132.891 66.4647V65.6689C132.891 65.0573 132.918 64.6802 132.973 64.5407C133.028 64.4011 133.17 64.3314 133.399 64.3314C133.584 64.3314 133.708 64.413 133.768 64.5778C133.829 64.7411 133.859 65.1048 133.859 65.6689V66.4647H132.891ZM137.181 66.7927C137.181 65.7372 137.06 64.9192 136.816 64.3358C136.573 63.7539 136.15 63.2863 135.545 62.9329C134.941 62.5796 134.174 62.4044 133.244 62.4044C132.484 62.4044 131.812 62.5514 131.227 62.8439C130.642 63.1363 130.22 63.5579 129.964 64.1072C129.707 64.6565 129.578 65.4077 129.578 66.3593V69.5332C129.578 70.3423 129.636 70.9598 129.75 71.3829C129.864 71.8075 130.07 72.195 130.369 72.5483C130.667 72.9016 131.084 73.1792 131.62 73.3811C132.156 73.583 132.774 73.684 133.475 73.684C134.175 73.684 134.796 73.5815 135.275 73.3767C135.753 73.1718 136.148 72.8645 136.46 72.4533C136.772 72.0421 136.969 71.6576 137.055 71.2968C137.14 70.9361 137.183 70.4195 137.183 69.747V68.9424H134.042V70.3779C134.042 70.9198 133.999 71.285 133.914 71.4735C133.829 71.662 133.66 71.757 133.409 71.757C133.207 71.757 133.071 71.6858 132.999 71.5433C132.928 71.4008 132.893 71.0845 132.893 70.5917V68.2372H137.183V66.7942L137.181 66.7927ZM121.429 60.2058V73.4865H124.742V65.7179C124.742 65.1657 124.778 64.796 124.849 64.6105C124.921 64.4249 125.057 64.3314 125.259 64.3314C125.477 64.3314 125.618 64.4219 125.682 64.6016C125.745 64.7827 125.776 65.1894 125.776 65.8233V73.485H129.089V65.9792C129.089 64.9564 129.045 64.2527 128.954 63.8667C128.864 63.4807 128.616 63.1408 128.207 62.8453C127.799 62.5499 127.306 62.403 126.727 62.403C126.35 62.403 125.995 62.4683 125.664 62.6004C125.333 62.7325 125.026 62.93 124.741 63.1927V60.2043H121.427L121.429 60.2058ZM113.748 60.2058V62.8632H115.791V73.485H119.244V62.8632H121.294V60.2058H113.748ZM111.1 64.3403C110.898 63.7821 110.489 63.3204 109.878 62.9537C109.265 62.587 108.527 62.4044 107.663 62.4044C106.799 62.4044 106.055 62.5885 105.448 62.9582C104.841 63.3278 104.444 63.7465 104.259 64.2171C104.073 64.6877 103.98 65.3854 103.98 66.3088V69.4011C103.98 70.4625 104.093 71.2805 104.32 71.858C104.547 72.4355 104.933 72.8838 105.481 73.203C106.028 73.5222 106.768 73.6825 107.703 73.6825C108.436 73.6825 109.051 73.5667 109.548 73.3336C110.046 73.1006 110.449 72.7561 110.758 72.3004C111.067 71.8431 111.249 71.3978 111.307 70.9628C111.365 70.5278 111.396 69.8761 111.402 69.0062H108.45V70.3022C108.45 70.8648 108.41 71.2478 108.331 71.4512C108.252 71.6531 108.099 71.7541 107.875 71.7541C107.684 71.7541 107.538 71.6576 107.44 71.4631C107.342 71.2686 107.292 70.9777 107.292 70.5902V65.4552C107.292 64.9786 107.324 64.6728 107.39 64.5362C107.455 64.3997 107.584 64.3314 107.776 64.3314C107.967 64.3314 108.098 64.4101 108.169 64.5659C108.24 64.7218 108.276 65.0187 108.276 65.4567V66.7111H111.401C111.401 65.6882 111.3 64.8985 111.098 64.3403H111.1ZM100.031 62.6019V73.4865H103.444V62.6019H100.031ZM100.031 60.2058V61.9368H103.444V60.2058H100.031ZM94.5721 62.6019V73.4865H97.8856V69.1888C97.8856 68.1333 97.9183 67.4593 97.9836 67.1668C98.0489 66.8744 98.2241 66.6458 98.5091 66.4825C98.7942 66.3192 99.2395 66.236 99.8467 66.236V62.4059C98.9337 62.4668 98.236 63.0086 97.755 64.0345L97.8856 62.6034H94.5721V62.6019ZM90.1809 61.15V62.8646H89.4668V64.5867H90.1809V70.1151C90.1809 71.1974 90.2106 71.8862 90.2714 72.1787C90.3323 72.4711 90.4852 72.7309 90.7301 72.958C90.9766 73.1852 91.2601 73.3292 91.5838 73.393C91.9059 73.4554 92.4448 73.488 93.2004 73.488H94.538V71.7333C93.9961 71.7333 93.6888 71.6917 93.6146 71.6101C93.5404 71.5284 93.5033 71.1291 93.5033 70.412V64.5882H94.397V62.8661H93.5033V61.1515H90.1809V61.15ZM86.1088 70.5501C86.1088 71.0964 86.0776 71.4349 86.0138 71.5626C85.9514 71.6917 85.8148 71.7556 85.607 71.7556C85.3888 71.7556 85.2418 71.6739 85.1676 71.5091C85.0934 71.3443 85.0562 70.9821 85.0562 70.418C85.0562 69.9251 85.0993 69.548 85.1839 69.2868C85.2685 69.024 85.5758 68.6989 86.1073 68.3099V70.5486L86.1088 70.5501ZM85.0592 65.6778C85.0592 65.0707 85.0859 64.6951 85.1409 64.5496C85.1958 64.4041 85.3353 64.3329 85.5595 64.3329C85.7569 64.3329 85.8965 64.419 85.9826 64.5912C86.0672 64.7634 86.1103 65.1345 86.1103 65.7031C86.1103 66.1574 86.0717 66.4572 85.996 66.6057C85.9188 66.7527 85.3368 67.0407 84.2486 67.4667C83.2317 67.8601 82.5949 68.2045 82.338 68.5C82.0812 68.7954 81.9521 69.3506 81.9521 70.1656V71.0593C81.9521 72.1579 82.194 72.8704 82.678 73.1956C83.162 73.5207 83.6934 73.684 84.2739 73.684C84.7163 73.684 85.0978 73.586 85.4185 73.393C85.7376 73.1985 85.9989 72.9076 86.2023 72.5171V73.4865H89.4252V68.0234C89.4252 66.2242 89.3673 65.0365 89.253 64.459C89.1387 63.8816 88.7958 63.3961 88.2272 62.9997C87.6586 62.6034 86.8139 62.4044 85.6931 62.4044C84.7578 62.4044 83.9978 62.5796 83.4128 62.93C82.8279 63.2803 82.4375 63.6826 82.2445 64.1399C82.05 64.5971 81.9535 65.2458 81.9535 66.0876V66.818H85.0622V65.6778H85.0592ZM78.0507 62.6019V73.4865H81.4636V62.6019H78.0507ZM78.0507 60.2058V61.9368H81.4636V60.2058H78.0507ZM74.1018 70.3779C74.1018 70.9851 74.0662 71.3666 73.9949 71.5225C73.9237 71.6784 73.7811 71.757 73.5689 71.757C73.3833 71.757 73.2571 71.6873 73.1918 71.5477C73.1265 71.4082 73.0938 71.1172 73.0938 70.6748V65.3423C73.0938 64.9163 73.1279 64.6416 73.1962 64.5184C73.2645 64.3952 73.3967 64.3343 73.5941 64.3343C73.7915 64.3343 73.9311 64.4026 73.9994 64.5392C74.0677 64.6758 74.1018 64.9445 74.1018 65.3438V70.3809V70.3779ZM74.1018 60.2058V63.2922C73.8227 62.9968 73.5124 62.7741 73.171 62.6256C72.8296 62.4772 72.454 62.403 72.0428 62.403C71.5128 62.403 71.0555 62.5351 70.6725 62.8008C70.2895 63.0665 70.0446 63.3738 69.9377 63.7242C69.8308 64.0745 69.7773 64.6669 69.7773 65.5042V70.5976C69.7773 71.4022 69.8308 71.9812 69.9377 72.336C70.0446 72.6908 70.2865 73.0041 70.6636 73.2757C71.0407 73.5459 71.486 73.6825 72.0012 73.6825C72.3842 73.6825 72.7509 73.6008 73.0997 73.4361C73.4501 73.2713 73.7826 73.0248 74.1003 72.6968V73.4865H77.4138V60.2058H74.1003H74.1018ZM65.058 66.4647V65.6689C65.058 65.0573 65.0847 64.6802 65.1396 64.5407C65.1946 64.4011 65.3371 64.3314 65.5657 64.3314C65.7513 64.3314 65.8745 64.413 65.9354 64.5778C65.9962 64.7411 66.0259 65.1048 66.0259 65.6689V66.4647H65.058ZM69.3483 66.7927C69.3483 65.7372 69.2266 64.9192 68.9831 64.3358C68.7396 63.7539 68.3166 63.2863 67.7123 62.9329C67.1081 62.5796 66.3406 62.4044 65.4113 62.4044C64.6512 62.4044 63.9787 62.5514 63.3938 62.8439C62.8089 63.1363 62.3873 63.5579 62.1305 64.1072C61.8736 64.6565 61.7445 65.4077 61.7445 66.3593V69.5332C61.7445 70.3423 61.8024 70.9598 61.9167 71.3829C62.031 71.8075 62.2374 72.195 62.5357 72.5483C62.8341 72.9016 63.2513 73.1792 63.7872 73.3811C64.3231 73.583 64.9407 73.684 65.6414 73.684C66.3421 73.684 66.9627 73.5815 67.4422 73.3767C67.9202 73.1718 68.3151 72.8645 68.6268 72.4533C68.9386 72.0421 69.136 71.6576 69.2221 71.2968C69.3067 70.9361 69.3498 70.4195 69.3498 69.747V68.9424H66.2085V70.3779C66.2085 70.9198 66.1655 71.285 66.0808 71.4735C65.9962 71.662 65.827 71.757 65.5761 71.757C65.3742 71.757 65.2376 71.6858 65.1664 71.5433C65.0951 71.4008 65.0595 71.0845 65.0595 70.5917V68.2372H69.3498V66.7942L69.3483 66.7927ZM58.4028 62.6835C58.5453 62.8201 58.6166 63.1155 58.6166 63.5698V64.6609C58.6166 65.1538 58.5557 65.4774 58.4325 65.6333C58.3093 65.7892 58.0895 65.8679 57.7719 65.8679C57.7006 65.8679 57.616 65.8649 57.518 65.859V62.4801C57.9663 62.4801 58.2618 62.5484 58.4043 62.685L58.4028 62.6835ZM54.0635 73.4865H57.5165V68.1377H58.4429C59.197 68.1377 59.8086 68.0338 60.2763 67.826C60.7439 67.6181 61.0646 67.3197 61.2397 66.9323C61.4149 66.5433 61.5025 65.9258 61.5025 65.0781V63.9216C61.5025 63.0903 61.458 62.4772 61.3674 62.0808C61.2769 61.6844 61.1047 61.346 60.8508 61.0683C60.5969 60.7907 60.2169 60.5755 59.7107 60.4285C59.2044 60.2801 58.4815 60.2073 57.5418 60.2073H54.0635V73.488V73.4865Z" fill="#DF4434"/>
<path d="M159.12 24.219C159.12 24.7564 159.088 25.0875 159.028 25.2137C158.965 25.3399 158.833 25.4037 158.628 25.4037C158.413 25.4037 158.269 25.3235 158.198 25.1617C158.125 24.9999 158.089 24.6436 158.089 24.0899C158.089 23.6059 158.131 23.2363 158.214 22.978C158.297 22.7197 158.6 22.4005 159.121 22.0189V24.219H159.12ZM158.088 19.4329C158.088 18.8361 158.115 18.4679 158.168 18.3254C158.222 18.1829 158.358 18.1116 158.579 18.1116C158.772 18.1116 158.91 18.1963 158.993 18.3655C159.077 18.5347 159.118 18.8984 159.118 19.4566C159.118 19.902 159.081 20.1974 159.005 20.3429C158.93 20.4884 158.358 20.7704 157.289 21.1891C156.29 21.5766 155.664 21.9135 155.411 22.2045C155.159 22.494 155.033 23.0403 155.033 23.8405V24.7193C155.033 25.7986 155.27 26.4993 155.745 26.8185C156.22 27.1376 156.743 27.298 157.313 27.298C157.748 27.298 158.122 27.203 158.437 27.0115C158.751 26.82 159.007 26.5334 159.206 26.1519V27.105H162.372V21.7384C162.372 19.9718 162.316 18.8034 162.203 18.2378C162.09 17.6707 161.755 17.1927 161.195 16.8038C160.637 16.4148 159.807 16.2188 158.705 16.2188C157.787 16.2188 157.04 16.3911 156.465 16.734C155.891 17.0784 155.508 17.4733 155.316 17.9231C155.126 18.3714 155.03 19.0098 155.03 19.8367V20.5537H158.083V19.4344L158.088 19.4329ZM144.549 14.0588V27.105H147.804V19.4744C147.804 18.9326 147.84 18.5689 147.91 18.3863C147.98 18.2037 148.115 18.1116 148.312 18.1116C148.527 18.1116 148.666 18.2007 148.726 18.3774C148.789 18.554 148.818 18.9549 148.818 19.5784V27.105H152.074V19.7328C152.074 18.7277 152.029 18.0359 151.94 17.6574C151.851 17.2788 151.608 16.9448 151.207 16.6538C150.806 16.3643 150.322 16.2188 149.752 16.2188C149.381 16.2188 149.034 16.2842 148.709 16.4133C148.383 16.5425 148.082 16.737 147.802 16.9953V14.0603H144.546L144.549 14.0588ZM140.152 14.9852V16.6687H139.451V18.361H140.152V23.7915C140.152 24.8544 140.181 25.5314 140.241 25.8179C140.3 26.1059 140.45 26.3612 140.692 26.5839C140.934 26.8066 141.213 26.9491 141.529 27.0115C141.846 27.0738 142.376 27.1035 143.116 27.1035H144.43V25.3785C143.899 25.3785 143.596 25.3384 143.523 25.2582C143.45 25.1781 143.415 24.7861 143.415 24.0825V18.361H144.294V16.6687H143.415V14.9852H140.152ZM135.925 16.4104V27.1035H139.277V16.4104H135.925ZM135.925 14.0588V15.7586H139.277V14.0588H135.925ZM133.06 16.4104C132.667 18.7055 132.417 20.7467 132.313 22.5341L131.654 16.4104H128.958C128.507 20.1009 128.263 22.1436 128.226 22.5341C127.774 18.7307 127.536 16.6894 127.515 16.4104H124.709L126.089 27.1035H129.629L129.987 24.7832C130.143 23.8271 130.265 22.8785 130.352 21.9388C130.609 24.0765 130.835 25.7971 131.028 27.1035H134.561L135.86 16.4104H133.057H133.06Z" fill="#DF4434"/>
</g>
<defs>
<filter id="filter0_d_2602_107066" x="0" y="0" width="170.184" height="83.0378" filterUnits="userSpaceOnUse" color-interpolation-filters="sRGB">
<feFlood flood-opacity="0" result="BackgroundImageFix"/>
<feColorMatrix in="SourceAlpha" type="matrix" values="0 0 0 0 0 0 0 0 0 0 0 0 0 0 0 0 0 0 127 0" result="hardAlpha"/>
<feOffset dy="4"/>
<feGaussianBlur stdDeviation="2"/>
<feComposite in2="hardAlpha" operator="out"/>
<feColorMatrix type="matrix" values="0 0 0 0 0 0 0 0 0 0 0 0 0 0 0 0 0 0 0.25 0"/>
<feBlend mode="normal" in2="BackgroundImageFix" result="effect1_dropShadow_2602_107066"/>
<feBlend mode="normal" in="SourceGraphic" in2="effect1_dropShadow_2602_107066" result="shape"/>
</filter>
</defs>
</svg>
