<svg width="159" height="86" viewBox="0 0 159 86" fill="none" xmlns="http://www.w3.org/2000/svg">
<path d="M52.1976 8.86271H51.0471V7.43161C50.0747 7.21487 49.7867 8.22287 49.0489 8.57471C48.991 8.28522 49.3206 7.18518 48.6214 7.43607C47.5867 7.80572 47.3907 9.16259 46.4703 9.71929V8.00464C46.1496 8.05512 45.5751 7.89182 45.3598 8.04027C44.9293 8.3357 44.1871 12.8294 43.9614 13.6444C40.2204 19.0645 36.3338 26.5659 32.618 31.9651L27.7948 31.7276L27.5082 29.4384C36.0933 27.8826 39.9339 18.3103 36.8074 10.5774C36.2819 9.2769 35.3526 8.18427 34.9517 6.86155C35.6495 6.70122 36.3591 6.48002 37.0242 6.21429C37.3329 6.09404 37.8807 6.13115 37.8124 5.71697L34.6622 5.43045L34.9502 2.57122C33.298 3.28974 32.8006 5.4735 30.8529 4.01717C30.3244 3.6208 29.3743 0.785322 28.9393 0.00148454C28.1154 0.51662 27.9759 1.95959 27.7888 2.85329C26.2687 3.01659 25.8634 2.34261 24.9341 1.4311L24.22 2.85477L22.7874 0L22.0555 3.41148L16.3489 2.57568L17.7786 6.28703L14.3448 6.00497L15.4849 8.43219L13.4882 8.28968L14.9119 10.1335C11.634 17.8442 15.4256 27.7936 24.0775 29.4429L23.7895 32.0126C22.685 31.8508 20.9792 32.262 19.9727 31.9637C19.4888 31.8167 19.0968 30.9839 18.8044 30.5578C15.0886 25.1585 12.0081 19.0645 8.26711 13.6444C8.04146 12.8294 7.29919 8.3357 6.86867 8.04027C6.65341 7.89182 6.07889 8.05512 5.75972 8.00464V9.71929C4.83782 9.16259 4.64186 7.80572 3.60862 7.43607C2.90791 7.18518 3.23748 8.28522 3.17958 8.57471C2.44325 8.22287 2.15377 7.21487 1.18288 7.43161V8.86271H0.0323576C-0.129457 9.76976 0.645473 10.1335 1.17842 10.7199L0.0338422 10.8624C-0.269004 11.1637 1.55104 12.8665 1.89843 13.1456C3.20037 14.1774 4.74281 14.8083 6.31939 15.3026L18.0532 34.1652C18.3293 37.4654 17.7281 41.2094 18.0606 44.4501C18.2061 45.8827 19.1206 46.5715 19.229 47.8646L16.0995 73.317C16.0966 73.7312 16.5212 74.8313 16.7795 75.1682C17.0779 75.5617 17.7325 75.6967 17.789 75.9313C18.1349 77.4025 17.2382 79.3443 17.4906 80.8837C16.0298 80.2201 10.5904 80.5423 10.3262 82.4663C10.0946 84.1735 11.8582 84.2136 12.9137 84.8875H16.634C17.1402 84.3962 19.0137 84.2447 19.3566 83.7489C19.9564 82.8804 20.0989 77.6845 20.3379 76.2C21.9071 75.7487 22.2827 74.7481 22.5721 73.2413L25.222 50.5902L25.7491 52.2039L30.2873 74.5403C31.0429 76.5281 32.6551 75.9951 32.9728 76.488C33.7166 77.6356 33.5919 81.7611 34.401 83.0051C34.9918 83.9152 38.5874 84.1304 39.6755 84.0295C41.4882 83.8632 44.5597 82.7572 42.9653 80.6017C42.6179 80.232 39.5538 79.0711 36.0963 80.0286C36.2388 78.6673 35.4015 77.1932 35.501 75.8808C35.5738 74.8565 36.8445 74.0608 36.3576 72.7722L31.2107 47.3316C32.4918 46.7437 33.298 46.2123 33.4984 44.7084C33.9259 41.5137 32.8303 38.2789 33.289 35.0663L45.9091 15.3026C46.3218 15.1735 46.733 15.0339 47.1368 14.881V10.6145H51.151C51.6751 10.0875 52.3476 9.71484 52.1976 8.86271ZM23.9825 26.8182C23.0472 26.2927 20.9629 23.9798 20.6437 23.0044C20.5843 22.8174 20.5903 22.5175 20.7818 22.5814C21.3875 22.7788 22.302 23.5047 23.022 23.7749C25.1775 24.5885 27.6404 24.627 29.6668 23.4454L32.3746 21.4383C32.768 21.8881 30.2962 25.3634 29.8019 25.8696C28.1214 27.5917 26.1395 28.0326 23.9825 26.8182Z" fill="#00984F"/>
<path d="M55.544 15.8759C55.8068 16.1535 55.9389 16.7547 55.9389 17.6766V19.8945C55.9389 20.8951 55.8246 21.5528 55.5974 21.8705C55.3703 22.1867 54.9621 22.3455 54.3757 22.3455C54.2435 22.3455 54.0877 22.3396 53.9051 22.3292V15.4602C54.7349 15.4602 55.2798 15.5998 55.544 15.8774V15.8759ZM47.5186 37.8322H53.9051V26.9624H55.6197C57.0152 26.9624 58.1464 26.7516 59.0104 26.3285C59.8759 25.9069 60.4697 25.3012 60.7933 24.5115C61.117 23.7232 61.2788 22.4672 61.2788 20.7437V18.3937C61.2788 16.7042 61.1957 15.4572 61.0279 14.6511C60.8616 13.845 60.5425 13.1592 60.0719 12.5921C59.6013 12.025 58.8991 11.5915 57.9623 11.2916C57.0271 10.9917 55.6895 10.8418 53.9496 10.8418H47.5171V37.8337L47.5186 37.8322Z" fill="#353D98"/>
<path d="M62.8672 10.8403V37.8323H73.1372V32.43H69.2537V10.8403H62.8672Z" fill="#353D98"/>
<path d="M97.2373 10.8403C96.406 15.052 95.8122 18.5971 95.4588 21.4771C95.3416 19.6541 94.8249 16.109 93.9075 10.8403H88.0391L92.5298 28.0625V37.8323H98.4472V28.0625L103.106 10.8403H97.2373ZM81.2889 28.1961C81.4552 25.8075 81.8634 22.0278 82.5151 16.8587C82.8402 21.3598 83.1654 25.1379 83.4875 28.1961H81.2889ZM77.6414 10.8403L74.3828 37.8323H80.9861L81.3705 32.9808H83.6553L83.9982 37.8323H90.5257L86.8737 10.8403H77.6414Z" fill="#353D98"/>
<path d="M146.49 68.5561H157.565V63.1539H152.876V57.2187H156.867V52.0836H152.876V46.9649H157.14V41.5627H146.49V68.5546V68.5561ZM143.739 48.6662C143.739 46.5211 143.549 45.0009 143.171 44.1057C142.792 43.2105 142.017 42.4698 140.849 41.8804C139.68 41.291 138.267 40.9971 136.609 40.9971C135.092 40.9971 133.797 41.2673 132.725 41.8062C131.653 42.3451 130.877 43.0933 130.396 44.0478C129.915 45.0039 129.676 46.5151 129.676 48.5831C129.676 50.0172 129.845 51.1959 130.184 52.1178C130.522 53.0412 130.95 53.7627 131.466 54.2852C131.982 54.8078 133.034 55.6465 134.623 56.803C136.211 57.9476 137.207 58.7641 137.611 59.254C138.006 59.7439 138.203 60.7816 138.203 62.3715C138.203 63.0945 138.099 63.6393 137.893 64.006C137.685 64.3727 137.369 64.5568 136.944 64.5568C136.52 64.5568 136.224 64.4128 136.057 64.1233C135.89 63.8338 135.806 63.1836 135.806 62.1726V58.8888H129.874V60.6554C129.874 62.6788 130.061 64.2406 130.435 65.3406C130.809 66.4406 131.6 67.3477 132.808 68.0588C134.017 68.7699 135.476 69.1262 137.185 69.1262C138.742 69.1262 140.108 68.8174 141.281 68.2013C142.454 67.5837 143.245 66.8207 143.655 65.9092C144.064 64.9977 144.269 63.5814 144.269 61.6574C144.269 59.012 143.899 57.0955 143.162 55.9048C142.424 54.7157 140.632 53.1941 137.789 51.3399C136.797 50.6956 136.196 50.1463 135.984 49.6891C135.763 49.2333 135.651 48.5549 135.651 47.6538C135.651 46.9531 135.749 46.4305 135.947 46.0861C136.144 45.7417 136.435 45.5695 136.82 45.5695C137.173 45.5695 137.427 45.6971 137.578 45.9525C137.73 46.2078 137.805 46.8031 137.805 47.7369V49.7381H143.738V48.6707L143.739 48.6662ZM121.219 60.9033C121.219 62.4932 121.158 63.4983 121.036 63.9214C120.914 64.3445 120.637 64.5553 120.202 64.5553C119.767 64.5553 119.505 64.3712 119.39 64.0045C119.274 63.6378 119.215 62.6714 119.215 61.1037V48.5C119.215 47.1104 119.304 46.2746 119.48 45.9911C119.657 45.7075 119.912 45.5665 120.246 45.5665C120.641 45.5665 120.901 45.7417 121.027 46.092C121.153 46.4424 121.217 47.2455 121.217 48.5014V60.9048L121.219 60.9033ZM127.607 52.7502C127.607 49.9711 127.546 48.0264 127.424 46.9145C127.302 45.8025 126.924 44.7752 126.285 43.8296C125.649 42.8854 124.807 42.1758 123.759 41.7037C122.712 41.2317 121.53 40.9956 120.217 40.9956C118.832 40.9956 117.617 41.245 116.575 41.7453C115.533 42.2456 114.706 42.9626 114.094 43.8964C113.483 44.8302 113.118 45.8604 113.002 46.9887C112.886 48.1169 112.828 50.0365 112.828 52.7487V57.3671C112.828 60.1462 112.889 62.0909 113.011 63.2029C113.132 64.3148 113.511 65.3421 114.148 66.2877C114.785 67.2319 115.626 67.9415 116.674 68.4136C117.721 68.8857 118.901 69.1217 120.217 69.1217C121.602 69.1217 122.816 68.8723 123.858 68.372C124.9 67.8717 125.727 67.1547 126.339 66.2209C126.95 65.2872 127.314 64.2569 127.431 63.1286C127.547 62.0004 127.607 60.0809 127.607 57.3686V52.7502ZM105.223 46.5983C105.485 46.8759 105.618 47.4771 105.618 48.399V50.6169C105.618 51.6175 105.503 52.2751 105.276 52.5928C105.049 52.909 104.641 53.0679 104.054 53.0679C103.922 53.0679 103.766 53.062 103.584 53.0516V46.1826C104.414 46.1826 104.958 46.3221 105.223 46.5997V46.5983ZM97.1973 68.5561H103.584V57.6863H105.298C106.694 57.6863 107.825 57.4755 108.689 57.0524C109.555 56.6308 110.148 56.0251 110.472 55.2353C110.796 54.447 110.957 53.1911 110.957 51.4676V49.1175C110.957 47.4281 110.874 46.1811 110.707 45.375C110.54 44.5689 110.221 43.883 109.751 43.3159C109.28 42.7488 108.578 42.3154 107.641 42.0155C106.706 41.7156 105.368 41.5657 103.628 41.5657H97.1958V68.5576L97.1973 68.5561ZM88.1579 46.5819C88.4355 46.8492 88.5751 47.4103 88.5751 48.2654V49.7499C88.5751 50.9391 88.4311 51.6427 88.1431 51.8595C87.8551 52.0762 87.3518 52.1846 86.6333 52.1846V46.1826C87.3711 46.1826 87.8803 46.3162 88.1579 46.5834V46.5819ZM80.2453 68.5561H86.6318V56.3858C87.5121 56.3858 88.0555 56.558 88.2633 56.9025C88.4712 57.2469 88.5736 58.1421 88.5736 59.5865V68.5561H94.5058V61.4377C94.5058 59.2599 94.4524 57.9283 94.347 57.4443C94.2401 56.9604 93.9699 56.4304 93.5349 55.8514C93.1 55.2739 92.2508 54.8122 90.986 54.4678C92.3814 54.3238 93.3167 53.8903 93.7932 53.1674C94.2683 52.4444 94.5058 51.0326 94.5058 48.932C94.5058 46.6309 94.1688 44.9564 93.4963 43.9053C92.8238 42.8543 91.9539 42.2025 90.8865 41.9457C89.8191 41.6904 87.7794 41.5627 84.7643 41.5627H80.2438V68.5546L80.2453 68.5561ZM71.1673 41.5642V61.4541C71.1673 62.7991 71.1095 63.6527 70.9937 64.0134C70.8779 64.3742 70.6166 64.5553 70.2128 64.5553C69.858 64.5553 69.6234 64.392 69.5076 64.0639C69.3918 63.7358 69.3325 62.9831 69.3325 61.8044V41.5642H62.946V57.5364C62.946 60.5812 62.9964 62.5793 63.0974 63.5295C63.1983 64.4796 63.5279 65.3822 64.0831 66.2387C64.6398 67.0953 65.4786 67.7886 66.6009 68.323C67.7232 68.8575 69.0177 69.1232 70.4845 69.1232C71.8087 69.1232 72.9592 68.8976 73.936 68.4477C74.9114 67.9979 75.6982 67.3358 76.295 66.4644C76.8917 65.5915 77.251 64.7423 77.3727 63.914C77.4945 63.0856 77.5553 61.65 77.5553 59.6043V41.5657H71.1673V41.5642ZM55.2471 46.5983C55.5099 46.8759 55.642 47.4771 55.642 48.399V50.6169C55.642 51.6175 55.5277 52.2751 55.3006 52.5928C55.0734 52.909 54.6652 53.0679 54.0788 53.0679C53.9467 53.0679 53.7908 53.062 53.6082 53.0516V46.1826C54.4381 46.1826 54.9829 46.3221 55.2471 46.5997V46.5983ZM47.2217 68.5561H53.6082V57.6863H55.3228C56.7183 57.6863 57.8495 57.4755 58.7135 57.0524C59.579 56.6308 60.1728 56.0251 60.4965 55.2353C60.8201 54.447 60.9819 53.1911 60.9819 51.4676V49.1175C60.9819 47.4281 60.8988 46.1811 60.731 45.375C60.5648 44.5689 60.2456 43.883 59.775 43.3159C59.3044 42.7488 58.6022 42.3154 57.6654 42.0155C56.7302 41.7156 55.3926 41.5657 53.6527 41.5657H47.2202V68.5576L47.2217 68.5561Z" fill="#353D98"/>
<path d="M156 73.4014L155.468 80.7514L154.38 73.4014H151.372L153.186 82.5061C153.323 83.1786 153.391 83.5587 153.391 83.6462C153.391 83.8259 153.317 83.9431 153.17 83.9951C153.022 84.0471 152.691 84.0738 152.175 84.0738V85.8122H154.185C155.104 85.8122 155.772 85.7424 156.191 85.6029C156.61 85.4633 156.936 85.2466 157.171 84.9511C157.405 84.6557 157.575 84.2816 157.676 83.8274C157.777 83.3731 157.903 82.5239 158.053 81.2769L159 73.4014H156.001H156ZM148.21 81.2353C148.21 81.8158 148.185 82.1795 148.133 82.3309C148.081 82.4809 147.949 82.5566 147.735 82.5566C147.521 82.5566 147.374 82.4749 147.309 82.3102C147.244 82.1454 147.211 81.7356 147.211 81.0795V76.568C147.211 75.9385 147.242 75.5421 147.306 75.3788C147.368 75.214 147.509 75.1324 147.729 75.1324C147.949 75.1324 148.09 75.2037 148.139 75.3462C148.188 75.4887 148.213 75.8955 148.213 76.568V81.2353H148.21ZM143.896 73.4014V85.8374H147.21V83.3419C147.499 83.7205 147.82 84.0055 148.169 84.197C148.519 84.3885 148.899 84.485 149.309 84.485C149.822 84.485 150.262 84.3603 150.626 84.1124C150.989 83.863 151.23 83.5304 151.347 83.1118C151.464 82.6932 151.524 81.9895 151.524 80.9993V76.4136C151.524 75.5495 151.478 74.9364 151.384 74.5757C151.291 74.215 151.058 73.8958 150.683 73.6197C150.309 73.3435 149.864 73.2055 149.35 73.2055C148.929 73.2055 148.541 73.302 148.185 73.4935C147.83 73.685 147.504 73.9759 147.208 74.3649L147.266 73.4029H143.895L143.896 73.4014ZM139.996 81.3497C139.996 81.896 139.965 82.2344 139.901 82.3621C139.839 82.4913 139.702 82.5551 139.494 82.5551C139.276 82.5551 139.129 82.4735 139.055 82.3087C138.981 82.1439 138.944 81.7817 138.944 81.2175C138.944 80.7247 138.987 80.3476 139.071 80.0863C139.156 79.8235 139.463 79.4984 139.995 79.1095V81.3482L139.996 81.3497ZM138.947 76.4774C138.947 75.8702 138.973 75.4946 139.028 75.3491C139.083 75.2037 139.223 75.1324 139.447 75.1324C139.644 75.1324 139.784 75.2185 139.87 75.3907C139.955 75.5629 139.998 75.9341 139.998 76.5026C139.998 76.9569 139.959 77.2568 139.883 77.4052C139.806 77.5522 139.224 77.8402 138.136 78.2663C137.119 78.6597 136.482 79.0041 136.225 79.2995C135.969 79.5949 135.84 80.1501 135.84 80.9652V81.8588C135.84 82.9574 136.081 83.67 136.565 83.9951C137.049 84.3202 137.581 84.4835 138.161 84.4835C138.604 84.4835 138.985 84.3855 139.306 84.1926C139.625 83.9981 139.886 83.7071 140.09 83.3167V84.2861H143.313V78.823C143.313 77.0237 143.255 75.8361 143.14 75.2586C143.026 74.6811 142.683 74.1957 142.115 73.7993C141.546 73.4029 140.701 73.204 139.581 73.204C138.645 73.204 137.885 73.3792 137.3 73.7295C136.715 74.0799 136.325 74.4822 136.132 74.9394C135.937 75.3966 135.841 76.0454 135.841 76.8871V77.6175H138.95V76.4774H138.947ZM130.526 73.4014V84.2861H133.84V79.9883C133.84 78.9328 133.872 78.2588 133.938 77.9664C134.003 77.6739 134.178 77.4453 134.463 77.282C134.748 77.1187 135.194 77.0356 135.801 77.0356V73.2055C134.888 73.2663 134.19 73.8082 133.709 74.834L133.84 73.4029H130.526V73.4014ZM125.708 77.2642V76.4685C125.708 75.8568 125.734 75.4798 125.789 75.3402C125.844 75.2007 125.987 75.1309 126.215 75.1309C126.401 75.1309 126.524 75.2126 126.585 75.3773C126.646 75.5406 126.675 75.9044 126.675 76.4685V77.2642H125.708ZM129.998 77.5923C129.998 76.5368 129.876 75.7188 129.633 75.1354C129.389 74.5534 128.966 74.0858 128.362 73.7325C127.758 73.3792 126.99 73.204 126.061 73.204C125.301 73.204 124.628 73.3509 124.043 73.6434C123.458 73.9359 123.037 74.3575 122.78 74.9067C122.523 75.456 122.394 76.2072 122.394 77.1588V80.3327C122.394 81.1418 122.452 81.7594 122.566 82.1825C122.681 82.6071 122.887 82.9945 123.185 83.3478C123.484 83.7012 123.901 83.9788 124.437 84.1807C124.973 84.3826 125.59 84.4835 126.291 84.4835C126.992 84.4835 127.612 84.3811 128.092 84.1762C128.57 83.9714 128.965 83.6641 129.276 83.2528C129.588 82.8416 129.786 82.4571 129.872 82.0964C129.956 81.7356 129.999 81.219 129.999 80.5465V79.7419H126.858V81.1774C126.858 81.7193 126.815 82.0845 126.73 82.273C126.646 82.4616 126.477 82.5566 126.226 82.5566C126.024 82.5566 125.887 82.4853 125.816 82.3428C125.745 82.2003 125.709 81.8841 125.709 81.3912V79.0367H129.999V77.5938L129.998 77.5923ZM114.245 71.0069V84.2876H117.559V76.519C117.559 75.9667 117.595 75.5971 117.666 75.4115C117.737 75.2259 117.874 75.1324 118.075 75.1324C118.294 75.1324 118.435 75.223 118.499 75.4026C118.561 75.5837 118.592 75.9905 118.592 76.6244V84.2861H121.906V76.7802C121.906 75.7574 121.861 75.0537 121.771 74.6677C121.68 74.2818 121.432 73.9418 121.024 73.6464C120.616 73.3509 120.123 73.204 119.544 73.204C119.167 73.204 118.812 73.2693 118.481 73.4014C118.15 73.5335 117.842 73.731 117.557 73.9938V71.0054H114.244L114.245 71.0069ZM106.564 71.0069V73.6642H108.607V84.2861H112.06V73.6642H114.11V71.0069H106.564ZM103.916 75.1398C103.714 74.5816 103.306 74.1199 102.694 73.7533C102.081 73.3866 101.343 73.204 100.479 73.204C99.6152 73.204 98.8715 73.3881 98.2643 73.7577C97.6571 74.1274 97.2607 74.546 97.0752 75.0166C96.8896 75.4872 96.7961 76.1849 96.7961 77.1083V80.2006C96.7961 81.2621 96.9089 82.08 97.136 82.6575C97.3632 83.235 97.7492 83.6833 98.297 84.0025C98.8448 84.3217 99.5841 84.482 100.519 84.482C101.253 84.482 101.867 84.3662 102.365 84.1332C102.862 83.9001 103.266 83.5557 103.575 83.0999C103.883 82.6427 104.066 82.1973 104.124 81.7624C104.182 81.3274 104.213 80.6757 104.219 79.8057H101.266V81.1017C101.266 81.6644 101.226 82.0474 101.147 82.2508C101.069 82.4527 100.916 82.5536 100.692 82.5536C100.5 82.5536 100.355 82.4571 100.257 82.2626C100.159 82.0682 100.108 81.7772 100.108 81.3897V76.2547C100.108 75.7782 100.141 75.4724 100.206 75.3358C100.271 75.1992 100.401 75.1309 100.592 75.1309C100.784 75.1309 100.914 75.2096 100.985 75.3655C101.057 75.5213 101.092 75.8183 101.092 76.2562V77.5106H104.217C104.217 76.4878 104.116 75.698 103.914 75.1398H103.916ZM92.8472 73.4014V84.2861H96.2602V73.4014H92.8472ZM92.8472 71.0069V72.7378H96.2602V71.0069H92.8472ZM87.3885 73.4014V84.2861H90.702V79.9883C90.702 78.9328 90.7347 78.2588 90.8 77.9664C90.8653 77.6739 91.0405 77.4453 91.3256 77.282C91.6106 77.1187 92.0559 77.0356 92.6631 77.0356V73.2055C91.7501 73.2663 91.0524 73.8082 90.5714 74.834L90.702 73.4029H87.3885V73.4014ZM82.9973 71.9495V73.6642H82.2832V75.3863H82.9973V80.9147C82.9973 81.9969 83.027 82.6857 83.0878 82.9782C83.1487 83.2707 83.3016 83.5304 83.5466 83.7576C83.793 83.9847 84.0765 84.1287 84.4002 84.1926C84.7223 84.2549 85.2612 84.2876 86.0168 84.2876H87.3544V82.5328C86.8125 82.5328 86.5053 82.4913 86.431 82.4096C86.3568 82.328 86.3197 81.9286 86.3197 81.2116V75.3877H87.2134V73.6657H86.3197V71.951H82.9973V71.9495ZM78.9252 81.3497C78.9252 81.896 78.894 82.2344 78.8302 82.3621C78.7678 82.4913 78.6312 82.5551 78.4234 82.5551C78.2052 82.5551 78.0582 82.4735 77.984 82.3087C77.9098 82.1439 77.8726 81.7817 77.8726 81.2175C77.8726 80.7247 77.9157 80.3476 78.0003 80.0863C78.0849 79.8235 78.3922 79.4984 78.9237 79.1095V81.3482L78.9252 81.3497ZM77.8756 76.4774C77.8756 75.8702 77.9023 75.4946 77.9573 75.3491C78.0122 75.2037 78.1517 75.1324 78.3759 75.1324C78.5733 75.1324 78.7129 75.2185 78.799 75.3907C78.8836 75.5629 78.9267 75.9341 78.9267 76.5026C78.9267 76.9569 78.8881 77.2568 78.8124 77.4052C78.7352 77.5522 78.1532 77.8402 77.0651 78.2663C76.0481 78.6597 75.4113 79.0041 75.1544 79.2995C74.8976 79.5949 74.7685 80.1501 74.7685 80.9652V81.8588C74.7685 82.9574 75.0105 83.67 75.4944 83.9951C75.9784 84.3202 76.5098 84.4835 77.0903 84.4835C77.5327 84.4835 77.9142 84.3855 78.2349 84.1926C78.554 83.9981 78.8153 83.7071 79.0187 83.3167V84.2861H82.2416V78.823C82.2416 77.0237 82.1838 75.8361 82.0694 75.2586C81.9551 74.6811 81.6122 74.1957 81.0436 73.7993C80.475 73.4029 79.6303 73.204 78.5095 73.204C77.5742 73.204 76.8142 73.3792 76.2293 73.7295C75.6443 74.0799 75.2539 74.4822 75.0609 74.9394C74.8664 75.3966 74.77 76.0454 74.77 76.8871V77.6175H77.8786V76.4774H77.8756ZM70.8671 73.4014V84.2861H74.2801V73.4014H70.8671ZM70.8671 71.0069V72.7378H74.2801V71.0069H70.8671ZM66.9182 81.1774C66.9182 81.7846 66.8826 82.1662 66.8113 82.322C66.7401 82.4779 66.5976 82.5566 66.3853 82.5566C66.1997 82.5566 66.0735 82.4868 66.0082 82.3473C65.9429 82.2077 65.9102 81.9168 65.9102 81.4744V76.1419C65.9102 75.7158 65.9444 75.4412 66.0126 75.318C66.0809 75.1947 66.2131 75.1339 66.4105 75.1339C66.6079 75.1339 66.7475 75.2022 66.8158 75.3387C66.8841 75.4753 66.9182 75.744 66.9182 76.1434V81.1804V81.1774ZM66.9182 71.0069V74.0932C66.6391 73.7978 66.3289 73.5751 65.9874 73.4267C65.646 73.2782 65.2704 73.204 64.8592 73.204C64.3292 73.204 63.8719 73.3361 63.4889 73.6018C63.1059 73.8676 62.861 74.1749 62.7541 74.5252C62.6472 74.8756 62.5938 75.4679 62.5938 76.3052V81.3986C62.5938 82.2033 62.6472 82.7822 62.7541 83.137C62.861 83.4919 63.1029 83.8051 63.48 84.0768C63.8571 84.3469 64.3025 84.4835 64.8176 84.4835C65.2006 84.4835 65.5673 84.4019 65.9161 84.2371C66.2665 84.0723 66.599 83.8259 66.9167 83.4978V84.2876H70.2302V71.0069H66.9167H66.9182ZM57.8744 77.2642V76.4685C57.8744 75.8568 57.9011 75.4798 57.956 75.3402C58.011 75.2007 58.1535 75.1309 58.3821 75.1309C58.5677 75.1309 58.6909 75.2126 58.7518 75.3773C58.8126 75.5406 58.8423 75.9044 58.8423 76.4685V77.2642H57.8744ZM62.1647 77.5923C62.1647 76.5368 62.043 75.7188 61.7995 75.1354C61.5561 74.5534 61.133 74.0858 60.5288 73.7325C59.9245 73.3792 59.157 73.204 58.2277 73.204C57.4676 73.204 56.7951 73.3509 56.2102 73.6434C55.6253 73.9359 55.2037 74.3575 54.9469 74.9067C54.6901 75.456 54.5609 76.2072 54.5609 77.1588V80.3327C54.5609 81.1418 54.6188 81.7594 54.7331 82.1825C54.8474 82.6071 55.0538 82.9945 55.3522 83.3478C55.6505 83.7012 56.0677 83.9788 56.6036 84.1807C57.1395 84.3826 57.7571 84.4835 58.4578 84.4835C59.1585 84.4835 59.7791 84.3811 60.2586 84.1762C60.7366 83.9714 61.1315 83.6641 61.4432 83.2528C61.755 82.8416 61.9524 82.4571 62.0385 82.0964C62.1231 81.7356 62.1662 81.219 62.1662 80.5465V79.7419H59.0249V81.1774C59.0249 81.7193 58.9819 82.0845 58.8972 82.273C58.8126 82.4616 58.6434 82.5566 58.3925 82.5566C58.1906 82.5566 58.054 82.4853 57.9828 82.3428C57.9115 82.2003 57.8759 81.8841 57.8759 81.3912V79.0367H62.1662V77.5938L62.1647 77.5923ZM51.2192 73.4831C51.3617 73.6196 51.433 73.9151 51.433 74.3693V75.4605C51.433 75.9533 51.3721 76.277 51.2489 76.4329C51.1257 76.5887 50.906 76.6674 50.5883 76.6674C50.517 76.6674 50.4324 76.6644 50.3344 76.6585V73.2797C50.7827 73.2797 51.0782 73.348 51.2207 73.4846L51.2192 73.4831ZM46.8799 84.2861H50.3329V78.9373H51.2593C52.0134 78.9373 52.6251 78.8334 53.0927 78.6255C53.5603 78.4177 53.881 78.1193 54.0562 77.7318C54.2313 77.3429 54.3189 76.7253 54.3189 75.8776V74.7212C54.3189 73.8898 54.2744 73.2767 54.1838 72.8803C54.0933 72.484 53.9211 72.1455 53.6672 71.8679C53.4133 71.5903 53.0333 71.375 52.5271 71.2281C52.0208 71.0796 51.2979 71.0069 50.3582 71.0069H46.8799V84.2876V84.2861Z" fill="#DF4434"/>
<path d="M141.693 35.0186C141.693 35.556 141.662 35.8871 141.601 36.0132C141.539 36.1394 141.407 36.2033 141.202 36.2033C140.987 36.2033 140.843 36.1231 140.771 35.9613C140.699 35.7995 140.663 35.4432 140.663 34.8894C140.663 34.4055 140.705 34.0358 140.788 33.7775C140.871 33.5192 141.174 33.2 141.695 32.8185V35.0186H141.693ZM140.662 30.2324C140.662 29.6357 140.688 29.2675 140.742 29.125C140.795 28.9825 140.932 28.9112 141.153 28.9112C141.346 28.9112 141.484 28.9958 141.567 29.1651C141.65 29.3343 141.692 29.698 141.692 30.2562C141.692 30.7016 141.655 30.997 141.579 31.1425C141.503 31.2879 140.932 31.57 139.863 31.9886C138.864 32.3761 138.237 32.7131 137.985 33.0041C137.733 33.2936 137.606 33.8399 137.606 34.64V35.5189C137.606 36.5981 137.844 37.2989 138.319 37.618C138.794 37.9372 139.317 38.0975 139.887 38.0975C140.322 38.0975 140.696 38.0025 141.01 37.811C141.325 37.6195 141.581 37.333 141.779 36.9515V37.9045H144.946V32.5379C144.946 30.7713 144.89 29.603 144.777 29.0374C144.664 28.4703 144.328 27.9923 143.769 27.6033C143.211 27.2144 142.381 27.0184 141.279 27.0184C140.36 27.0184 139.614 27.1906 139.039 27.5335C138.465 27.878 138.081 28.2728 137.89 28.7227C137.7 29.171 137.603 29.8093 137.603 30.6362V31.3533H140.657V30.2339L140.662 30.2324ZM127.123 24.8584V37.9045H130.378V30.274C130.378 29.7321 130.414 29.3684 130.484 29.1858C130.553 29.0032 130.688 28.9112 130.886 28.9112C131.101 28.9112 131.239 29.0003 131.3 29.1769C131.362 29.3536 131.392 29.7544 131.392 30.3779V37.9045H134.648V30.5323C134.648 29.5273 134.603 28.8355 134.514 28.4569C134.425 28.0784 134.182 27.7443 133.781 27.4534C133.38 27.1639 132.896 27.0184 132.326 27.0184C131.955 27.0184 131.607 27.0837 131.282 27.2129C130.957 27.342 130.656 27.5365 130.375 27.7948V24.8599H127.12L127.123 24.8584ZM122.725 25.7848V27.4682H122.025V29.1606H122.725V34.591C122.725 35.654 122.755 36.3309 122.814 36.6174C122.874 36.9054 123.024 37.1608 123.266 37.3835C123.508 37.6062 123.787 37.7487 124.103 37.811C124.419 37.8734 124.949 37.9031 125.69 37.9031H127.004V36.178C126.472 36.178 126.17 36.1379 126.097 36.0578C126.024 35.9776 125.988 35.5857 125.988 34.882V29.1606H126.867V27.4682H125.988V25.7848H122.725ZM118.499 27.2114V37.9045H121.851V27.2114H118.499ZM118.499 24.8584V26.5582H121.851V24.8584H118.499ZM115.634 27.2114C115.24 29.5065 114.991 31.5477 114.887 33.3351L114.228 27.2114H111.532C111.081 30.902 110.837 32.9447 110.8 33.3351C110.347 29.5317 110.11 27.4905 110.089 27.2114H107.283L108.662 37.9045H112.203L112.561 35.5842C112.717 34.6282 112.838 33.6795 112.926 32.7398C113.183 34.8776 113.408 36.5981 113.601 37.9045H117.135L118.434 27.2114H115.631H115.634Z" fill="#DF4434"/>
</svg>
