<svg width="162" height="86" viewBox="0 0 162 86" fill="none" xmlns="http://www.w3.org/2000/svg">
<path d="M8.35687 82.5924C7.01485 82.5924 5.04338 81.9971 3.90622 80.3181L3.8691 80.2617L3.8498 80.1964C3.19215 78.0215 2.46621 76.3069 1.69425 75.097C1.55767 74.8981 1.36617 74.6754 1.16279 74.4393C0.451691 73.6139 -0.522168 72.4842 0.335896 71.1793C1.07668 70.1208 2.70522 69.8877 3.48758 69.7764C3.55735 69.766 3.63752 69.7556 3.6969 69.7452C4.05616 69.4008 4.69451 68.3824 5.42639 67.2141C7.58194 63.7759 10.8182 58.6127 14.8577 56.9485C15.1858 55.2843 15.597 53.6112 15.9948 51.9916C16.5278 49.8271 17.0771 47.5884 17.4289 45.3676C17.4423 45.1983 17.3576 45.0618 17.1958 44.8183C17.1112 44.6906 17.0147 44.5466 16.9345 44.3789C16.0201 42.495 16.1017 39.9342 17.1379 38.0087L17.1498 37.9894C17.1602 37.9716 17.1706 37.9553 17.1825 37.9389L17.1513 37.9107C16.6347 37.4164 16.3333 36.7869 16.0409 36.1783C15.8493 35.7804 15.6697 35.4033 15.4337 35.0604C14.7211 34.1474 13.9269 33.2359 13.1594 32.3541C11.4952 30.445 9.77609 28.469 8.60034 26.1962C8.23514 25.5653 7.96347 24.8096 8.69089 23.9783L8.70722 23.9605L8.72504 23.9442C10.4367 22.3616 12.0682 21.0849 13.575 20.1467C16.9405 17.5918 21.0081 14.8573 25.7468 13.8226C25.7869 13.2451 25.5004 12.583 25.0149 12.1955L24.9689 12.1584L24.9347 12.1109C23.9935 10.8342 23.1904 8.63112 23.5185 6.58839C23.664 5.68134 24.0292 4.91086 24.5844 4.3215C24.338 4.27845 24.0856 4.2057 23.9386 3.98154C23.8451 3.83902 23.8184 3.66385 23.8644 3.48867L23.8807 3.42929L23.9119 3.37585C24.1761 2.929 24.9422 2.65584 26.1714 2.34854C26.1565 2.32331 26.1417 2.29807 26.1298 2.27729C25.9531 1.98038 25.7512 1.64487 25.9234 1.30046L25.9992 1.14755L26.158 1.0852C26.5336 0.936745 26.9478 0.864003 27.4243 0.864003C28.1874 0.864003 28.9727 1.05551 29.712 1.25147C29.804 1.27671 29.8842 1.30937 29.9584 1.34054C29.948 0.767508 30.0059 0.142516 30.5211 0.0133609L30.5745 0H30.6383C30.9026 0 31.1624 0.173691 32.4866 1.24701C32.644 1.37469 32.8191 1.5172 32.972 1.63893C33.0092 1.40734 33.0344 1.26334 33.1264 1.14161L33.1591 1.09856L33.2007 1.06442C33.3565 0.936745 33.5377 0.868457 33.7262 0.868457C34.3319 0.868457 34.7624 1.54244 34.994 1.90467L35.0222 1.94772L35.0341 1.97147C35.1959 2.30549 35.3206 2.67069 35.4408 3.02253C35.4883 3.16207 35.5344 3.29568 35.5819 3.42632L35.5893 3.42335C35.7407 3.3803 35.9114 3.33131 36.0926 3.33131C36.3969 3.33131 36.578 3.47234 36.676 3.58962L36.7443 3.67127L36.768 3.7737C36.8452 4.10624 36.6953 4.60208 36.3702 5.46014C36.3405 5.53882 36.3063 5.63086 36.2841 5.69025C36.3152 5.89957 36.3909 6.15639 36.4711 6.42658C36.7086 7.23268 37.0026 8.23326 36.4102 8.98444C36.2573 9.37785 36.2989 10.3562 36.4934 10.7911C36.5053 10.8164 36.5275 10.8639 36.5587 10.9262C37.3277 12.4909 37.7048 13.6251 37.0501 14.072C36.912 14.167 36.7487 14.1789 36.6062 14.1789C36.532 14.1789 36.4459 14.1744 36.3553 14.1699C36.2662 14.1655 36.1712 14.161 36.0777 14.161C36.0079 14.161 35.956 14.164 35.9189 14.1685C35.2582 16.3285 34.5828 17.4241 33.9073 17.4241C33.891 17.4241 33.8761 17.4241 33.8598 17.4226C33.8286 17.4211 33.7722 17.4152 33.6995 17.4092C33.407 17.384 32.7969 17.3305 32.3352 17.3305C32.2624 17.3305 32.2016 17.3305 32.1496 17.3335V18.1426C32.2001 18.2881 32.3708 18.7126 32.4673 18.9502C32.5519 19.161 32.6261 19.3436 32.6529 19.4178C33.8613 22.7565 33.5584 25.8904 33.0359 29.6403C33.0344 29.6552 33.0314 29.6715 33.0285 29.6864C33.122 29.6418 33.217 29.5973 33.312 29.5528C34.7683 28.8669 36.2737 28.1588 37.638 27.2829C37.6721 27.1419 37.7077 26.8553 37.73 26.6727C37.7701 26.3447 37.8087 26.0329 37.8814 25.8251C37.9824 25.5371 38.4975 24.7681 38.931 24.6345C39.0913 24.5855 39.2754 24.5617 39.5085 24.5617C39.7119 24.5617 39.9242 24.5795 40.129 24.5974C40.319 24.6137 40.4987 24.6285 40.6545 24.6285C40.7347 24.6285 40.8015 24.6241 40.8564 24.6167L40.9114 24.6092L40.9663 24.6152C41.6269 24.679 42.5295 24.7666 42.9467 25.8429L42.9615 25.883L42.9689 25.9245C43.1115 26.7143 43.3594 28.6695 42.5741 29.7814C42.2712 30.2089 41.8555 30.4687 41.3374 30.5533L41.3137 30.5563C41.232 30.5652 41.1519 30.5726 41.0717 30.5801C40.6857 30.6157 40.3502 30.6483 40.0489 30.8146C37.4672 33.5016 35.4483 34.3701 32.402 35.6809C32.1437 35.7923 31.8794 35.9066 31.6048 36.0254C31.3272 37.2872 30.9412 38.5342 30.5686 39.7441C30.4884 40.0024 30.4082 40.2622 30.3296 40.5191C30.2806 40.672 30.2093 40.8353 30.1336 41.0075C30.0371 41.2257 29.8887 41.5672 29.859 41.7735C30.7378 42.6345 31.9254 43.7257 33.1799 44.8777C34.7713 46.34 36.4162 47.8512 37.4836 48.9483C39.1819 50.4714 40.3042 51.4824 41.2602 53.8027L41.2736 53.8354L41.281 53.8695C41.7858 56.0147 39.9093 58.8131 38.254 61.2819C37.629 62.2141 37.0397 63.093 36.67 63.813L36.6626 63.8278L36.6537 63.8427C35.5136 65.6924 34.5353 67.3328 33.6624 68.8604C33.1309 69.7912 33.2883 70.6478 33.7663 71.9037C34.7713 74.5462 35.9456 75.6582 36.722 76.393C37.2119 76.8562 37.5667 77.1917 37.6127 77.689C37.6528 78.124 37.5281 78.5144 37.2535 78.8202C36.6433 79.4972 35.4973 79.5298 35.3681 79.5313H35.3458C34.3883 79.5313 33.2957 78.8217 32.4985 78.3036C32.2624 78.1507 32.0591 78.0186 31.8972 77.928L31.8126 77.882C28.8614 76.298 24.0678 73.2517 25.1188 70.6552C25.3504 70.0822 26.0496 69.5196 26.7266 68.9747C27.0027 68.7521 27.264 68.5413 27.4362 68.372C28.8079 67.0196 29.1404 65.6464 29.5606 63.9065C29.6511 63.5324 29.7447 63.145 29.853 62.7426C30.3266 60.838 31.1832 58.96 32.013 57.1459C32.3099 56.4942 32.5935 55.8752 32.8577 55.2576C32.7761 55.2338 32.684 55.2056 32.595 55.1581L32.5445 55.1314C30.6294 54.1368 28.6505 53.1095 26.7296 52.0257C26.7117 52.0525 26.6939 52.0777 26.6761 52.1044C25.7408 53.5296 24.8724 55.0646 24.0321 56.5506C23.3507 57.7546 22.6471 58.9986 21.9063 60.1877C20.8909 61.8207 19.8012 62.4324 18.5393 63.139C18.2023 63.3275 17.855 63.522 17.4823 63.7506C16.1314 64.5731 10.8613 70.6345 9.08727 72.8687L9.0457 72.9221L8.98929 72.9607C8.50978 73.2888 8.52462 73.7015 8.59291 74.4646C8.60627 74.6115 8.61963 74.76 8.62706 74.9099V74.9337C8.62706 75.3212 8.60776 75.7264 8.58846 76.1169C8.55877 76.7047 8.52908 77.3119 8.56619 77.8642C8.58994 78.2219 8.87201 78.4669 9.1704 78.7252C9.28026 78.8202 9.39457 78.9197 9.49403 79.0251C10.75 80.1652 10.7856 80.9995 10.5941 81.4983C10.3313 82.1812 9.49551 82.5895 8.35836 82.5895L8.35687 82.5924ZM19.5488 24.155C18.952 24.4964 18.042 25.0056 17.1528 25.5014C16.2116 26.027 15.3238 26.5243 15.1279 26.6445C15.07 26.6802 15.0284 26.7277 15.0165 26.842C14.8918 27.9509 17.4244 31.0744 19.6067 33.3472C19.626 30.0664 19.6216 25.7419 19.5488 24.155Z" fill="#00984F"/>
<path d="M105.072 37.0423H116.147V31.6401H111.458V25.7049H115.449V20.5698H111.458V15.4512H115.722V10.0489H105.072V37.0408V37.0423ZM97.5067 10.0504L97.0628 15.0696C96.6917 19.1031 96.3413 23.7215 96.0117 28.9234C95.6777 23.7765 95.118 17.4865 94.3357 10.0504H87.5988L91.2894 37.0423H100.992L104.244 10.0504H97.5067ZM80.5354 29.3895C80.5354 30.9795 80.4745 31.9845 80.3528 32.4076C80.2311 32.8307 79.9535 33.0415 79.5185 33.0415C79.0835 33.0415 78.8222 32.8574 78.7064 32.4907C78.5906 32.124 78.5313 31.1576 78.5313 29.5899V16.9862C78.5313 15.5966 78.6203 14.7608 78.797 14.4773C78.9737 14.1937 79.229 14.0527 79.563 14.0527C79.9579 14.0527 80.2177 14.2279 80.3439 14.5782C80.4701 14.9286 80.5339 15.7317 80.5339 16.9877V29.391L80.5354 29.3895ZM86.9234 21.2364C86.9234 18.4573 86.8625 16.5126 86.7408 15.4007C86.619 14.2888 86.2405 13.2615 85.6021 12.3158C84.9653 11.3716 84.1235 10.662 83.0754 10.1899C82.0288 9.71785 80.8472 9.48181 79.5333 9.48181C78.1483 9.48181 76.9339 9.73121 75.8918 10.2315C74.8496 10.7318 74.0227 11.4488 73.4111 12.3826C72.7995 13.3164 72.4343 14.3467 72.3185 15.4749C72.2027 16.6032 72.1448 18.5227 72.1448 21.2349V25.8533C72.1448 28.6324 72.2056 30.5771 72.3274 31.6891C72.4491 32.801 72.8277 33.8283 73.4645 34.7739C74.1014 35.7181 74.9431 36.4277 75.9912 36.8998C77.0378 37.3719 78.218 37.6079 79.5333 37.6079C80.9184 37.6079 82.1328 37.3585 83.1749 36.8582C84.2171 36.3579 85.0439 35.6409 85.6556 34.7071C86.2672 33.7734 86.6309 32.7431 86.7482 31.6148C86.864 30.4866 86.9234 28.5671 86.9234 25.8548V21.2364ZM61.7025 10.0504L60.2343 22.6541L59.3272 15.7881C59.0674 13.5851 58.8136 11.673 58.5686 10.0504H50.3042V37.0423H55.8876L55.895 19.2367L58.2391 37.0423H62.1983L64.4207 18.8196L64.4281 37.0423H70.0115V10.0504H61.701H61.7025Z" fill="#353D98"/>
<path d="M149.276 67.7648H160.35V62.3626H155.662V56.4274H159.653V51.2924H155.662V46.1737H159.926V40.7714H149.276V67.7633V67.7648ZM146.525 47.8764C146.525 45.7313 146.335 44.2111 145.956 43.3159C145.578 42.4207 144.803 41.68 143.634 41.0906C142.466 40.5012 141.053 40.2073 139.395 40.2073C137.877 40.2073 136.583 40.4775 135.511 41.0164C134.439 41.5553 133.663 42.3035 133.182 43.258C132.701 44.2141 132.462 45.7253 132.462 47.7933C132.462 49.2274 132.631 50.4061 132.969 51.328C133.308 52.2514 133.735 52.9729 134.252 53.4954C134.767 54.018 135.82 54.8567 137.408 56.0132C138.997 57.1578 139.993 57.9743 140.397 58.4642C140.791 58.9541 140.989 59.9918 140.989 61.5817C140.989 62.3047 140.885 62.8495 140.679 63.2162C140.471 63.5829 140.155 63.767 139.73 63.767C139.305 63.767 139.01 63.623 138.842 63.3335C138.676 63.044 138.591 62.3938 138.591 61.3828V58.099H132.659V59.8656C132.659 61.889 132.846 63.4508 133.22 64.5508C133.594 65.6508 134.386 66.5579 135.594 67.269C136.803 67.9801 138.262 68.3364 139.971 68.3364C141.528 68.3364 142.894 68.0276 144.066 67.4115C145.239 66.7939 146.03 66.0309 146.44 65.1194C146.85 64.2079 147.055 62.7916 147.055 60.8677C147.055 58.2222 146.685 56.3057 145.947 55.1151C145.209 53.9259 143.418 52.4043 140.575 50.5501C139.583 49.9058 138.982 49.3565 138.77 48.8993C138.548 48.4435 138.437 47.7651 138.437 46.864C138.437 46.1633 138.535 45.6407 138.732 45.2963C138.93 44.9519 139.221 44.7797 139.605 44.7797C139.959 44.7797 140.213 44.9073 140.364 45.1627C140.515 45.418 140.591 46.0133 140.591 46.9471V48.9483H146.523V47.8809L146.525 47.8764ZM124.004 60.1135C124.004 61.7034 123.943 62.7085 123.822 63.1316C123.7 63.5547 123.422 63.7655 122.987 63.7655C122.552 63.7655 122.291 63.5814 122.175 63.2147C122.06 62.848 122 61.8816 122 60.3139V47.7102C122 46.3206 122.089 45.4848 122.266 45.2013C122.443 44.9177 122.698 44.7767 123.032 44.7767C123.427 44.7767 123.687 44.9519 123.813 45.3022C123.939 45.6526 124.003 46.4557 124.003 47.7116V60.115L124.004 60.1135ZM130.392 51.9604C130.392 49.1813 130.331 47.2366 130.21 46.1247C130.088 45.0128 129.709 43.9855 129.071 43.0398C128.434 42.0956 127.592 41.386 126.544 40.9139C125.498 40.4419 124.316 40.2058 123.002 40.2058C121.617 40.2058 120.403 40.4552 119.361 40.9555C118.319 41.4558 117.492 42.1728 116.88 43.1066C116.268 44.0404 115.903 45.0707 115.787 46.1989C115.672 47.3272 115.614 49.2467 115.614 51.9589V56.5773C115.614 59.3564 115.675 61.3011 115.796 62.4131C115.918 63.525 116.297 64.5523 116.933 65.4979C117.57 66.4421 118.412 67.1517 119.46 67.6238C120.507 68.0959 121.687 68.3319 123.002 68.3319C124.387 68.3319 125.602 68.0825 126.644 67.5822C127.686 67.0819 128.513 66.3649 129.124 65.4311C129.736 64.4974 130.1 63.4671 130.217 62.3388C130.333 61.2106 130.392 59.2911 130.392 56.5788V51.9604ZM108.008 45.8085C108.271 46.0861 108.403 46.6873 108.403 47.6092V49.8271C108.403 50.8277 108.289 51.4854 108.062 51.803C107.835 52.1193 107.426 52.2781 106.84 52.2781C106.708 52.2781 106.552 52.2722 106.369 52.2618V45.3928C107.199 45.3928 107.744 45.5323 108.008 45.81V45.8085ZM99.9829 67.7648H106.369V56.895H108.084C109.48 56.895 110.611 56.6842 111.475 56.2611C112.34 55.8395 112.934 55.2338 113.258 54.444C113.581 53.6558 113.743 52.3998 113.743 50.6763V48.3262C113.743 46.6368 113.66 45.3898 113.492 44.5837C113.326 43.7776 113.007 43.0918 112.536 42.5247C112.066 41.9576 111.363 41.5241 110.427 41.2242C109.491 40.9243 108.154 40.7744 106.414 40.7744H99.9814V67.7663L99.9829 67.7648ZM90.9436 45.7921C91.2212 46.0594 91.3607 46.6205 91.3607 47.4756V48.9601C91.3607 50.1493 91.2167 50.8529 90.9287 51.0697C90.6407 51.2864 90.1375 51.3948 89.4189 51.3948V45.3928C90.1568 45.3928 90.6659 45.5264 90.9436 45.7936V45.7921ZM83.031 67.7648H89.4175V55.5946C90.2978 55.5946 90.8411 55.7668 91.049 56.1112C91.2568 56.4556 91.3592 57.3508 91.3592 58.7952V67.7648H97.2915V60.6465C97.2915 58.4686 97.238 57.137 97.1326 56.653C97.0257 56.1691 96.7555 55.6391 96.3206 55.0601C95.8856 54.4826 95.0364 54.0209 93.7716 53.6765C95.1671 53.5325 96.1023 53.099 96.5789 52.3761C97.0539 51.6531 97.2915 50.2413 97.2915 48.1407C97.2915 45.8396 96.9545 44.1651 96.282 43.114C95.6095 42.063 94.7395 41.4113 93.6721 41.1544C92.6048 40.8991 90.565 40.7714 87.5499 40.7714H83.0295V67.7633L83.031 67.7648ZM73.953 40.7729V60.6628C73.953 62.0078 73.8951 62.8614 73.7793 63.2221C73.6635 63.5829 73.4022 63.764 72.9984 63.764C72.6436 63.764 72.4091 63.6007 72.2933 63.2726C72.1775 62.9445 72.1181 62.1919 72.1181 61.0131V40.7729H65.7316V56.7451C65.7316 59.7899 65.7821 61.7881 65.883 62.7382C65.984 63.6883 66.3135 64.5909 66.8688 65.4475C67.4255 66.304 68.2642 66.9973 69.3865 67.5318C70.5089 68.0662 71.8034 68.3319 73.2701 68.3319C74.5943 68.3319 75.7448 68.1063 76.7217 67.6565C77.697 67.2066 78.4838 66.5445 79.0806 65.6731C79.6774 64.8002 80.0366 63.951 80.1584 63.1227C80.2801 62.2943 80.341 60.8587 80.341 58.813V40.7744H73.953V40.7729ZM58.0343 45.8085C58.297 46.0861 58.4291 46.6873 58.4291 47.6092V49.8271C58.4291 50.8277 58.3148 51.4854 58.0877 51.803C57.8606 52.1193 57.4523 52.2781 56.8659 52.2781C56.7338 52.2781 56.5779 52.2722 56.3953 52.2618V45.3928C57.2252 45.3928 57.77 45.5323 58.0343 45.81V45.8085ZM50.0073 67.7648H56.3938V56.895H58.1085C59.504 56.895 60.6352 56.6842 61.4992 56.2611C62.3647 55.8395 62.9585 55.2338 63.2821 54.444C63.6057 53.6558 63.7676 52.3998 63.7676 50.6763V48.3262C63.7676 46.6368 63.6844 45.3898 63.5167 44.5837C63.3504 43.7776 63.0312 43.0918 62.5606 42.5247C62.09 41.9576 61.3878 41.5241 60.4511 41.2242C59.5158 40.9243 58.1783 40.7744 56.4384 40.7744H50.0059V67.7663L50.0073 67.7648Z" fill="#353D98"/>
<path d="M158.787 72.6119L158.255 79.9619L157.167 72.6119H154.159L155.974 81.7166C156.11 82.3891 156.178 82.7691 156.178 82.8567C156.178 83.0363 156.104 83.1536 155.957 83.2056C155.809 83.2575 155.478 83.2843 154.963 83.2843V85.0227H156.973C157.892 85.0227 158.56 84.9529 158.978 84.8133C159.397 84.6738 159.723 84.457 159.958 84.1616C160.193 83.8662 160.362 83.4921 160.463 83.0378C160.564 82.5836 160.69 81.7344 160.84 80.4874L161.787 72.6119H158.788H158.787ZM150.996 80.4443C150.996 81.0248 150.971 81.3885 150.919 81.5399C150.867 81.6899 150.735 81.7656 150.521 81.7656C150.307 81.7656 150.16 81.6839 150.095 81.5191C150.029 81.3544 149.997 80.9446 149.997 80.2885V75.7769C149.997 75.1475 150.028 74.7511 150.092 74.5878C150.154 74.423 150.295 74.3414 150.515 74.3414C150.735 74.3414 150.876 74.4126 150.925 74.5552C150.974 74.6977 150.999 75.1044 150.999 75.7769V80.4443H150.996ZM146.682 72.6119V85.0479H149.995V82.5524C150.285 82.9309 150.605 83.216 150.954 83.4075C151.305 83.599 151.685 83.6955 152.094 83.6955C152.608 83.6955 153.047 83.5708 153.411 83.3229C153.775 83.0735 154.015 82.7409 154.133 82.3223C154.25 81.9036 154.309 81.2 154.309 80.2098V75.624C154.309 74.76 154.263 74.1469 154.17 73.7862C154.076 73.4254 153.843 73.1062 153.469 72.8301C153.095 72.554 152.65 72.4159 152.136 72.4159C151.714 72.4159 151.327 72.5124 150.971 72.7039C150.616 72.8954 150.289 73.1864 149.994 73.5754L150.052 72.6134H146.68L146.682 72.6119ZM142.782 80.5601C142.782 81.1064 142.751 81.4449 142.687 81.5726C142.625 81.7017 142.488 81.7656 142.28 81.7656C142.062 81.7656 141.915 81.6839 141.841 81.5191C141.766 81.3544 141.729 80.9921 141.729 80.428C141.729 79.9351 141.772 79.5581 141.857 79.2968C141.942 79.034 142.249 78.7089 142.78 78.32V80.5586L142.782 80.5601ZM141.732 75.6879C141.732 75.0807 141.759 74.7051 141.814 74.5596C141.869 74.4141 142.008 74.3429 142.233 74.3429C142.43 74.3429 142.57 74.429 142.656 74.6012C142.74 74.7734 142.783 75.1445 142.783 75.7131C142.783 76.1674 142.745 76.4672 142.669 76.6157C142.592 76.7627 142.01 77.0507 140.922 77.4767C139.905 77.8701 139.268 78.2146 139.011 78.51C138.754 78.8054 138.625 79.3606 138.625 80.1756V81.0693C138.625 82.1679 138.867 82.8805 139.351 83.2056C139.835 83.5307 140.367 83.694 140.947 83.694C141.389 83.694 141.771 83.596 142.092 83.403C142.411 83.2085 142.672 82.9176 142.875 82.5271V83.4965H146.098V78.0334C146.098 76.2342 146.04 75.0465 145.926 74.4691C145.812 73.8916 145.469 73.4061 144.9 73.0097C144.332 72.6134 143.487 72.4144 142.366 72.4144C141.431 72.4144 140.671 72.5896 140.086 72.94C139.501 73.2903 139.111 73.6926 138.918 74.1499C138.723 74.6071 138.627 75.2559 138.627 76.0976V76.828H141.735V75.6879H141.732ZM133.313 72.6119V83.4965H136.627V79.1988C136.627 78.1433 136.66 77.4693 136.725 77.1769C136.79 76.8844 136.965 76.6558 137.25 76.4925C137.536 76.3292 137.981 76.2461 138.588 76.2461V72.4159C137.675 72.4768 136.977 73.0187 136.496 74.0445L136.627 72.6134H133.313V72.6119ZM128.495 76.4747V75.679C128.495 75.0673 128.521 74.6902 128.576 74.5507C128.631 74.4112 128.774 74.3414 129.002 74.3414C129.188 74.3414 129.311 74.423 129.372 74.5878C129.433 74.7511 129.463 75.1148 129.463 75.679V76.4747H128.495ZM132.785 76.8028C132.785 75.7472 132.663 74.9293 132.42 74.3458C132.176 73.7639 131.753 73.2963 131.149 72.9429C130.545 72.5896 129.777 72.4144 128.848 72.4144C128.088 72.4144 127.415 72.5614 126.83 72.8539C126.246 73.1463 125.824 73.5679 125.567 74.1172C125.31 74.6665 125.181 75.4177 125.181 76.3693V79.5432C125.181 80.3523 125.239 80.9699 125.353 81.393C125.468 81.8175 125.674 82.205 125.972 82.5583C126.271 82.9116 126.688 83.1892 127.224 83.3911C127.76 83.593 128.377 83.694 129.078 83.694C129.779 83.694 130.399 83.5916 130.879 83.3867C131.357 83.1818 131.752 82.8745 132.063 82.4633C132.375 82.0521 132.573 81.6676 132.659 81.3068C132.743 80.9461 132.786 80.4295 132.786 79.757V78.9524H129.645V80.3879C129.645 80.9298 129.602 81.295 129.518 81.4835C129.433 81.672 129.264 81.7671 129.013 81.7671C128.811 81.7671 128.674 81.6958 128.603 81.5533C128.532 81.4108 128.496 81.0946 128.496 80.6017V78.2472H132.786V76.8042L132.785 76.8028ZM117.031 70.2158V83.4965H120.345V75.7279C120.345 75.1757 120.38 74.806 120.451 74.6205C120.523 74.4349 120.659 74.3414 120.861 74.3414C121.079 74.3414 121.22 74.4319 121.284 74.6116C121.347 74.7927 121.378 75.1994 121.378 75.8333V83.4951H124.691V75.9892C124.691 74.9664 124.647 74.2627 124.556 73.8767C124.466 73.4907 124.218 73.1508 123.809 72.8554C123.401 72.5599 122.908 72.413 122.329 72.413C121.952 72.413 121.597 72.4783 121.266 72.6104C120.935 72.7425 120.628 72.94 120.343 73.2027V70.2144H117.03L117.031 70.2158ZM109.35 70.2158V72.8732H111.393V83.4951H114.846V72.8732H116.896V70.2158H109.35ZM106.703 74.3503C106.501 73.7921 106.093 73.3304 105.481 72.9637C104.868 72.597 104.13 72.4144 103.266 72.4144C102.402 72.4144 101.659 72.5985 101.051 72.9682C100.444 73.3378 100.048 73.7565 99.8623 74.2271C99.6767 74.6977 99.5832 75.3954 99.5832 76.3188V79.4111C99.5832 80.4725 99.696 81.2905 99.9232 81.868C100.15 82.4455 100.536 82.8938 101.084 83.213C101.632 83.5322 102.371 83.6925 103.306 83.6925C104.04 83.6925 104.654 83.5767 105.152 83.3436C105.649 83.1106 106.053 82.7662 106.362 82.3104C106.67 81.8532 106.853 81.4078 106.911 80.9728C106.969 80.5379 107 79.8861 107.006 79.0162H104.053V80.3122C104.053 80.8748 104.013 81.2579 103.934 81.4612C103.856 81.6631 103.703 81.7641 103.479 81.7641C103.287 81.7641 103.142 81.6676 103.044 81.4731C102.946 81.2786 102.895 80.9877 102.895 80.6002V75.4652C102.895 74.9886 102.928 74.6828 102.993 74.5462C103.059 74.4097 103.188 74.3414 103.379 74.3414C103.571 74.3414 103.701 74.4201 103.773 74.5759C103.844 74.7318 103.879 75.0287 103.879 75.4667V76.7211H107.004C107.004 75.6982 106.903 74.9085 106.702 74.3503H106.703ZM95.6329 72.6119V83.4965H99.0458V72.6119H95.6329ZM95.6329 70.2158V71.9468H99.0458V70.2158H95.6329ZM90.1757 72.6119V83.4965H93.4892V79.1988C93.4892 78.1433 93.5218 77.4693 93.5872 77.1769C93.6525 76.8844 93.8277 76.6558 94.1127 76.4925C94.3977 76.3292 94.8431 76.2461 95.4503 76.2461V72.4159C94.5373 72.4768 93.8395 73.0187 93.3585 74.0445L93.4892 72.6134H90.1757V72.6119ZM85.7829 71.16V72.8747H85.0689V74.5967H85.7829V80.1251C85.7829 81.2074 85.8126 81.8962 85.8735 82.1887C85.9344 82.4811 86.0873 82.7409 86.3322 82.968C86.5786 83.1952 86.8622 83.3392 87.1858 83.403C87.508 83.4654 88.0469 83.498 88.8025 83.498H90.1401V81.7433C89.5982 81.7433 89.2909 81.7017 89.2167 81.6201C89.1424 81.5384 89.1053 81.1391 89.1053 80.4221V74.5982H89.999V72.8761H89.1053V71.1615H85.7829V71.16ZM81.7108 80.5601C81.7108 81.1064 81.6797 81.4449 81.6158 81.5726C81.5535 81.7017 81.4169 81.7656 81.2091 81.7656C80.9908 81.7656 80.8439 81.6839 80.7696 81.5191C80.6954 81.3544 80.6583 80.9921 80.6583 80.428C80.6583 79.9351 80.7013 79.5581 80.786 79.2968C80.8706 79.034 81.1779 78.7089 81.7093 78.32V80.5586L81.7108 80.5601ZM80.6613 75.6879C80.6613 75.0807 80.688 74.7051 80.7429 74.5596C80.7978 74.4141 80.9374 74.3429 81.1615 74.3429C81.359 74.3429 81.4985 74.429 81.5846 74.6012C81.6693 74.7734 81.7123 75.1445 81.7123 75.7131C81.7123 76.1674 81.6737 76.4672 81.598 76.6157C81.5208 76.7627 80.9389 77.0507 79.8507 77.4767C78.8338 77.8701 78.1969 78.2146 77.9401 78.51C77.6833 78.8054 77.5541 79.3606 77.5541 80.1756V81.0693C77.5541 82.1679 77.7961 82.8805 78.2801 83.2056C78.764 83.5307 79.2955 83.694 79.8759 83.694C80.3183 83.694 80.6999 83.596 81.0205 83.403C81.3397 83.2085 81.601 82.9176 81.8044 82.5271V83.4965H85.0273V78.0334C85.0273 76.2342 84.9694 75.0465 84.8551 74.4691C84.7408 73.8916 84.3978 73.4061 83.8293 73.0097C83.2607 72.6134 82.416 72.4144 81.2952 72.4144C80.3599 72.4144 79.5998 72.5896 79.0149 72.94C78.43 73.2903 78.0396 73.6926 77.8466 74.1499C77.6521 74.6071 77.5556 75.2559 77.5556 76.0976V76.828H80.6642V75.6879H80.6613ZM73.6527 72.6119V83.4965H77.0657V72.6119H73.6527ZM73.6527 70.2158V71.9468H77.0657V70.2158H73.6527ZM69.7039 80.3879C69.7039 80.9951 69.6682 81.3766 69.597 81.5325C69.5257 81.6884 69.3832 81.7671 69.1709 81.7671C68.9853 81.7671 68.8592 81.6973 68.7938 81.5577C68.7285 81.4182 68.6959 81.1272 68.6959 80.6848V75.3524C68.6959 74.9263 68.73 74.6516 68.7983 74.5284C68.8666 74.4052 68.9987 74.3443 69.1961 74.3443C69.3936 74.3443 69.5331 74.4126 69.6014 74.5492C69.6697 74.6858 69.7039 74.9545 69.7039 75.3538V80.3909V80.3879ZM69.7039 70.2158V73.3022C69.4248 73.0068 69.1145 72.7841 68.7731 72.6356C68.4316 72.4872 68.056 72.413 67.6448 72.413C67.1148 72.413 66.6576 72.5451 66.2746 72.8108C65.8916 73.0766 65.6466 73.3839 65.5397 73.7342C65.4328 74.0846 65.3794 74.6769 65.3794 75.5142V80.6076C65.3794 81.4122 65.4328 81.9912 65.5397 82.346C65.6466 82.7008 65.8886 83.0141 66.2657 83.2857C66.6427 83.5559 67.0881 83.6925 67.6032 83.6925C67.9863 83.6925 68.3529 83.6109 68.7018 83.4461C69.0521 83.2813 69.3847 83.0349 69.7024 82.7068V83.4965H73.0159V70.2158H69.7024H69.7039ZM60.6615 76.4747V75.679C60.6615 75.0673 60.6882 74.6902 60.7432 74.5507C60.7981 74.4112 60.9406 74.3414 61.1692 74.3414C61.3548 74.3414 61.478 74.423 61.5389 74.5878C61.5998 74.7511 61.6294 75.1148 61.6294 75.679V76.4747H60.6615ZM64.9518 76.8028C64.9518 75.7472 64.8301 74.9293 64.5867 74.3458C64.3432 73.7639 63.9201 73.2963 63.3159 72.9429C62.7117 72.5896 61.9442 72.4144 61.0148 72.4144C60.2548 72.4144 59.5823 72.5614 58.9974 72.8539C58.4124 73.1463 57.9908 73.5679 57.734 74.1172C57.4772 74.6665 57.348 75.4177 57.348 76.3693V79.5432C57.348 80.3523 57.4059 80.9699 57.5202 81.393C57.6345 81.8175 57.8409 82.205 58.1393 82.5583C58.4377 82.9116 58.8548 83.1892 59.3908 83.3911C59.9267 83.593 60.5442 83.694 61.2449 83.694C61.9457 83.694 62.5662 83.5916 63.0457 83.3867C63.5237 83.1818 63.9186 82.8745 64.2304 82.4633C64.5421 82.0521 64.7396 81.6676 64.8257 81.3068C64.9103 80.9461 64.9533 80.4295 64.9533 79.757V78.9524H61.812V80.3879C61.812 80.9298 61.769 81.295 61.6844 81.4835C61.5998 81.672 61.4305 81.7671 61.1796 81.7671C60.9777 81.7671 60.8412 81.6958 60.7699 81.5533C60.6986 81.4108 60.663 81.0946 60.663 80.6017V78.2472H64.9533V76.8042L64.9518 76.8028ZM54.0048 72.6935C54.1474 72.8301 54.2186 73.1255 54.2186 73.5798V74.671C54.2186 75.1638 54.1577 75.4874 54.0345 75.6433C53.9113 75.7992 53.6916 75.8779 53.3739 75.8779C53.3027 75.8779 53.218 75.8749 53.1201 75.869V72.4902C53.5684 72.4902 53.8638 72.5584 54.0063 72.695L54.0048 72.6935ZM49.6655 83.4965H53.1186V78.1477H54.0449C54.7991 78.1477 55.4107 78.0438 55.8783 77.836C56.346 77.6282 56.6666 77.3298 56.8418 76.9423C57.017 76.5534 57.1046 75.9358 57.1046 75.0881V73.9316C57.1046 73.1003 57.06 72.4872 56.9695 72.0908C56.8789 71.6944 56.7067 71.356 56.4528 71.0784C56.199 70.8008 55.819 70.5855 55.3127 70.4385C54.8065 70.2901 54.0835 70.2173 53.1438 70.2173H49.6655V83.498V83.4965Z" fill="#DF4434"/>
<path d="M154.724 34.2291C154.724 34.7665 154.692 35.0975 154.632 35.2237C154.569 35.3499 154.437 35.4137 154.232 35.4137C154.017 35.4137 153.873 35.3336 153.802 35.1717C153.729 35.0099 153.693 34.6536 153.693 34.0999C153.693 33.616 153.735 33.2463 153.818 32.988C153.901 32.7297 154.204 32.4105 154.725 32.029V34.2291H154.724ZM153.692 29.4429C153.692 28.8461 153.719 28.478 153.772 28.3354C153.826 28.1929 153.962 28.1217 154.183 28.1217C154.376 28.1217 154.514 28.2063 154.597 28.3755C154.681 28.5448 154.722 28.9085 154.722 29.4667C154.722 29.912 154.685 30.2074 154.609 30.3529C154.534 30.4984 153.962 30.7805 152.893 31.1991C151.894 31.5866 151.268 31.9236 151.015 32.2145C150.763 32.504 150.637 33.0503 150.637 33.8505V34.7294C150.637 35.8086 150.874 36.5093 151.349 36.8285C151.824 37.1477 152.347 37.308 152.917 37.308C153.352 37.308 153.726 37.213 154.041 37.0215C154.356 36.83 154.611 36.5435 154.81 36.1619V37.115H157.976V31.7484C157.976 29.9818 157.92 28.8135 157.807 28.2479C157.694 27.6808 157.359 27.2027 156.799 26.8138C156.241 26.4248 155.411 26.2289 154.309 26.2289C153.391 26.2289 152.644 26.4011 152.069 26.744C151.495 27.0884 151.112 27.4833 150.92 27.9331C150.73 28.3815 150.634 29.0198 150.634 29.8467V30.5637H153.687V29.4444L153.692 29.4429ZM140.151 24.0674V37.1135H143.407V29.483C143.407 28.9411 143.443 28.5774 143.512 28.3948C143.582 28.2122 143.717 28.1202 143.915 28.1202C144.13 28.1202 144.268 28.2093 144.329 28.3859C144.391 28.5626 144.421 28.9634 144.421 29.5869V37.1135H147.677V29.7413C147.677 28.7363 147.632 28.0445 147.543 27.6659C147.454 27.2874 147.21 26.9533 146.81 26.6624C146.409 26.3729 145.925 26.2274 145.355 26.2274C144.984 26.2274 144.636 26.2927 144.311 26.4219C143.986 26.551 143.685 26.7455 143.404 27.0038V24.0689H140.148L140.151 24.0674ZM135.756 24.9952V26.6787H135.055V28.3711H135.756V33.8015C135.756 34.8644 135.785 35.5414 135.845 35.8279C135.904 36.1159 136.054 36.3713 136.296 36.5939C136.538 36.8166 136.817 36.9591 137.133 37.0215C137.45 37.0838 137.98 37.1135 138.72 37.1135H140.034V35.3885C139.503 35.3885 139.2 35.3484 139.127 35.2682C139.054 35.1881 139.019 34.7962 139.019 34.0925V28.3711H139.898V26.6787H139.019V24.9952H135.756ZM131.528 26.4204V37.1135H134.88V26.4204H131.528ZM131.528 24.0674V25.7672H134.88V24.0674H131.528ZM128.663 26.4204C128.269 28.7155 128.02 30.7567 127.916 32.5441L127.257 26.4204H124.561C124.109 30.111 123.866 32.1537 123.829 32.5441C123.376 28.7407 123.139 26.6995 123.118 26.4204H120.312L121.691 37.1135H125.232L125.59 34.7932C125.745 33.8371 125.867 32.8885 125.955 31.9488C126.212 34.0865 126.437 35.8071 126.63 37.1135H130.163L131.462 26.4204H128.66H128.663Z" fill="#DF4434"/>
</svg>
