<svg width="30" height="29" viewBox="0 0 30 29" fill="none" xmlns="http://www.w3.org/2000/svg">
<path d="M23.3427 27.8081H5.96173C5.3688 27.8069 4.80038 27.5671 4.38112 27.1404C3.96198 26.7149 3.72622 26.1365 3.72564 25.5334V16.0868H2.4837C2.03276 16.0868 1.59245 15.9469 1.22061 15.6883C0.848867 15.4285 0.562924 15.0606 0.400353 14.6327C0.237783 14.2048 0.206217 13.7381 0.309703 13.2914C0.413303 12.8447 0.647215 12.4415 0.980681 12.1323L13.149 0.847168C13.56 0.462767 14.0978 0.25 14.6562 0.25C15.2146 0.25 15.7526 0.462767 16.1634 0.847168L28.332 12.1323C28.6648 12.4415 28.8981 12.8459 29.0014 13.2914C29.1045 13.7369 29.0728 14.2048 28.9104 14.6327C28.7479 15.0594 28.4622 15.4274 28.0908 15.6871C27.7194 15.9469 27.2795 16.0857 26.8287 16.0868H25.587V25.5334C25.5867 25.8332 25.5284 26.1294 25.4154 26.4057C25.3024 26.6819 25.137 26.9323 24.9285 27.1439C24.7201 27.3555 24.4727 27.5224 24.2007 27.6365C23.9286 27.7505 23.637 27.8093 23.3427 27.8081ZM6.20004 25.4253H23.1056V13.0963H25.6771L14.6523 2.87614L3.62737 13.0963H6.20004V25.4253Z" fill="#353D98" stroke="#353D98" stroke-width="0.5"/>
</svg>
