<svg width="138" height="138" viewBox="0 0 138 138" fill="none" xmlns="http://www.w3.org/2000/svg">
<path d="M128 69C128 101.585 101.585 128 69 128C36.4152 128 10 101.585 10 69C10 36.4152 36.4152 10 69 10C101.585 10 128 36.4152 128 69Z" fill="url(#paint0_linear_2066_25348)"/>
<path d="M128 69C128 101.585 101.585 128 69 128C36.4152 128 10 101.585 10 69C10 36.4152 36.4152 10 69 10C101.585 10 128 36.4152 128 69Z" fill="url(#paint1_linear_2066_25348)"/>
<path d="M76.4512 103.738C77.5557 103.738 78.4512 104.634 78.4512 105.738C78.4512 106.843 77.5557 107.738 76.4512 107.738H60.9687C59.8642 107.738 58.9687 106.843 58.9687 105.738C58.9687 104.634 59.8642 103.738 60.9687 103.738H76.4512Z" fill="white"/>
<path d="M69.4346 57.5674C75.7285 57.5674 80.8435 62.6682 80.8437 68.9766C80.8437 70.0811 79.9483 70.9766 78.8437 70.9766C77.7396 70.9761 76.8437 70.0808 76.8437 68.9766C76.8435 64.8805 73.5225 61.5674 69.4346 61.5674C68.3302 61.5671 67.4346 60.6718 67.4346 59.5674C67.4346 58.463 68.3302 57.5676 69.4346 57.5674Z" fill="white"/>
<path fill-rule="evenodd" clip-rule="evenodd" d="M68.7158 48.1064C80.6368 48.1065 90.3057 57.7752 90.3057 69.6963C90.3055 77.4137 86.2495 84.1769 80.1719 87.9893V91.5234C80.1717 95.6068 76.8705 98.9092 72.7871 98.9092H64.5654C60.4981 98.9089 57.1799 95.6112 57.1797 91.5234V87.9443C51.1499 84.117 47.1261 77.3798 47.126 69.6963C47.126 57.7754 56.7949 48.1067 68.7158 48.1064ZM68.7158 53.7607C59.918 53.761 52.7803 60.8984 52.7803 69.6963C52.7804 75.8174 56.242 81.1432 61.3242 83.8193C62.2529 84.3083 62.835 85.2717 62.835 86.3213V91.5234C62.8351 92.4791 63.612 93.2536 64.5654 93.2539H72.7871C73.7475 93.2539 74.5174 92.4838 74.5176 91.5234V86.3555C74.5176 85.2999 75.1061 84.332 76.043 83.8457C81.1603 81.1909 84.6512 75.8477 84.6514 69.6963C84.6514 60.8983 77.5138 53.7608 68.7158 53.7607Z" fill="white"/>
<path d="M95.0742 43.6709C95.6499 43.0752 96.5996 43.0582 97.1953 43.6338C97.791 44.2094 97.8069 45.1591 97.2314 45.7549L92.9287 50.208C92.3532 50.8036 91.4034 50.8204 90.8076 50.2451C90.212 49.6696 90.1952 48.7198 90.7705 48.124L95.0742 43.6709Z" fill="white"/>
<path d="M40.0801 43.6445C40.6516 43.045 41.6015 43.0223 42.2012 43.5938L46.3848 47.5811C46.9838 48.1526 47.0067 49.1017 46.4355 49.7012C45.8641 50.3006 44.9141 50.3231 44.3144 49.752L40.1309 45.7656C39.5314 45.1942 39.5089 44.2442 40.0801 43.6445Z" fill="white"/>
<path d="M68.8496 30.666C69.678 30.666 70.3496 31.3376 70.3496 32.166V38.166C70.3496 38.9944 69.678 39.666 68.8496 39.666C68.0212 39.666 67.3496 38.9944 67.3496 38.166V32.166C67.3496 31.3376 68.0212 30.666 68.8496 30.666Z" fill="white"/>
<path d="M125 69C125 38.0721 99.9279 13 69 13C38.0721 13 13 38.0721 13 69C13 99.9279 38.0721 125 69 125C99.9279 125 125 99.9279 125 69ZM135 69C135 105.451 105.451 135 69 135C32.5492 135 3 105.451 3 69C3 32.5492 32.5492 3 69 3C105.451 3 135 32.5492 135 69Z" fill="white"/>
<defs>
<linearGradient id="paint0_linear_2066_25348" x1="10" y1="10" x2="90.8498" y2="108.1" gradientUnits="userSpaceOnUse">
<stop stop-color="#FF216E"/>
<stop offset="1" stop-color="#DF4434"/>
</linearGradient>
<linearGradient id="paint1_linear_2066_25348" x1="36" y1="27.5" x2="128" y2="163.5" gradientUnits="userSpaceOnUse">
<stop stop-color="#FFAE00"/>
<stop offset="1" stop-color="#DF4434"/>
</linearGradient>
</defs>
</svg>
