<svg width="72" height="72" viewBox="0 0 72 72" fill="none" xmlns="http://www.w3.org/2000/svg">
<path d="M0.0436391 58.457C0.290895 57.1926 1.51751 56.3676 2.78193 56.6148L54.9659 66.8192C56.2296 67.0668 57.055 68.2921 56.8081 69.556C56.5609 70.8202 55.334 71.6451 54.0698 71.3982L1.88587 61.1938C0.621737 60.9466 -0.20314 59.7212 0.0436391 58.457Z" fill="#F61717"/>
<path d="M0.0436391 58.457C0.290895 57.1926 1.51751 56.3676 2.78193 56.6148L54.9659 66.8192C56.2296 67.0668 57.055 68.2921 56.8081 69.556C56.5609 70.8202 55.334 71.6451 54.0698 71.3982L1.88587 61.1938C0.621737 60.9466 -0.20314 59.7212 0.0436391 58.457Z" fill="#51B7FF"/>
<path d="M17.6458 22.4948C18.4922 21.5239 19.9657 21.4224 20.937 22.2685L58.6822 55.1553C59.6531 56.0017 59.7547 57.4752 58.9085 58.4464C58.0623 59.4176 56.5888 59.5186 55.6174 58.6727L17.8721 25.7859C16.9009 24.9395 16.7996 23.4661 17.6458 22.4948Z" fill="#F61717"/>
<path d="M17.6458 22.4948C18.4922 21.5239 19.9657 21.4224 20.937 22.2685L58.6822 55.1553C59.6531 56.0017 59.7547 57.4752 58.9085 58.4464C58.0623 59.4176 56.5888 59.5186 55.6174 58.6727L17.8721 25.7859C16.9009 24.9395 16.7996 23.4661 17.6458 22.4948Z" fill="#51B7FF"/>
<path d="M50.8683 0.126782C52.0869 -0.291295 53.4148 0.358537 53.8329 1.57718L71.0873 51.8718C71.5049 53.0903 70.8553 54.4184 69.6369 54.8364C68.4187 55.2538 67.092 54.6039 66.6738 53.386L49.4194 3.09136C49.0014 1.87284 49.6499 0.544993 50.8683 0.126782Z" fill="#F61717"/>
<path d="M50.8683 0.126782C52.0869 -0.291295 53.4148 0.358537 53.8329 1.57718L71.0873 51.8718C71.5049 53.0903 70.8553 54.4184 69.6369 54.8364C68.4187 55.2538 67.092 54.6039 66.6738 53.386L49.4194 3.09136C49.0014 1.87284 49.6499 0.544993 50.8683 0.126782Z" fill="#51B7FF"/>
</svg>
