<svg width="40" height="40" viewBox="0 0 40 40" fill="none" xmlns="http://www.w3.org/2000/svg">
<path d="M0 9.87608C0 4.42167 4.42168 0 9.87609 0H29.6283C35.0827 0 39.5043 4.42168 39.5043 9.87609V29.6283C39.5043 35.0827 35.0827 39.5043 29.6283 39.5043H9.87608C4.42167 39.5043 0 35.0827 0 29.6283V9.87608Z" fill="white" fill-opacity="0.9"/>
<path d="M21.2357 9.48566C22.5096 10.1885 23.1696 8.09387 22.5745 7.12504C22.3457 6.75314 21.9707 6.43419 21.4992 6.51046C20.3608 6.69452 20.2152 8.92277 21.2357 9.48566ZM24.8179 10.5371C26.0313 10.3272 25.9141 7.60536 24.5116 7.79509C23.2799 7.9615 23.4476 10.7747 24.8179 10.5371ZM27.783 11.9434C28.7872 11.0445 27.94 8.99589 26.8634 9.98867C25.8441 10.9279 26.6875 12.9242 27.783 11.9434ZM25.6582 12.2938C24.1655 11.2393 19.9013 9.91808 18.0954 10.0227C15.0382 10.2005 12.2698 12.8517 13.4516 16.0387C14.2125 18.0911 15.8129 18.2455 17.2236 19.5232C19.4487 21.5384 19.8092 24.1291 19.1146 26.9429C18.6608 28.781 18.2592 30.1469 18.7881 32.0783C19.8572 35.9814 24.5904 36.2177 26.4833 32.8713C28.4985 29.3092 28.0831 23.0342 27.9482 19.041C27.8536 16.2398 28.2281 14.1098 25.6575 12.2945L25.6582 12.2938ZM18.2674 9.1207C20.0053 8.98013 19.5949 5.27184 17.8319 5.59458C16.3966 5.8568 16.6178 9.25433 18.2674 9.1207ZM14.921 9.66468C15.7196 8.82255 15.7454 7.27758 15.3622 6.2432C14.2144 3.14634 11.0059 3.92922 11.2902 7.3028C11.4276 8.93601 13.3514 11.3187 14.921 9.66468Z" fill="#E7000B"/>
</svg>
