<svg width="40" height="40" viewBox="0 0 40 40" fill="none" xmlns="http://www.w3.org/2000/svg">
<path d="M0 9.87609C0 4.42167 4.42168 0 9.87609 0H30.1239C35.5783 0 40 4.42168 40 9.87609V30.1239C40 35.5783 35.5783 40 30.1239 40H9.87609C4.42167 40 0 35.5783 0 30.1239V9.87609Z" fill="white" fill-opacity="0.9"/>
<path d="M21.236 9.48566C22.5099 10.1885 23.1698 8.09387 22.5748 7.12504C22.346 6.75314 21.9709 6.43419 21.4994 6.51046C20.361 6.69452 20.2154 8.92277 21.236 9.48566ZM24.8182 10.5371C26.0316 10.3272 25.9143 7.60536 24.5118 7.79509C23.2801 7.9615 23.4478 10.7747 24.8182 10.5371ZM27.7833 11.9434C28.7874 11.0445 27.9402 8.99589 26.8636 9.98867C25.8444 10.9279 26.6878 12.9242 27.7833 11.9434ZM25.6584 12.2938C24.1658 11.2393 19.9015 9.91808 18.0956 10.0227C15.0385 10.2005 12.27 12.8517 13.4519 16.0387C14.2127 18.0911 15.8131 18.2455 17.2238 19.5232C19.4489 21.5384 19.8095 24.1291 19.1149 26.9429C18.661 28.781 18.2595 30.1469 18.7883 32.0783C19.8574 35.9814 24.5906 36.2177 26.4835 32.8713C28.4987 29.3092 28.0833 23.0342 27.9484 19.041C27.8539 16.2398 28.2283 14.1098 25.6578 12.2945L25.6584 12.2938ZM18.2677 9.1207C20.0055 8.98013 19.5952 5.27184 17.8321 5.59458C16.3968 5.8568 16.6181 9.25433 18.2677 9.1207ZM14.9212 9.66468C15.7199 8.82255 15.7457 7.27758 15.3624 6.2432C14.2146 3.14634 11.0062 3.92922 11.2905 7.3028C11.4279 8.93601 13.3517 11.3187 14.9212 9.66468Z" fill="#00984F"/>
</svg>
