<svg width="40" height="40" viewBox="0 0 40 40" fill="none" xmlns="http://www.w3.org/2000/svg">
<path d="M0 9.87608C0 4.42167 4.42168 0 9.87609 0H29.6283C35.0827 0 39.5043 4.42168 39.5043 9.87609V29.6283C39.5043 35.0827 35.0827 39.5043 29.6283 39.5043H9.87608C4.42167 39.5043 0 35.0827 0 29.6283V9.87608Z" fill="white" fill-opacity="0.9"/>
<path d="M14.7841 34.2533C14.3129 34.2533 13.6206 34.0442 13.2213 33.4547L13.2082 33.4348L13.2015 33.4119C12.9705 32.6482 12.7156 32.0461 12.4445 31.6213C12.3966 31.5514 12.3293 31.4732 12.2579 31.3903C12.0082 31.1005 11.6663 30.7038 11.9676 30.2456C12.2277 29.8739 12.7995 29.792 13.0743 29.7529C13.0988 29.7493 13.1269 29.7456 13.1478 29.742C13.2739 29.621 13.4981 29.2634 13.7551 28.8532C14.512 27.6459 15.6484 25.8328 17.0669 25.2484C17.1821 24.664 17.3265 24.0765 17.4662 23.5078C17.6533 22.7478 17.8462 21.9616 17.9698 21.1818C17.9745 21.1224 17.9447 21.0744 17.8879 20.9889C17.8582 20.9441 17.8243 20.8935 17.7962 20.8346C17.4751 20.1731 17.5037 19.2738 17.8676 18.5977L17.8718 18.5909C17.8754 18.5847 17.8791 18.579 17.8832 18.5732L17.8723 18.5633C17.6909 18.3897 17.585 18.1687 17.4823 17.955C17.4151 17.8153 17.352 17.6828 17.2691 17.5624C17.0189 17.2418 16.74 16.9217 16.4705 16.6121C15.8861 15.9417 15.2825 15.2479 14.8696 14.4498C14.7414 14.2282 14.646 13.9629 14.9014 13.6709L14.9071 13.6647L14.9134 13.659C15.5145 13.1033 16.0874 12.6549 16.6165 12.3255C17.7983 11.4283 19.2266 10.4681 20.8906 10.1048C20.9047 9.90198 20.804 9.66948 20.6336 9.53342L20.6174 9.52039L20.6054 9.50371C20.2749 9.05539 19.9929 8.28179 20.1081 7.56449C20.1592 7.24598 20.2874 6.97542 20.4824 6.76847C20.3959 6.75335 20.3073 6.72781 20.2556 6.64909C20.2228 6.59905 20.2134 6.53754 20.2296 6.47602L20.2353 6.45517L20.2463 6.4364C20.3391 6.27949 20.608 6.18358 21.0397 6.07567C21.0345 6.0668 21.0292 6.05794 21.0251 6.05064C20.963 5.94639 20.8921 5.82857 20.9526 5.70763L20.9792 5.65394L21.035 5.63204C21.1669 5.57991 21.3123 5.55437 21.4796 5.55437C21.7476 5.55437 22.0234 5.62162 22.283 5.69043C22.3153 5.69929 22.3434 5.71076 22.3695 5.72171C22.3658 5.52049 22.3862 5.30102 22.5671 5.25567L22.5858 5.25098H22.6083C22.701 5.25098 22.7923 5.31197 23.2573 5.68887C23.3125 5.7337 23.374 5.78374 23.4277 5.82649C23.4408 5.74517 23.4496 5.6946 23.4819 5.65185L23.4934 5.63674L23.508 5.62475C23.5627 5.57991 23.6263 5.55593 23.6925 5.55593C23.9052 5.55593 24.0564 5.7926 24.1377 5.9198L24.1476 5.93492L24.1518 5.94326C24.2086 6.06055 24.2524 6.18879 24.2946 6.31234C24.3113 6.36134 24.3275 6.40825 24.3442 6.45413L24.3468 6.45309C24.3999 6.43797 24.4599 6.42076 24.5235 6.42076C24.6304 6.42076 24.694 6.47029 24.7284 6.51147L24.7523 6.54014L24.7607 6.57611C24.7878 6.69288 24.7351 6.86699 24.621 7.1683C24.6105 7.19593 24.5986 7.22825 24.5907 7.2491C24.6017 7.32261 24.6283 7.41279 24.6564 7.50767C24.7398 7.79073 24.843 8.14208 24.6351 8.40586C24.5814 8.544 24.596 8.88754 24.6642 9.04028C24.6684 9.04914 24.6762 9.06582 24.6872 9.08771C24.9572 9.63716 25.0896 10.0354 24.8597 10.1923C24.8112 10.2257 24.7539 10.2299 24.7039 10.2299C24.6778 10.2299 24.6476 10.2283 24.6158 10.2267C24.5845 10.2252 24.5511 10.2236 24.5183 10.2236C24.4938 10.2236 24.4755 10.2247 24.4625 10.2262C24.2305 10.9847 23.9933 11.3694 23.7561 11.3694C23.7504 11.3694 23.7452 11.3694 23.7395 11.3689C23.7285 11.3684 23.7087 11.3663 23.6832 11.3642C23.5805 11.3554 23.3662 11.3366 23.2041 11.3366C23.1785 11.3366 23.1572 11.3366 23.1389 11.3376V11.6217C23.1567 11.6728 23.2166 11.8219 23.2505 11.9053C23.2802 11.9793 23.3063 12.0435 23.3157 12.0695C23.74 13.2419 23.6336 14.3424 23.4501 15.6592C23.4496 15.6644 23.4486 15.6701 23.4475 15.6753C23.4804 15.6597 23.5137 15.6441 23.5471 15.6284C24.0585 15.3876 24.5871 15.1389 25.0662 14.8314C25.0782 14.7818 25.0907 14.6812 25.0985 14.6171C25.1126 14.5019 25.1261 14.3924 25.1517 14.3194C25.1871 14.2183 25.368 13.9483 25.5202 13.9014C25.5765 13.8842 25.6412 13.8758 25.723 13.8758C25.7944 13.8758 25.869 13.8821 25.9409 13.8883C26.0076 13.8941 26.0707 13.8993 26.1254 13.8993C26.1536 13.8993 26.177 13.8977 26.1963 13.8951L26.2156 13.8925L26.2349 13.8946C26.4669 13.917 26.7838 13.9478 26.9303 14.3257L26.9355 14.3398L26.9381 14.3544C26.9882 14.6317 27.0752 15.3182 26.7995 15.7087C26.6931 15.8588 26.5472 15.9501 26.3652 15.9798L26.3569 15.9808C26.3282 15.9839 26.3001 15.9865 26.2719 15.9892C26.1364 16.0017 26.0186 16.0131 25.9127 16.0715C25.0062 17.0151 24.2973 17.32 23.2276 17.7803C23.1368 17.8194 23.0441 17.8596 22.9476 17.9013C22.8501 18.3444 22.7146 18.7823 22.5838 19.2071C22.5556 19.2978 22.5275 19.389 22.4998 19.4792C22.4826 19.5329 22.4576 19.5903 22.431 19.6507C22.3971 19.7274 22.345 19.8473 22.3346 19.9197C22.6432 20.2221 23.0602 20.6052 23.5007 21.0098C24.0595 21.5232 24.6371 22.0539 25.0119 22.4391C25.6083 22.974 26.0024 23.329 26.3381 24.1438L26.3428 24.1553L26.3454 24.1672C26.5227 24.9205 25.8637 25.9032 25.2825 26.7701C25.063 27.0974 24.8561 27.4061 24.7263 27.6589L24.7237 27.6641L24.7205 27.6693C24.3202 28.3188 23.9767 28.8949 23.6701 29.4313C23.4835 29.7581 23.5388 30.0589 23.7066 30.4999C24.0595 31.4279 24.4719 31.8183 24.7445 32.0763C24.9165 32.239 25.0411 32.3568 25.0573 32.5314C25.0714 32.6842 25.0276 32.8213 24.9311 32.9287C24.7169 33.1664 24.3145 33.1778 24.2691 33.1784H24.2613C23.925 33.1784 23.5414 32.9292 23.2614 32.7473C23.1785 32.6936 23.1071 32.6472 23.0503 32.6154L23.0206 32.5992C21.9843 32.043 20.301 30.9733 20.6701 30.0615C20.7514 29.8603 20.9969 29.6627 21.2346 29.4714C21.3316 29.3932 21.4233 29.3192 21.4838 29.2598C21.9655 28.7849 22.0823 28.3027 22.2298 27.6917C22.2616 27.5604 22.2944 27.4243 22.3325 27.283C22.4988 26.6142 22.7996 25.9548 23.091 25.3177C23.1952 25.0889 23.2948 24.8715 23.3876 24.6547C23.3589 24.6463 23.3266 24.6364 23.2953 24.6197L23.2776 24.6103C22.6051 24.2611 21.9102 23.9003 21.2357 23.5198C21.2294 23.5292 21.2232 23.538 21.2169 23.5474C20.8885 24.0479 20.5835 24.5869 20.2885 25.1087C20.0492 25.5315 19.8021 25.9683 19.542 26.3859C19.1854 26.9593 18.8028 27.1741 18.3597 27.4222C18.2414 27.4884 18.1194 27.5567 17.9885 27.637C17.5141 27.9258 15.6635 30.0542 15.0406 30.8388L15.026 30.8576L15.0062 30.8711C14.8378 30.9863 14.843 31.1312 14.867 31.3992C14.8717 31.4508 14.8764 31.5029 14.879 31.5556V31.5639C14.879 31.7 14.8722 31.8423 14.8654 31.9794C14.855 32.1858 14.8446 32.399 14.8576 32.5929C14.866 32.7186 14.965 32.8046 15.0698 32.8953C15.1084 32.9287 15.1485 32.9636 15.1834 33.0006C15.6245 33.401 15.637 33.6939 15.5697 33.8691C15.4774 34.1089 15.184 34.2522 14.7846 34.2522L14.7841 34.2533ZM18.7142 13.733C18.5046 13.8529 18.1851 14.0317 17.8728 14.2058C17.5423 14.3903 17.2306 14.565 17.1618 14.6072C17.1414 14.6197 17.1268 14.6364 17.1227 14.6765C17.0789 15.0659 17.9682 16.1627 18.7345 16.9608C18.7413 15.8088 18.7397 14.2902 18.7142 13.733Z" fill="#00A63E"/>
</svg>
