<svg width="40" height="40" viewBox="0 0 40 40" fill="none" xmlns="http://www.w3.org/2000/svg">
<path d="M0 9.87608C0 4.42167 4.42168 0 9.87609 0H29.6283C35.0827 0 39.5043 4.42168 39.5043 9.87609V29.6283C39.5043 35.0827 35.0827 39.5043 29.6283 39.5043H9.87608C4.42167 39.5043 0 35.0827 0 29.6283V9.87608Z" fill="white" fill-opacity="0.9"/>
<path d="M29.4417 7.0659H29.0071V6.52527C28.6398 6.44339 28.531 6.82419 28.2522 6.9571C28.2304 6.84774 28.3549 6.43217 28.0907 6.52695C27.6998 6.6666 27.6258 7.17919 27.2781 7.3895V6.74175C27.1569 6.76081 26.9399 6.69912 26.8586 6.75521C26.6959 6.86681 26.4155 8.56443 26.3303 8.87232C24.917 10.9199 23.4488 13.7537 22.045 15.7935L20.2229 15.7037L20.1146 14.8389C23.3579 14.2512 24.8088 10.635 23.6277 7.71366C23.4291 7.22237 23.078 6.80961 22.9266 6.30991C23.1902 6.24934 23.4583 6.16578 23.7095 6.06539C23.8262 6.01996 24.0331 6.03398 24.0073 5.87751L22.8173 5.76927L22.9261 4.68912C22.3019 4.96056 22.114 5.78554 21.3782 5.23537C21.1785 5.08563 20.8196 4.01445 20.6553 3.71833C20.344 3.91294 20.2913 4.45806 20.2206 4.79568C19.6464 4.85737 19.4932 4.60276 19.1422 4.25841L18.8724 4.79624L18.3312 3.71777L18.0547 5.00655L15.8989 4.69081L16.439 6.09287L15.1418 5.98631L15.5725 6.90326L14.8182 6.84942L15.356 7.54597C14.1177 10.4589 15.5501 14.2176 18.8186 14.8406L18.7098 15.8114C18.2925 15.7503 17.6481 15.9056 17.2679 15.7929C17.0851 15.7374 16.937 15.4228 16.8265 15.2618C15.4228 13.2221 14.2591 10.9199 12.8458 8.87232C12.7605 8.56443 12.4801 6.86681 12.3175 6.75521C12.2362 6.69912 12.0191 6.76081 11.8985 6.74175V7.3895C11.5503 7.17919 11.4762 6.6666 11.0859 6.52695C10.8212 6.43217 10.9457 6.84774 10.9238 6.9571C10.6457 6.82419 10.5363 6.44339 10.1695 6.52527V7.0659H9.73488C9.67375 7.40857 9.9665 7.54597 10.1678 7.7675L9.73544 7.82134C9.62103 7.93518 10.3086 8.57845 10.4398 8.68389C10.9317 9.07366 11.5144 9.31201 12.11 9.49876L16.5427 16.6246C16.6471 17.8713 16.4199 19.2857 16.5455 20.51C16.6005 21.0512 16.946 21.3114 16.9869 21.7999L15.8047 31.4153C15.8036 31.5717 15.964 31.9873 16.0616 32.1146C16.1743 32.2632 16.4216 32.3143 16.4429 32.4029C16.5736 32.9587 16.2349 33.6922 16.3302 34.2738C15.7783 34.0231 13.7235 34.1448 13.6236 34.8716C13.5362 35.5166 14.2024 35.5317 14.6012 35.7864H16.0066C16.1978 35.6007 16.9056 35.5435 17.0351 35.3562C17.2617 35.0281 17.3156 33.0652 17.4059 32.5044C17.9986 32.3339 18.1405 31.9559 18.2499 31.3867L19.251 22.8296L19.4501 23.4392L21.1645 31.8774C21.45 32.6283 22.059 32.427 22.179 32.6132C22.46 33.0467 22.4129 34.6053 22.7186 35.0752C22.9418 35.419 24.3001 35.5003 24.7112 35.4622C25.3959 35.3994 26.5563 34.9816 25.954 34.1672C25.8227 34.0276 24.6652 33.589 23.359 33.9508C23.4129 33.4365 23.0966 32.8796 23.1341 32.3838C23.1616 31.9969 23.6417 31.6962 23.4577 31.2095L21.5133 21.5986C21.9973 21.3765 22.3019 21.1757 22.3776 20.6076C22.5391 19.4007 22.1252 18.1787 22.2985 16.965L27.0661 9.49876C27.222 9.44997 27.3773 9.39726 27.5299 9.33949V7.72768H29.0464C29.2443 7.52858 29.4984 7.38782 29.4417 7.0659ZM18.7827 13.8491C18.4294 13.6506 17.642 12.7768 17.5214 12.4083C17.499 12.3377 17.5012 12.2244 17.5735 12.2485C17.8024 12.3231 18.1478 12.5973 18.4198 12.6994C19.2341 13.0067 20.1646 13.0213 20.9301 12.5749L21.953 11.8167C22.1016 11.9866 21.1679 13.2995 20.9811 13.4907C20.3463 14.1413 19.5976 14.3078 18.7827 13.8491Z" fill="#155DFC"/>
</svg>
