<svg width="1500" height="118" viewBox="0 0 1500 118" fill="none" xmlns="http://www.w3.org/2000/svg">
<path d="M0 14.3677C399.732 -21.3187 701.885 84.2281 983.899 84.2281C1293.78 84.2281 1402.39 17.3824 1500 17.3824V117.459C914.214 117.459 585.786 117.459 0 117.459V14.3677Z" fill="url(#paint0_linear_22_2154)"/>
<path d="M0 14.3677C399.732 -21.3187 701.885 84.2281 983.899 84.2281C1293.78 84.2281 1402.39 17.3824 1500 17.3824V117.459C914.214 117.459 585.786 117.459 0 117.459V14.3677Z" fill="white" fill-opacity="0.54"/>
<path d="M0 14.3677C399.732 -21.3187 701.885 84.2281 983.899 84.2281C1293.78 84.2281 1402.39 17.3824 1500 17.3824V117.459C914.214 117.459 585.786 117.459 0 117.459V14.3677Z" fill="#F7FAFD"/>
<path d="M1500 6.4511V18.5829C1443 38.1667 1383.68 55.29 1327 65.2827C886.11 164.547 443.61 -11.4957 0 35.8469V5.98912C335.98 -22.4726 664.58 59.1867 996.92 69.541C1167.38 76.6012 1333.5 36.4093 1500 6.4511Z" fill="#00A63E"/>
<path opacity="0.3" d="M1500 6.63184V17.0363C1354.09 68.1952 1179.11 123.642 1017 112.575C674.51 96.7474 342.9 0.927435 0 45.0964V24.9201C433.87 -36.3119 919.52 188.269 1500 6.63184Z" fill="#DAE9FF"/>
<path opacity="0.2" d="M1498.65 11.6933V22.0976C1434.76 38.3572 1369.45 56.8664 1304.45 72.4431C844.981 182.594 520.26 6.63154 0 50.69V20.4406C445.35 -10.9336 891.611 155.82 1331.55 46.6628C1387.86 35.4548 1441.08 17.8999 1498.65 11.6933Z" fill="#00A63E"/>
<defs>
<linearGradient id="paint0_linear_22_2154" x1="750" y1="13.6155" x2="750" y2="999.911" gradientUnits="userSpaceOnUse">
<stop stop-color="#C1E8FF"/>
<stop offset="1" stop-color="#53B3EA"/>
</linearGradient>
</defs>
</svg>
